<?xml version="1.0" standalone="no"?>
<!DOCTYPE svg PUBLIC "-//W3C//DTD SVG 1.1//EN" "http://www.w3.org/Graphics/SVG/1.1/DTD/svg11.dtd">
<svg xmlns="http://www.w3.org/2000/svg">
<defs >
<font id="PublicSans" horiz-adv-x="1041" ><font-face
    font-family="Public Sans Thin Light"
    units-per-em="2000"
    panose-1="0 0 0 0 0 0 0 0 0 0"
    ascent="1900"
    descent="-450"
    alphabetic="0" />
<glyph unicode=" " horiz-adv-x="471" />
<glyph unicode="!" horiz-adv-x="479" d="M159 346L276 1446H459L262 346H159ZM67 0L97 212H283L252 0H67Z" />
<glyph unicode="&quot;" horiz-adv-x="812" d="M592 1005L606 1446H800L684 1005H592ZM260 1005L274 1446H468L352 1005H260Z" />
<glyph unicode="#" horiz-adv-x="1155" d="M760 -3L657 12L876 1449L978 1437L760 -3ZM86 474V577H1061V474H86ZM353 -3L251 12L470 1449L572 1437L353 -3ZM150 884V987H1125V884H150Z" />
<glyph unicode="$" horiz-adv-x="1242" d="M560 -20Q353 -20 228 77T103 361L262 374Q276 245 361 182T580 118Q662 118 739 148T869 234T933 365Q949 465 903 526T743 624L516 693Q373 736 298 821T243 1049Q260 1171 334 1264T523 1411T781 1464Q917 1464 1007
1408T1139 1261T1169 1062L1016 1050Q1014 1142 985 1204T901 1297T760 1328Q682 1328 606 1299T475 1210T408 1062Q396 980 443 932T624 837L840 766Q1002 714 1058 609T1096 368Q1080 255 1007 168T818 30T560 -20ZM458 -214L495 44H638L601 -214H458ZM702 1407L739
1665H883L846 1407H702Z" />
<glyph unicode="%" horiz-adv-x="1664" d="M1166 -20Q1077 -20 1014 29T924 172T916 395Q934 522 987 615T1117 758T1283 809Q1372 809 1434 759T1523 615T1532 395Q1514 265 1462 172T1333 30T1166 -20ZM438 642Q348 642 285 691T195 833T185 1054Q203 1183 256
1275T387 1418T553 1468Q642 1468 704 1418T794 1276T803 1054Q784 925 732 833T603 692T438 642ZM448 733Q541 733 605 822T690 1054Q711 1198 671 1288T539 1378Q478 1378 428 1337T344 1222T297 1054Q277 912 316 823T448 733ZM1178 73Q1238 73 1288 114T1372
228T1420 393Q1433 486 1419 559T1367 674T1269 716Q1209 716 1160 674T1075 559T1027 393Q1014 300 1028 228T1080 115T1178 73ZM310 -8L212 -7L1456 1462H1551L310 -8Z" />
<glyph unicode="&amp;" horiz-adv-x="1307" d="M413 -10Q284 -10 201 37T83 169T63 364Q77 457 122 533T248 675T444 801Q398 861 368 918T326 1033T324 1156Q337 1243 390 1314T525 1426T708 1468Q803 1468 880 1431T997 1325T1024 1162Q1017 1115 984 1053T870
918T643 768L903 369Q926 395 962 450T1032 586T1085 767H1232Q1206 660 1165 574T1072 414T966 273L1146 0H970L858 166Q743 74 632 32T413 -10ZM463 118Q547 118 635 158T795 264L508 703Q396 642 319 557T229 365Q217 253 286 186T463 118ZM587 860Q701 924
763 975T852 1070T885 1160Q895 1232 869 1275T796 1337T695 1355Q602 1354 545 1297T477 1164Q469 1110 483 1058T520 963T561 897L587 860Z" />
<glyph unicode="&apos;" horiz-adv-x="480" d="M260 1005L274 1446H468L352 1005H260Z" />
<glyph unicode="(" horiz-adv-x="570" d="M290 -236Q233 -96 196 41T149 325T163 642Q199 889 307 1118T559 1532H661Q539 1338 443 1108T313 640Q281 415 302 201T391 -236H290Z" />
<glyph unicode=")" horiz-adv-x="585" d="M308 1528Q365 1388 402 1251T449 967T435 650Q399 403 291 174T39 -240H-63Q59 -46 155 184T285 652Q317 877 296 1091T207 1528H308Z" />
<glyph unicode="*" horiz-adv-x="744" d="M312 796L214 863L399 1094L144 1167L181 1269L424 1173L407 1446H529L513 1173L759 1278L792 1176L543 1095L722 874L624 803L471 1050L312 796Z" />
<glyph unicode="+" horiz-adv-x="1044" d="M433 307L552 1148H672L552 307H433ZM146 664L164 788L957 790L939 665L146 664Z" />
<glyph unicode="," horiz-adv-x="452" d="M-22 -243L117 -3L39 1L68 205H270L245 28L54 -243H-22Z" />
<glyph unicode="-" horiz-adv-x="717" d="M116 453L133 580L601 581L584 454L116 453Z" />
<glyph unicode="." horiz-adv-x="420" d="M40 0L71 214H257L225 0H40Z" />
<glyph unicode="/" horiz-adv-x="652" d="M-57 -88L631 1446H753L64 -88H-57Z" />
<glyph unicode="0" horiz-adv-x="1153" d="M501 -22Q282 -22 179 163T127 717Q162 966 245 1132T447 1382T711 1466Q928 1466 1032 1279T1084 720Q1032 350 876 164T501 -22ZM522 117Q674 117 773 259T917 720Q963 1043 902 1186T691 1330Q541 1330 439 1186T290
720Q246 402 308 260T522 117Z" />
<glyph unicode="1" horiz-adv-x="778" d="M286 0L454 1169H187L202 1279Q325 1279 394 1296T496 1351T540 1446H649L441 0H286Z" />
<glyph unicode="2" horiz-adv-x="1121" d="M53 0L68 105L76 160Q94 290 159 379T315 534T506 652T697 760T850 888T927 1062Q943 1180 876 1252T679 1325Q585 1325 511 1287T387 1180T318 1020H166Q186 1142 255 1243T438 1405T705 1466Q839 1466 930 1416T1063
1274T1087 1062Q1069 932 1005 843T850 691T661 577T473 472T322 348T246 175L241 142H967L947 0H53Z" />
<glyph unicode="3" horiz-adv-x="1187" d="M496 -22Q361 -20 263 33T117 181T83 407H237Q237 270 313 193T522 116Q627 116 709 151T843 250T906 396Q920 490 881 554T764 651T585 685L464 687L483 824L600 826Q694 827 774 864T906 962T967 1093Q976 1155 948
1209T857 1298T694 1332Q619 1332 545 1300T415 1201T343 1031H191Q210 1167 286 1264T475 1414T713 1466Q852 1466 952 1422T1100 1296T1132 1097Q1117 990 1039 902T822 765Q912 738 972 687T1058 562T1071 396Q1058 300 1009 222T883 89T707 6T496 -22Z" />
<glyph unicode="4" horiz-adv-x="1179" d="M664 0L718 383H76L98 532L864 1446H1019L889 524H1117L1096 383H867L813 0H664ZM244 524H735L836 1233L244 524Z" />
<glyph unicode="5" horiz-adv-x="1206" d="M544 -22Q419 -22 321 26T158 159T77 358L220 407Q241 320 284 254T395 151T555 113Q705 113 810 207T939 469Q954 572 921 648T820 765T667 807Q608 807 556 796T449 752T333 653Q328 651 326 651T319 654L190 689L357
1446H1158L1135 1308H471L364 809Q440 881 528 912T714 943Q834 943 930 890T1074 733T1102 474Q1081 324 1005 213T810 40T544 -22Z" />
<glyph unicode="6" horiz-adv-x="1171" d="M533 -22Q378 -22 276 64T134 313T125 702Q158 933 242 1105T456 1371T758 1466Q868 1466 955 1423T1092 1298T1143 1101H999Q986 1206 920 1269T741 1333Q615 1333 520 1257T366 1032T285 664Q322 744 383 805T522 900T684
934Q818 934 910 879T1045 720T1067 472Q1047 326 975 215T789 41T533 -22ZM552 112Q640 112 714 156T837 280T901 465Q916 569 893 644T808 761T646 802Q567 802 490 763T359 657T293 509Q276 394 302 305T393 164T552 112Z" />
<glyph unicode="7" horiz-adv-x="1130" d="M263 0Q295 102 357 251T510 576T717 940T975 1308H206L227 1446H1166L1144 1308Q1055 1197 963 1059T786 773T628 481T503 213T427 0H263Z" />
<glyph unicode="8" horiz-adv-x="1225" d="M536 -22Q381 -22 273 29T115 172T81 389Q93 473 144 551T267 684T411 753Q320 795 270 875T237 1075Q255 1200 327 1287T508 1420T745 1466Q874 1466 970 1421T1113 1288T1142 1075Q1126 956 1055 876T880 753Q948 739
1004 684T1090 551T1108 389Q1091 265 1015 173T815 29T536 -22ZM554 108Q714 108 820 184T944 388Q956 472 922 537T815 640T634 678Q529 678 445 641T309 538T244 388Q227 261 311 185T554 108ZM654 822Q786 822 877 889T986 1080Q1004 1202 931 1273T727 1344Q597
1344 505 1273T396 1080Q379 957 451 890T654 822Z" />
<glyph unicode="9" horiz-adv-x="1176" d="M471 -22Q361 -22 272 22T131 147T76 342H225Q235 239 304 176T485 112Q612 112 711 183T874 404T962 785Q928 702 867 640T726 542T558 506Q425 506 331 561T195 721T173 972Q194 1118 264 1229T447 1403T704 1466Q859
1466 960 1380T1101 1132T1109 742Q1076 504 991 333T774 70T471 -22ZM589 642Q670 642 747 681T878 788T943 936Q961 1051 934 1140T844 1282T685 1334Q598 1334 525 1290T403 1165T339 980Q317 826 379 734T589 642Z" />
<glyph unicode=":" horiz-adv-x="422" d="M152 775L183 988H369L338 775H152ZM41 6L72 218H258L227 6H41Z" />
<glyph unicode=";" horiz-adv-x="453" d="M1 -279L144 0H72L102 212H288L261 25L68 -279H1ZM175 772L205 987H392L361 772H175Z" />
<glyph unicode="&lt;" horiz-adv-x="1029" d="M869 297L140 619L161 767L984 1095L963 942L335 693L890 446L869 297Z" />
<glyph unicode="=" horiz-adv-x="1046" d="M175 858L193 982L986 984L968 859L175 858ZM112 418L130 542L923 544L905 419L112 418Z" />
<glyph unicode="&gt;" horiz-adv-x="1028" d="M96 297L119 446L744 693L187 942L210 1095L939 767L917 619L96 297Z" />
<glyph unicode="?" horiz-adv-x="975" d="M367 350Q383 465 431 550T541 702T664 831T771 960T828 1112Q844 1218 783 1279T607 1341Q543 1341 478 1315T360 1243T277 1142L147 1188Q225 1318 352 1392T626 1466Q751 1466 836 1422T961 1299T986 1117Q971 1014
922 938T808 798T678 670T563 530T498 350H367ZM291 0L322 212H506L475 0H291Z" />
<glyph unicode="@" horiz-adv-x="1579" d="M701 -220Q534 -220 412 -163T212 -6T106 226T98 509Q121 667 194 807T379 1056T636 1226T946 1288Q1064 1288 1173 1252T1365 1140T1486 946T1501 663Q1480 514 1417 400T1265 222T1075 158Q1004 158 969 184T926 263Q923
276 919 276T904 266Q856 208 789 169T630 130Q562 130 509 172T432 292T424 475Q441 599 500 701T648 865T840 926Q917 926 964 892T1035 801Q1036 797 1040 798T1048 807L1074 876H1181L1048 428Q1023 340 1037 306T1099 272Q1159 272 1217 317T1318 448T1378
651Q1399 794 1368 894T1269 1057T1112 1149T927 1178Q780 1178 658 1125T445 979T295 765T217 507Q199 378 222 266T311 69T484 -63T742 -110Q826 -110 887 -93T1000 -47T1105 17L1153 -69Q1060 -138 945 -179T701 -220ZM673 249Q733 249 790 287T892 389T956
527Q981 620 969 682T919 776T831 808Q763 808 705 764T608 647T555 483Q539 376 570 313T673 249Z" />
<glyph unicode="A" horiz-adv-x="1347" d="M21 0L721 1446H896L1180 0H1025L946 412H375L175 0H21ZM437 560H925L788 1290L437 560Z" />
<glyph unicode="B" horiz-adv-x="1274" d="M126 0L334 1446H756Q999 1446 1113 1349T1200 1067Q1183 951 1115 869T897 736Q973 719 1023 687T1101 609T1137 507T1135 385Q1107 191 963 96T564 0H126ZM297 135H576Q757 135 862 197T986 394Q999 491 961 550T849
636T678 663H373L297 135ZM391 800H693Q748 800 806 811T916 851T1004 929T1051 1053Q1071 1188 985 1250T743 1313H465L391 800Z" />
<glyph unicode="C" horiz-adv-x="1310" d="M614 -20Q438 -20 325 62T165 302T142 688Q160 866 212 1009T349 1255T551 1411T815 1466Q956 1466 1056 1405T1209 1239T1260 1010H1097Q1093 1097 1059 1169T958 1284T792 1327Q684 1327 601 1282T458 1153T361 951T308
684Q276 396 357 258T630 120Q731 120 808 164T940 282T1021 443H1184Q1162 354 1114 271T994 122T827 18T614 -20Z" />
<glyph unicode="D" horiz-adv-x="1322" d="M128 0L332 1446Q337 1446 401 1446T543 1445Q677 1444 787 1427T982 1371T1126 1270T1215 1116T1246 901Q1246 790 1229 681T1174 471T1073 285T916 136T698 36T408 0H128ZM304 138H418Q598 138 725 194T933 352T1050
591T1088 892Q1088 1049 1031 1140T865 1269T601 1308H471L304 138Z" />
<glyph unicode="E" horiz-adv-x="1188" d="M126 0L334 1446H1172L1151 1306H464L392 800H1015L996 660H372L298 144L1006 143L984 0H126Z" />
<glyph unicode="F" horiz-adv-x="1131" d="M127 0L334 1446H1161L1141 1307H470L398 798H1005L986 659H378L283 0H127Z" />
<glyph unicode="G" horiz-adv-x="1394" d="M609 -20Q431 -20 316 66T155 318T144 720Q178 957 272 1124T508 1378T828 1466Q960 1466 1061 1402T1218 1233T1264 1010H1102Q1101 1093 1064 1164T961 1280T804 1324Q681 1324 579 1260T407 1062T306 723Q284 565
298 451T358 265T475 158T638 123Q728 123 800 157T925 247T1010 365T1053 487L1077 626H734L751 744L1250 743L1144 0H1026L1059 229Q1013 163 949 107T801 15T609 -20Z" />
<glyph unicode="H" horiz-adv-x="1470" d="M127 0L330 1446H481L393 820H1163L1250 1446H1401L1198 0H1047L1142 679H373L278 0H127Z" />
<glyph unicode="I" horiz-adv-x="554" d="M127 0L334 1446H485L279 0H127Z" />
<glyph unicode="J" horiz-adv-x="747" d="M235 -20Q162 -20 102 0T25 29L61 181Q89 169 125 151T221 132Q313 132 355 186T415 371L570 1446H719L559 325Q543 216 509 139T409 21T235 -20Z" />
<glyph unicode="K" horiz-adv-x="1291" d="M126 0L334 1446H490L381 675L1125 1446H1307L767 881L1139 0H965L635 763L350 467L284 0H126Z" />
<glyph unicode="L" horiz-adv-x="1109" d="M126 0L334 1446H489L303 145H956L935 0H126Z" />
<glyph unicode="M" horiz-adv-x="1679" d="M127 0L334 1446H539L793 207L1409 1446H1610L1404 0H1247L1417 1186L838 0H689L451 1174L283 0H127Z" />
<glyph unicode="N" horiz-adv-x="1435" d="M126 0L334 1446H475L1050 277L1216 1446H1368L1159 0H1026L446 1180L277 0H126Z" />
<glyph unicode="O" horiz-adv-x="1388" d="M618 -20Q437 -20 320 66T156 316T143 717Q178 957 272 1124T510 1378T832 1466Q1010 1466 1126 1379T1289 1126T1302 720Q1268 483 1175 318T939 67T618 -20ZM640 120Q771 120 872 184T1040 380T1136 719Q1166 926 1137
1061T1025 1261T811 1327Q615 1327 485 1178T310 719Q281 514 311 382T425 185T640 120Z" />
<glyph unicode="P" horiz-adv-x="1211" d="M127 0L334 1446H784Q928 1446 1033 1395T1190 1243T1220 994Q1198 849 1123 748T932 593T674 540H361L283 0H127ZM379 677H692Q790 677 871 716T1004 828T1072 1003Q1092 1157 1009 1234T772 1311H470L379 677Z" />
<glyph unicode="Q" horiz-adv-x="1418" d="M1152 -241Q1090 -241 1021 -223T888 -154T782 -1Q735 -10 696 -15T618 -20Q441 -20 323 64T157 314T144 720Q178 960 272 1126T509 1379T831 1466Q1010 1466 1127 1380T1290 1127T1303 720Q1271 490 1183 326T935 67Q961
-20 1025 -60T1172 -105L1152 -241ZM639 120Q836 120 965 265T1137 719Q1167 922 1139 1057T1027 1259T811 1327Q610 1327 482 1175T310 716Q267 409 354 265T639 120Z" />
<glyph unicode="R" horiz-adv-x="1288" d="M126 0L334 1446H848Q991 1446 1082 1401T1210 1269T1230 1061Q1213 943 1161 865T1041 740T903 670L1077 0H917L754 641H369L277 0H126ZM388 775H695Q803 775 883 804T1011 895T1072 1050Q1091 1185 1024 1249T817 1314H465L388
775Z" />
<glyph unicode="S" horiz-adv-x="1291" d="M579 -20Q483 -20 398 5T246 79T143 203T105 376H266Q273 289 318 231T435 143T597 113Q699 113 782 144T918 232T981 365Q990 434 970 485T901 570T776 625L511 695Q364 731 291 818T237 1049Q253 1171 327 1264T517
1411T773 1464Q929 1464 1029 1404T1175 1248T1210 1050H1050Q1055 1154 1015 1215T906 1302T754 1328Q676 1328 599 1299T467 1210T400 1062Q389 980 435 929T616 839L872 770Q967 747 1023 704T1107 606T1140 489T1138 368Q1124 261 1053 173T862 33T579 -20Z"
/>
<glyph unicode="T" horiz-adv-x="1117" d="M420 0L605 1301H162L182 1446H1195L1175 1301H756L570 0H420Z" />
<glyph unicode="U" horiz-adv-x="1331" d="M607 -20Q436 -20 338 39T206 217T198 508L332 1446H489L351 479Q333 359 359 279T452 159T627 119Q788 119 887 208T1013 479L1150 1446H1301L1165 486Q1142 322 1075 209T892 38T607 -20Z" />
<glyph unicode="V" horiz-adv-x="1245" d="M449 0L181 1446H331L567 176L1176 1446H1325L634 0H449Z" />
<glyph unicode="W" horiz-adv-x="1795" d="M363 0L182 1446H337L476 241L966 1446H1087L1233 241L1723 1446H1875L1273 0H1126L985 1169L506 0H363Z" />
<glyph unicode="X" horiz-adv-x="1304" d="M21 0L589 739L248 1446H438L706 876L1137 1446H1307L772 753L1138 0H947L657 612L193 0H21Z" />
<glyph unicode="Y" horiz-adv-x="1118" d="M410 0L497 619L157 1446H321L595 760L1058 1446H1224L649 617L560 0H410Z" />
<glyph unicode="Z" horiz-adv-x="1203" d="M60 0L74 91L1002 1308H276L296 1446H1233L1221 1359L284 140H1044L1022 0H60Z" />
<glyph unicode="[" horiz-adv-x="574" d="M72 -322L323 1446H654L639 1340H443L220 -216H415L400 -322H72Z" />
<glyph unicode="\" horiz-adv-x="644" d="M404 -88L156 1446H277L526 -88H404Z" />
<glyph unicode="]" horiz-adv-x="605" d="M508 1446L257 -322H-74L-59 -216H137L360 1340H165L180 1446H508Z" />
<glyph unicode="^" horiz-adv-x="896" d="M60 263L438 982Q461 1027 490 1043T545 1046T583 983L757 260H631L494 864L182 263H60Z" />
<glyph unicode="_" horiz-adv-x="974" d="M21 -226L40 -100L760 -98L740 -225L21 -226Z" />
<glyph unicode="`" horiz-adv-x="476" d="M323 1446H141L433 1155H556L323 1446Z" />
<glyph unicode="a" horiz-adv-x="1086" d="M352 -20Q257 -20 190 15T93 117T75 276Q99 448 222 531T594 621L779 627L792 713Q807 819 751 877T588 934Q501 934 425 887T319 747H182Q199 832 256 902T405 1013T613 1054Q733 1054 810 1013T920 898T939 720L836
0H706L722 191Q645 68 551 24T352 -20ZM411 97Q462 97 516 117T618 172T698 250T737 338L763 522L610 519Q489 517 408 493T282 420T224 290Q213 199 264 148T411 97Z" />
<glyph unicode="b" horiz-adv-x="1151" d="M569 -20Q480 -20 423 5T333 69T285 146T265 212L221 0H103L300 1486H453L371 864Q385 887 413 919T486 982T589 1033T722 1054Q905 1054 996 920T1052 521Q1020 277 898 129T569 -20ZM561 104Q687 104 779 207T900 531Q924
717 866 823T666 929Q511 929 432 824T326 531Q297 305 350 205T561 104Z" />
<glyph unicode="c" horiz-adv-x="1040" d="M465 -20Q335 -20 244 40T113 219T99 514Q122 675 190 796T366 986T619 1054Q721 1054 797 1014T916 900T959 720H821Q821 778 795 824T720 898T601 925Q470 925 373 825T245 515Q219 328 278 216T486 103Q555 103 612
130T708 204T764 307H899Q870 205 806 132T654 19T465 -20Z" />
<glyph unicode="d" horiz-adv-x="1147" d="M439 -20Q250 -20 157 116T99 521Q132 762 251 908T571 1054Q646 1054 699 1034T788 982T844 919T872 864L955 1486H1108L910 0H792L805 212Q793 185 768 146T699 69T592 6T439 -20ZM480 104Q638 104 718 204T828 531Q844
656 827 745T753 881T593 929Q466 929 374 833T255 531Q228 331 284 218T480 104Z" />
<glyph unicode="e" horiz-adv-x="1081" d="M486 -20Q351 -20 258 42T125 223T108 507Q131 672 201 795T379 986T627 1054Q763 1054 848 993T965 817T975 545L966 481H258Q243 377 263 292T342 156T502 105Q601 105 679 154T788 295H932Q899 191 829 121T669 16T486
-20ZM274 592H835Q849 688 830 765T757 887T608 932Q510 932 440 882T327 753T274 592Z" />
<glyph unicode="f" horiz-adv-x="779" d="M227 0L358 917H146L164 1034H374L398 1198Q416 1320 481 1383T663 1446H836L820 1332H673Q610 1332 583 1297T544 1190L523 1034H768L750 917H508L377 0H227Z" />
<glyph unicode="g" horiz-adv-x="1174" d="M445 -342Q220 -342 102 -270T2 -59Q9 -4 38 35T104 102T172 145T215 170Q200 180 180 195T145 234T136 298Q142 342 188 380T321 440Q245 485 207 560T180 728Q193 824 249 897T403 1010T635 1050Q732 1050 793 1026T903
958Q919 965 953 979T1029 1010T1106 1042T1160 1065L1141 908L963 869Q989 796 979 717Q967 627 914 555T768 442T542 400Q530 400 516 400T492 401Q379 399 334 377T285 328Q284 297 323 284T462 262Q501 259 555 256T674 248Q822 239 896 167T953 -32Q934 -170
808 -256T445 -342ZM478 -235Q620 -235 705 -187T802 -41Q811 23 772 64T640 111L357 130Q322 133 277 110T197 45T153 -51Q142 -136 221 -185T478 -235ZM552 506Q666 506 743 561T834 727Q849 836 789 891T619 947Q504 947 425 888T331 716Q317 615 374 561T552
506Z" />
<glyph unicode="h" horiz-adv-x="1122" d="M103 0L304 1486H452L370 887Q416 953 500 1001T702 1049Q797 1049 869 1011T978 905T1001 748L900 0H749L845 714Q858 810 803 864T645 919Q574 919 510 895T402 822T349 701L254 0H103Z" />
<glyph unicode="i" horiz-adv-x="519" d="M113 0L259 1034H406L261 0H113ZM286 1273L310 1445H469L444 1273H286Z" />
<glyph unicode="j" horiz-adv-x="496" d="M-53 -332Q-132 -332 -151 -321T-170 -310L-155 -206L-53 -202Q15 -197 47 -164T90 -53L245 1034H396L239 -61Q220 -199 156 -265T-53 -332ZM272 1260L297 1432H460L435 1260H272Z" />
<glyph unicode="k" horiz-adv-x="1074" d="M91 0L304 1486H455L313 493L870 1034H1047L641 645L924 0H761L526 539L286 310L242 0H91Z" />
<glyph unicode="l" horiz-adv-x="572" d="M319 -11Q249 -11 207 10T145 70T123 157T127 260L304 1486H454L278 273Q267 188 291 149T365 106L418 105L404 3Q381 -4 358 -7T319 -11Z" />
<glyph unicode="m" horiz-adv-x="1640" d="M92 0L240 1034H384L363 888Q411 955 487 1004T677 1054Q758 1054 834 1013T934 889Q992 966 1077 1010T1255 1054Q1306 1054 1358 1038T1453 982T1514 870T1517 685L1419 0H1269L1365 673Q1380 774 1359 829T1293 906T1194
928Q1139 928 1083 907T984 835T928 695L829 0H680L784 735Q794 799 768 842T698 906T606 928Q554 928 498 906T398 836T344 711L241 0H92Z" />
<glyph unicode="n" horiz-adv-x="1107" d="M92 0L240 1034H384L365 888Q398 933 445 969T556 1028T697 1050Q791 1050 862 1008T967 883T983 677L886 0H735L831 664Q849 788 796 853T642 919Q571 919 507 895T398 823T343 702L242 0H92Z" />
<glyph unicode="o" horiz-adv-x="1077" d="M467 -20Q335 -20 244 40T114 220T99 513Q121 675 187 797T362 986T614 1054Q746 1054 835 993T963 811T978 513Q956 355 891 235T719 48T467 -20ZM486 106Q577 106 647 154T764 294T828 517Q844 635 827 728T753 874T596
928Q503 928 432 881T315 741T250 517Q235 399 252 307T327 160T486 106Z" />
<glyph unicode="p" horiz-adv-x="1145" d="M57 -322L237 1034H387L366 845Q392 886 438 935T553 1019T717 1054Q837 1054 919 998T1037 826T1049 532Q1026 358 962 235T797 46T564 -20Q495 -20 445 1T362 56T308 126T278 196L210 -322H57ZM556 105Q684 105 777
208T899 526Q924 710 865 819T664 929Q521 929 433 818T321 526Q305 408 325 313T403 161T556 105Z" />
<glyph unicode="q" horiz-adv-x="1148" d="M866 -322H713L781 196Q757 153 712 103T600 17T439 -20Q320 -20 235 38T112 219T101 532Q123 695 184 812T342 991T570 1054Q642 1054 693 1034T779 981T835 912T868 845L895 1034H1046L866 -322ZM481 105Q577 105 649
161T767 312T828 526Q851 707 792 818T590 929Q462 929 369 830T248 526Q222 332 280 219T481 105Z" />
<glyph unicode="r" horiz-adv-x="743" d="M91 0L237 1034H380L355 847Q390 920 440 965T550 1032T668 1054Q692 1054 714 1051T748 1039L726 887Q712 895 688 898T647 901Q577 905 511 884T397 809T336 664L243 0H91Z" />
<glyph unicode="s" horiz-adv-x="974" d="M419 -20Q317 -20 236 13T108 116T64 294H204Q208 232 237 189T316 124T435 101Q539 101 608 143T689 274Q698 335 671 372T579 426L377 483Q266 514 207 576T162 751Q174 840 224 908T360 1015T567 1054Q722 1054 807
981T877 763H740Q741 842 693 888T550 935Q452 935 384 892T304 759Q296 699 334 666T450 610L646 553Q707 535 746 506T805 440T829 362T828 283Q816 190 764 122T625 17T419 -20Z" />
<glyph unicode="t" horiz-adv-x="767" d="M442 -4Q347 -4 299 24T237 107T235 245L331 917H173L191 1034H351L423 1332H543L501 1035H722L704 917H483L389 257Q377 168 403 144T497 120H597L581 12Q563 5 527 1T442 -4Z" />
<glyph unicode="u" horiz-adv-x="1100" d="M447 -20Q369 -19 304 3T194 70T129 181T122 336L219 1034H372L275 350Q259 241 312 174T492 106Q607 106 685 169T781 362L876 1034H1027L881 0H759L771 196Q743 122 695 74T583 3T447 -20Z" />
<glyph unicode="v" horiz-adv-x="946" d="M324 0L125 1034H269L416 193H434L826 1034H968L472 0H324Z" />
<glyph unicode="w" horiz-adv-x="1481" d="M286 0L138 1034H280L391 198H408L756 1034H872L992 200H1008L1348 1034H1489L1053 0H895L778 801L446 0H286Z" />
<glyph unicode="x" horiz-adv-x="1057" d="M-4 0L446 537L173 1034H339L550 651L867 1034H1034L618 537L916 0H749L515 424L162 0H-4Z" />
<glyph unicode="y" horiz-adv-x="997" d="M113 -330Q32 -330 4 -319T-25 -307L-10 -205L91 -206Q160 -208 202 -191T267 -145T306 -89L359 20L125 1034H278L458 202L872 1034H1019L446 -97Q398 -187 346 -237T236 -309T113 -330Z" />
<glyph unicode="z" horiz-adv-x="909" d="M12 0L24 103L706 917H179L196 1034H902L889 932L209 118H779L762 0H12Z" />
<glyph unicode="{" horiz-adv-x="597" d="M342 -322Q269 -322 220 -297T149 -227T136 -120L200 319Q206 366 190 411T130 485T15 514L31 616Q140 618 199 675T271 821L333 1250Q341 1310 376 1354T468 1422T593 1446H677L662 1340H597Q551 1340 525 1329T485 1294T467
1238L405 805Q393 729 360 679T282 604T189 573Q179 572 177 567T187 559Q233 555 271 532T328 459T337 328L275 -109Q267 -164 287 -190T377 -216H439L424 -322H342Z" />
<glyph unicode="|" horiz-adv-x="524" d="M82 -322L364 1652H485L202 -322H82Z" />
<glyph unicode="}" horiz-adv-x="608" d="M259 1446Q332 1446 381 1421T452 1351T465 1244L401 805Q395 758 411 713T471 639T586 610L570 508Q461 506 402 449T330 303L268 -126Q260 -186 225 -230T133 -298T8 -322H-76L-61 -216H4Q50 -216 76 -205T116 -170T134
-114L196 319Q208 395 241 445T319 520T412 551Q422 552 424 557T414 565Q368 569 330 592T273 665T264 796L326 1233Q334 1288 314 1314T224 1340H162L177 1446H259Z" />
<glyph unicode="~" horiz-adv-x="1062" d="M176 618L145 712Q201 762 262 799T407 837Q459 837 500 822T578 787T653 752T740 737Q811 737 859 769T940 840L971 744Q935 695 872 660T724 625Q668 625 627 640T551 675T479 710T392 725Q322 725 269 692T176 618Z" />
<glyph unicode="&#xa0;" horiz-adv-x="471" />
<glyph unicode="&#xa1;" horiz-adv-x="481" d="M37 -322L211 687H313L220 -322H37ZM187 823L216 1034H401L372 823H187Z" />
<glyph unicode="&#xa2;" horiz-adv-x="1046" d="M602 1174L641 1446H756L716 1174H602ZM412 0L452 273H567L528 0H412ZM515 202Q382 202 289 262T155 441T140 736Q164 897 233 1018T414 1208T672 1276Q777 1276 855 1236T976 1122T1020 942H876Q875 1000 849 1046T774
1120T654 1147Q520 1147 422 1047T293 737Q267 550 327 438T537 325Q607 325 664 352T761 426T818 529H959Q930 427 865 354T709 241T515 202Z" />
<glyph unicode="&#xa3;" horiz-adv-x="1145" d="M-45 0L-25 137H47Q119 137 179 207T261 429Q269 481 272 542T275 691H85L101 797H273L266 958Q259 1077 294 1170T393 1330T541 1431T713 1466Q800 1466 870 1436T988 1355T1051 1242L910 1190Q888 1258 843 1293T711
1328Q612 1328 535 1266T439 1091Q432 1030 433 952T445 798H754L738 692H443Q443 621 440 567T425 458Q409 364 381 301T323 199T270 139H613Q710 139 774 175T884 302L1009 264Q947 132 844 66T600 0H-45Z" />
<glyph unicode="&#xa4;" horiz-adv-x="1014" d="M156 312L93 397L218 511Q193 559 186 612T186 728Q194 785 216 835T271 929Q278 938 278 944T273 955L191 1061L279 1142L372 1023Q419 1057 474 1075T584 1093Q690 1093 765 1031Q778 1023 788 1033L905 1140L968
1058L842 941Q866 895 875 841T876 728Q869 673 847 621T790 527Q781 512 788 504L875 400L786 318L694 433Q645 399 591 380T480 360Q374 360 297 421Q284 432 272 419L156 312ZM500 485Q564 485 620 519T713 608T761 728Q770 792 749 847T681 936T569 971Q504
971 448 937T354 847T307 728Q298 663 319 608T387 519T500 485Z" />
<glyph unicode="&#xa5;" horiz-adv-x="1130" d="M409 0L495 605L146 1446H342L614 762L1084 1446H1246L672 638L580 0H409ZM161 278L176 382L924 384L908 279L161 278ZM202 566L217 671L965 672L950 567L202 566Z" />
<glyph unicode="&#xa6;" horiz-adv-x="524" d="M250 854L364 1652H485L370 854H250ZM82 -322L196 476H315L202 -322H82Z" />
<glyph unicode="&#xa7;" horiz-adv-x="922" d="M383 -140Q295 -140 220 -111T93 -29T18 91L128 149Q161 74 230 24T401 -26Q495 -26 561 13T639 127Q647 180 615 227T477 321L322 389Q203 441 158 511T125 675Q139 767 202 833T351 934Q248 998 222 1061T204 1194Q216
1271 268 1332T402 1430T589 1466Q672 1466 737 1438T847 1365T917 1267L806 1208Q769 1268 715 1310T581 1352Q481 1352 420 1312T349 1206Q343 1161 370 1119T480 1037L628 969Q764 907 816 830T852 651Q839 551 780 492T645 396Q724 345 760 285T785 141Q772
60 719 -3T580 -103T383 -140ZM513 462Q561 458 604 480T677 542T713 629Q720 692 695 739T578 828L478 873Q425 868 378 842T300 777T263 694Q255 638 282 600T406 515L513 462Z" />
<glyph unicode="&#xa8;" horiz-adv-x="485" d="M419 1225L442 1388H597L574 1225H419ZM111 1225L134 1388H289L266 1225H111Z" />
<glyph unicode="&#xa9;" horiz-adv-x="1534" d="M688 -20Q543 -20 425 37T225 197T109 434T97 724Q118 877 191 1011T375 1248T621 1408T900 1466Q1044 1466 1162 1408T1361 1248T1478 1012T1491 724Q1468 569 1395 434T1211 197T966 38T688 -20ZM740 311Q634
311 562 363T457 509T443 727Q460 851 519 945T667 1093T859 1147Q935 1147 988 1118T1077 1040T1134 935L1015 900Q998 944 976 976T922 1025T850 1043Q783 1043 727 1005T631 897T578 731Q557 584 609 500T764 415Q836 415 895 458T997 570L1081 533Q1054 490
1019 450T941 379T847 330T740 311ZM705 94Q824 94 935 138T1138 265T1293 464T1376 724Q1397 866 1368 982T1270 1181T1102 1310T884 1355Q763 1355 651 1310T447 1182T294 982T211 724Q184 532 242 391T421 172T705 94Z" />
<glyph unicode="&#xaa;" horiz-adv-x="807" d="M347 792Q253 792 207 840T173 972Q187 1066 270 1121T497 1188L609 1198L615 1246Q625 1315 591 1345T493 1376Q442 1376 402 1356T321 1278L233 1307Q277 1381 345 1421T511 1462Q631 1461 680 1403T716 1244Q704
1164 697 1108T683 1013Q681 996 679 973T675 926T672 879V804H567L564 893Q509 841 458 817T347 792ZM390 874Q464 874 524 927Q548 948 564 968T582 1013L597 1122L506 1114Q400 1107 344 1071T280 977Q274 930 304 902T390 874Z" />
<glyph unicode="&#xab;" horiz-adv-x="845" d="M598 144L398 502L704 877H793L542 502L685 144H598ZM272 144L73 502L378 877H467L216 502L359 144H272Z" />
<glyph unicode="&#xac;" horiz-adv-x="1045" d="M146 664L165 788L958 790L939 665L146 664ZM771 382L823 754H953L898 382H771Z" />
<glyph unicode="&#xad;" horiz-adv-x="717" d="M116 453L133 580L601 581L584 454L116 453Z" />
<glyph unicode="&#xae;" horiz-adv-x="1012" d="M506 536Q384 536 294 598T161 765T136 1000Q154 1129 227 1235T409 1403T640 1466Q759 1466 848 1404T982 1235T1007 1000Q989 871 915 766T734 598T506 536ZM518 622Q621 622 706 668T848 800T922 1000Q938 1115
906 1200T802 1333T627 1381Q522 1381 436 1334T294 1201T222 1000Q197 827 279 725T518 622ZM373 767L440 1228H633Q703 1228 737 1199T763 1112Q756 1058 723 1030T653 988L706 767H624L581 981H479L448 767H373ZM487 1046H596Q628 1046 653 1058T684 1105Q687
1129 672 1147T608 1165H505L487 1046Z" />
<glyph unicode="&#xaf;" horiz-adv-x="592" d="M129 1243L146 1358H684L667 1243H129Z" />
<glyph unicode="&#xb0;" horiz-adv-x="883" d="M513 1057Q429 1057 370 1096T283 1204T269 1364Q282 1454 329 1524T447 1634T603 1674Q686 1674 745 1634T832 1524T847 1364Q834 1274 787 1205T668 1096T513 1057ZM526 1161Q609 1161 665 1217T734 1362Q748 1451
708 1507T582 1563Q501 1563 444 1507T374 1362Q363 1273 403 1217T526 1161Z" />
<glyph unicode="&#xb1;" horiz-adv-x="1047" d="M457 456L576 1297H696L575 456H457ZM71 129L89 253L882 255L864 131L71 129ZM170 812L188 937L981 938L963 814L170 812Z" />
<glyph unicode="&#xb2;" horiz-adv-x="682" d="M71 768L81 834L86 869Q97 950 138 1006T236 1104T356 1178T476 1246T572 1326T621 1436Q631 1510 589 1555T465 1601Q406 1601 359 1577T282 1510T238 1410H142Q155 1486 198 1549T313 1651T481 1690Q566 1690 623
1659T706 1570T722 1436Q710 1354 670 1298T572 1203T454 1131T336 1065T241 987T193 878L190 857H646L634 768H71Z" />
<glyph unicode="&#xb3;" horiz-adv-x="749" d="M368 754Q283 755 222 788T130 882T108 1024H205Q205 938 253 890T384 841Q450 841 502 863T586 925T626 1017Q635 1076 610 1116T537 1177T424 1199L348 1200L360 1286L433 1288Q493 1288 543 1311T626 1373T664
1456Q670 1495 653 1529T595 1584T493 1606Q445 1606 399 1586T317 1523T272 1417H176Q188 1502 236 1563T354 1657T504 1690Q592 1690 655 1663T748 1583T768 1458Q759 1391 710 1336T573 1249Q630 1232 667 1200T721 1122T730 1017Q722 957 691 908T611 824T501
772T368 754Z" />
<glyph unicode="&#xb4;" horiz-adv-x="394" d="M333 1446H515L223 1155H100L333 1446Z" />
<glyph unicode="&#xb5;" horiz-adv-x="1106" d="M27 -330L227 1060H382L275 320Q268 269 289 226T352 156T451 130Q531 130 613 180T775 316L880 1060H1036L881 0H733L757 164Q654 82 584 45T439 5Q379 2 329 17T239 73L182 -330H27Z" />
<glyph unicode="&#xb6;" horiz-adv-x="1053" d="M395 -166L504 594Q382 597 301 653T186 803T168 1008Q183 1119 245 1219T411 1383T658 1446H1037L1023 1347H910L693 -166H590L806 1347H716L499 -166H395Z" />
<glyph unicode="&#xb7;" horiz-adv-x="434" d="M128 628L158 830H358L327 628H128Z" />
<glyph unicode="&#xb8;" horiz-adv-x="418" d="M61 -408Q12 -408 -28 -396T-102 -359L-64 -287Q-44 -306 -17 -319T54 -333Q107 -333 134 -313T167 -257Q174 -213 142 -192T33 -168Q24 -168 22 -165T24 -156L115 10H201L138 -111Q200 -115 232 -137T274 -191T281
-256Q273 -306 241 -339T162 -390T61 -408Z" />
<glyph unicode="&#xb9;" horiz-adv-x="449" d="M218 760L324 1495H156L165 1565Q242 1565 286 1576T350 1610T378 1670H446L315 760H218Z" />
<glyph unicode="&#xba;" horiz-adv-x="767" d="M421 795Q287 795 226 888T185 1127Q199 1228 245 1304T361 1422T517 1465Q648 1465 711 1371T754 1127Q741 1030 697 955T582 838T421 795ZM434 882Q520 882 573 949T643 1132Q659 1244 624 1310T505 1376Q419 1376
366 1310T297 1132Q280 1016 315 949T434 882Z" />
<glyph unicode="&#xbb;" horiz-adv-x="898" d="M400 144L647 502L502 877H590L788 502L486 144H400ZM75 144L320 502L178 877H264L462 502L160 144H75Z" />
<glyph unicode="&#xbc;" horiz-adv-x="1440" d="M218 552L324 1287H156L165 1357Q242 1357 286 1368T350 1402T378 1462H446L315 552H218ZM216 -8L111 -7L1238 1462H1341L216 -8ZM1339 0L1373 241H969L983 335L1464 910H1562L1480 330H1624L1610 241H1466L1432
0H1339ZM1074 330H1383L1447 776L1074 330Z" />
<glyph unicode="&#xbd;" horiz-adv-x="1595" d="M218 552L324 1287H156L165 1357Q242 1357 286 1368T350 1402T378 1462H446L315 552H218ZM216 -8L111 -7L1238 1462H1341L216 -8ZM1162 0L1172 66L1177 101Q1188 182 1229 238T1327 336T1447 410T1567 478T1663
558T1712 668Q1722 742 1680 787T1556 833Q1497 833 1450 809T1373 742T1329 642H1233Q1246 718 1289 781T1404 883T1572 922Q1657 922 1714 891T1797 802T1813 668Q1801 586 1761 530T1663 435T1545 363T1427 297T1332 219T1284 110L1281 89H1737L1725 0H1162Z"
/>
<glyph unicode="&#xbe;" horiz-adv-x="1675" d="M368 544Q283 545 222 578T130 672T108 814H205Q205 728 253 680T384 631Q450 631 502 653T586 715T626 807Q635 866 610 906T537 967T424 989L348 990L360 1076L433 1078Q493 1078 543 1101T626 1163T664 1246Q670
1285 653 1319T595 1374T493 1396Q445 1396 399 1376T317 1313T272 1207H176Q188 1292 236 1353T354 1447T504 1480Q592 1480 655 1453T748 1373T768 1248Q759 1181 710 1126T573 1039Q630 1022 667 990T721 912T730 807Q722 747 691 698T611 614T501 562T368 544ZM450
-8L345 -7L1472 1462H1575L450 -8ZM1574 0L1608 241H1204L1218 335L1699 910H1797L1715 330H1859L1845 241H1701L1667 0H1574ZM1309 330H1618L1682 776L1309 330Z" />
<glyph unicode="&#xbf;" horiz-adv-x="976" d="M357 -342Q227 -342 141 -297T16 -173T-9 9Q4 108 51 174T162 292T288 396T399 517T460 689H593Q578 573 532 496T426 362T307 257T204 152T150 15Q136 -90 198 -152T375 -214Q438 -214 504 -188T623 -116T704 -16L836
-63Q760 -193 633 -267T357 -342ZM451 823L480 1034H666L638 823H451Z" />
<glyph unicode="&#xc0;" horiz-adv-x="1347" d="M21 0L721 1446H896L1180 0H1025L946 412H375L175 0H21ZM437 560H925L788 1290L437 560ZM653 1858H471L763 1567H886L653 1858Z" />
<glyph unicode="&#xc1;" horiz-adv-x="1347" d="M21 0L721 1446H896L1180 0H1025L946 412H375L175 0H21ZM437 560H925L788 1290L437 560ZM993 1858H1175L883 1567H760L993 1858Z" />
<glyph unicode="&#xc2;" horiz-adv-x="1347" d="M21 0L721 1446H896L1180 0H1025L946 412H375L175 0H21ZM437 560H925L788 1290L437 560ZM521 1567L774 1782H884L1093 1567H940L820 1694L665 1567H521Z" />
<glyph unicode="&#xc3;" horiz-adv-x="1347" d="M21 0L721 1446H896L1180 0H1025L946 412H375L175 0H21ZM437 560H925L788 1290L437 560ZM597 1642L579 1731Q615 1763 652 1783T741 1804Q785 1804 822 1791T895 1764T973 1750Q1014 1750 1045 1765T1106 1802L1122
1700Q1096 1682 1056 1664T957 1645Q908 1645 874 1657T807 1683T734 1696Q687 1696 657 1680T597 1642Z" />
<glyph unicode="&#xc4;" horiz-adv-x="1347" d="M21 0L721 1446H896L1180 0H1025L946 412H375L175 0H21ZM437 560H925L788 1290L437 560ZM916 1637L939 1800H1094L1071 1637H916ZM608 1637L631 1800H786L763 1637H608Z" />
<glyph unicode="&#xc5;" horiz-adv-x="1347" d="M21 0L721 1446H896L1180 0H1025L946 412H375L175 0H21ZM437 560H925L788 1290L437 560ZM826 1571Q747 1571 700 1630T666 1778Q673 1832 705 1876T785 1947T885 1974Q965 1974 1012 1916T1047 1774Q1040 1716 1008
1671T928 1598T826 1571ZM838 1662Q881 1662 915 1695T956 1773Q962 1821 938 1851T869 1882Q829 1882 794 1852T752 1773Q745 1729 771 1696T838 1662Z" />
<glyph unicode="&#xc6;" horiz-adv-x="1813" d="M-73 0L890 1446H1795L1775 1308H1127L1055 799H1646L1627 662H1034L960 139H1632L1612 0H768L829 418H358L81 0H-73ZM440 560H848L958 1328L440 560Z" />
<glyph unicode="&#xc7;" horiz-adv-x="1310" d="M614 -20Q438 -20 325 62T165 302T142 688Q160 866 212 1009T349 1255T551 1411T815 1466Q956 1466 1056 1405T1209 1239T1260 1010H1097Q1093 1097 1059 1169T958 1284T792 1327Q684 1327 601 1282T458 1153T361
951T308 684Q276 396 357 258T630 120Q731 120 808 164T940 282T1021 443H1184Q1162 354 1114 271T994 122T827 18T614 -20ZM525 -408Q476 -408 436 -396T362 -359L400 -287Q420 -306 447 -319T518 -333Q571 -333 598 -313T631 -257Q638 -213 606 -192T497 -168Q488
-168 486 -165T488 -156L579 10H665L602 -111Q664 -115 696 -137T738 -191T745 -256Q737 -306 705 -339T626 -390T525 -408Z" />
<glyph unicode="&#xc8;" horiz-adv-x="1188" d="M126 0L334 1446H1172L1151 1306H464L392 800H1015L996 660H372L298 144L1006 143L984 0H126ZM578 1858H396L688 1567H811L578 1858Z" />
<glyph unicode="&#xc9;" horiz-adv-x="1188" d="M126 0L334 1446H1172L1151 1306H464L392 800H1015L996 660H372L298 144L1006 143L984 0H126ZM919 1858H1101L809 1567H686L919 1858Z" />
<glyph unicode="&#xca;" horiz-adv-x="1188" d="M126 0L334 1446H1172L1151 1306H464L392 800H1015L996 660H372L298 144L1006 143L984 0H126ZM465 1567L718 1782H828L1037 1567H884L764 1694L609 1567H465Z" />
<glyph unicode="&#xcb;" horiz-adv-x="1188" d="M126 0L334 1446H1172L1151 1306H464L392 800H1015L996 660H372L298 144L1006 143L984 0H126ZM841 1637L864 1800H1019L996 1637H841ZM533 1637L556 1800H711L688 1637H533Z" />
<glyph unicode="&#xcc;" horiz-adv-x="554" d="M127 0L334 1446H485L279 0H127ZM255 1858H73L365 1567H488L255 1858Z" />
<glyph unicode="&#xcd;" horiz-adv-x="554" d="M127 0L334 1446H485L279 0H127ZM596 1858H778L486 1567H363L596 1858Z" />
<glyph unicode="&#xce;" horiz-adv-x="554" d="M127 0L334 1446H485L279 0H127ZM142 1567L395 1782H505L714 1567H561L441 1694L286 1567H142Z" />
<glyph unicode="&#xcf;" horiz-adv-x="554" d="M127 0L334 1446H485L279 0H127ZM518 1637L541 1800H696L673 1637H518ZM210 1637L233 1800H388L365 1637H210Z" />
<glyph unicode="&#xd0;" horiz-adv-x="1381" d="M99 659L109 789H772L762 659H99ZM188 0L391 1446Q397 1446 461 1446T603 1445Q736 1444 846 1427T1042 1371T1186 1270T1275 1116T1306 901Q1306 790 1289 681T1234 471T1132 285T976 136T757 36T467 0H188ZM364
138H478Q658 138 785 194T993 352T1110 591T1148 892Q1148 1049 1091 1140T924 1269T661 1308H531L364 138Z" />
<glyph unicode="&#xd1;" horiz-adv-x="1435" d="M126 0L334 1446H475L1050 277L1216 1446H1368L1159 0H1026L446 1180L277 0H126ZM639 1642L621 1731Q657 1763 694 1783T783 1804Q827 1804 864 1791T937 1764T1015 1750Q1056 1750 1087 1765T1148 1802L1164 1700Q1138
1682 1098 1664T999 1645Q950 1645 916 1657T849 1683T776 1696Q729 1696 699 1680T639 1642Z" />
<glyph unicode="&#xd2;" horiz-adv-x="1388" d="M618 -20Q437 -20 320 66T156 316T143 717Q178 957 272 1124T510 1378T832 1466Q1010 1466 1126 1379T1289 1126T1302 720Q1268 483 1175 318T939 67T618 -20ZM640 120Q771 120 872 184T1040 380T1136 719Q1166
926 1137 1061T1025 1261T811 1327Q615 1327 485 1178T310 719Q281 514 311 382T425 185T640 120ZM671 1858H489L781 1567H904L671 1858Z" />
<glyph unicode="&#xd3;" horiz-adv-x="1388" d="M618 -20Q437 -20 320 66T156 316T143 717Q178 957 272 1124T510 1378T832 1466Q1010 1466 1126 1379T1289 1126T1302 720Q1268 483 1175 318T939 67T618 -20ZM640 120Q771 120 872 184T1040 380T1136 719Q1166
926 1137 1061T1025 1261T811 1327Q615 1327 485 1178T310 719Q281 514 311 382T425 185T640 120ZM1011 1858H1193L901 1567H778L1011 1858Z" />
<glyph unicode="&#xd4;" horiz-adv-x="1388" d="M618 -20Q437 -20 320 66T156 316T143 717Q178 957 272 1124T510 1378T832 1466Q1010 1466 1126 1379T1289 1126T1302 720Q1268 483 1175 318T939 67T618 -20ZM640 120Q771 120 872 184T1040 380T1136 719Q1166
926 1137 1061T1025 1261T811 1327Q615 1327 485 1178T310 719Q281 514 311 382T425 185T640 120ZM557 1567L810 1782H920L1129 1567H976L856 1694L701 1567H557Z" />
<glyph unicode="&#xd5;" horiz-adv-x="1388" d="M618 -20Q437 -20 320 66T156 316T143 717Q178 957 272 1124T510 1378T832 1466Q1010 1466 1126 1379T1289 1126T1302 720Q1268 483 1175 318T939 67T618 -20ZM640 120Q771 120 872 184T1040 380T1136 719Q1166
926 1137 1061T1025 1261T811 1327Q615 1327 485 1178T310 719Q281 514 311 382T425 185T640 120ZM614 1642L596 1731Q632 1763 669 1783T758 1804Q802 1804 839 1791T912 1764T990 1750Q1031 1750 1062 1765T1123 1802L1139 1700Q1113 1682 1073 1664T974 1645Q925
1645 891 1657T824 1683T751 1696Q704 1696 674 1680T614 1642Z" />
<glyph unicode="&#xd6;" horiz-adv-x="1388" d="M618 -20Q437 -20 320 66T156 316T143 717Q178 957 272 1124T510 1378T832 1466Q1010 1466 1126 1379T1289 1126T1302 720Q1268 483 1175 318T939 67T618 -20ZM640 120Q771 120 872 184T1040 380T1136 719Q1166
926 1137 1061T1025 1261T811 1327Q615 1327 485 1178T310 719Q281 514 311 382T425 185T640 120ZM933 1637L956 1800H1111L1088 1637H933ZM625 1637L648 1800H803L780 1637H625Z" />
<glyph unicode="&#xd7;" horiz-adv-x="1015" d="M183 323L111 413L890 1132L962 1044L183 323ZM773 323L200 1041L298 1129L872 413L773 323Z" />
<glyph unicode="&#xd8;" horiz-adv-x="1410" d="M71 -26L-4 62L184 253Q148 342 140 458T151 717Q185 957 279 1124T517 1378T838 1466Q965 1466 1060 1422T1218 1293L1394 1471L1469 1384L1277 1188Q1313 1099 1321 981T1309 720Q1276 483 1183 318T947 67T625
-20Q498 -20 403 23T246 149L71 -26ZM648 119Q836 119 951 253T1111 666Q1130 776 1132 870T1121 1047L369 266Q449 119 648 119ZM339 396L1092 1177Q1054 1254 986 1291T818 1328Q629 1328 510 1189T345 764Q329 656 327 565T339 396Z" />
<glyph unicode="&#xd9;" horiz-adv-x="1331" d="M607 -20Q436 -20 338 39T206 217T198 508L332 1446H489L351 479Q333 359 359 279T452 159T627 119Q788 119 887 208T1013 479L1150 1446H1301L1165 486Q1142 322 1075 209T892 38T607 -20ZM663 1858H481L773 1567H896L663
1858Z" />
<glyph unicode="&#xda;" horiz-adv-x="1331" d="M607 -20Q436 -20 338 39T206 217T198 508L332 1446H489L351 479Q333 359 359 279T452 159T627 119Q788 119 887 208T1013 479L1150 1446H1301L1165 486Q1142 322 1075 209T892 38T607 -20ZM1003 1858H1185L893
1567H770L1003 1858Z" />
<glyph unicode="&#xdb;" horiz-adv-x="1331" d="M607 -20Q436 -20 338 39T206 217T198 508L332 1446H489L351 479Q333 359 359 279T452 159T627 119Q788 119 887 208T1013 479L1150 1446H1301L1165 486Q1142 322 1075 209T892 38T607 -20ZM549 1567L802 1782H912L1121
1567H968L848 1694L693 1567H549Z" />
<glyph unicode="&#xdc;" horiz-adv-x="1331" d="M607 -20Q436 -20 338 39T206 217T198 508L332 1446H489L351 479Q333 359 359 279T452 159T627 119Q788 119 887 208T1013 479L1150 1446H1301L1165 486Q1142 322 1075 209T892 38T607 -20ZM925 1637L948 1800H1103L1080
1637H925ZM617 1637L640 1800H795L772 1637H617Z" />
<glyph unicode="&#xdd;" horiz-adv-x="1118" d="M410 0L497 619L157 1446H321L595 760L1058 1446H1224L649 617L560 0H410ZM870 1861H1052L760 1570H637L870 1861Z" />
<glyph unicode="&#xde;" horiz-adv-x="1234" d="M1208 752Q1188 606 1111 514T916 379T655 335H331L284 0H127L330 1446H487L445 1144H760Q908 1144 1015 1103T1175 974T1208 752ZM1050 752Q1063 844 1026 899T914 980T740 1005H425L350 474H675Q770 474 850 501T983
590T1050 752Z" />
<glyph unicode="&#xdf;" horiz-adv-x="1110" d="M566 -20Q499 -20 433 -1T323 50L394 158Q430 133 469 115T571 96Q676 96 747 150T832 304Q843 378 815 422T737 493T628 543Q584 560 542 584T477 649T462 760Q473 835 520 883T654 981Q693 1004 731 1028T797
1086T832 1173Q841 1245 799 1287T666 1330Q559 1330 480 1259T382 1044L235 0H92L234 1018Q249 1112 286 1190T382 1326T521 1415T697 1446Q810 1446 872 1408T957 1307T969 1174Q959 1098 923 1050T834 969T716 905Q648 868 620 847T586 786Q581 748 602 732T683
694Q731 673 785 647T887 581T958 477T970 319Q954 208 896 133T752 19T566 -20Z" />
<glyph unicode="&#xe0;" horiz-adv-x="1087" d="M352 -20Q257 -20 190 15T93 117T75 276Q99 448 222 531T594 621L779 627L792 713Q807 819 751 877T588 934Q501 934 425 887T319 747H182Q199 832 256 902T405 1013T613 1054Q733 1054 810 1013T920 898T939 720L836
0H706L722 191Q645 68 551 24T352 -20ZM411 97Q462 97 516 117T618 172T698 250T737 338L763 522L610 519Q489 517 408 493T282 420T224 290Q213 199 264 148T411 97ZM459 1446H277L569 1155H692L459 1446Z" />
<glyph unicode="&#xe1;" horiz-adv-x="1086" d="M352 -20Q257 -20 190 15T93 117T75 276Q99 448 222 531T594 621L779 627L792 713Q807 819 751 877T588 934Q501 934 425 887T319 747H182Q199 832 256 902T405 1013T613 1054Q733 1054 810 1013T920 898T939 720L836
0H706L722 191Q645 68 551 24T352 -20ZM411 97Q462 97 516 117T618 172T698 250T737 338L763 522L610 519Q489 517 408 493T282 420T224 290Q213 199 264 148T411 97ZM794 1446H976L684 1155H561L794 1446Z" />
<glyph unicode="&#xe2;" horiz-adv-x="1086" d="M352 -20Q257 -20 190 15T93 117T75 276Q99 448 222 531T594 621L779 627L792 713Q807 819 751 877T588 934Q501 934 425 887T319 747H182Q199 832 256 902T405 1013T613 1054Q733 1054 810 1013T920 898T939 720L836
0H706L722 191Q645 68 551 24T352 -20ZM411 97Q462 97 516 117T618 172T698 250T737 338L763 522L610 519Q489 517 408 493T282 420T224 290Q213 199 264 148T411 97ZM340 1155L593 1370H703L912 1155H759L639 1282L484 1155H340Z" />
<glyph unicode="&#xe3;" horiz-adv-x="1086" d="M352 -20Q257 -20 190 15T93 117T75 276Q99 448 222 531T594 621L779 627L792 713Q807 819 751 877T588 934Q501 934 425 887T319 747H182Q199 832 256 902T405 1013T613 1054Q733 1054 810 1013T920 898T939 720L836
0H706L722 191Q645 68 551 24T352 -20ZM411 97Q462 97 516 117T618 172T698 250T737 338L763 522L610 519Q489 517 408 493T282 420T224 290Q213 199 264 148T411 97ZM398 1230L380 1319Q416 1351 453 1371T542 1392Q586 1392 623 1379T696 1352T774 1338Q815 1338
846 1353T907 1390L923 1288Q897 1270 857 1252T758 1233Q709 1233 675 1245T608 1271T535 1284Q488 1284 458 1268T398 1230Z" />
<glyph unicode="&#xe4;" horiz-adv-x="1086" d="M352 -20Q257 -20 190 15T93 117T75 276Q99 448 222 531T594 621L779 627L792 713Q807 819 751 877T588 934Q501 934 425 887T319 747H182Q199 832 256 902T405 1013T613 1054Q733 1054 810 1013T920 898T939 720L836
0H706L722 191Q645 68 551 24T352 -20ZM411 97Q462 97 516 117T618 172T698 250T737 338L763 522L610 519Q489 517 408 493T282 420T224 290Q213 199 264 148T411 97ZM712 1224L735 1387H890L867 1224H712ZM404 1224L427 1387H582L559 1224H404Z" />
<glyph unicode="&#xe5;" horiz-adv-x="1086" d="M352 -20Q257 -20 190 15T93 117T75 276Q99 448 222 531T594 621L779 627L792 713Q807 819 751 877T588 934Q501 934 425 887T319 747H182Q199 832 256 902T405 1013T613 1054Q733 1054 810 1013T920 898T939 720L836
0H706L722 191Q645 68 551 24T352 -20ZM411 97Q462 97 516 117T618 172T698 250T737 338L763 522L610 519Q489 517 408 493T282 420T224 290Q213 199 264 148T411 97ZM628 1159Q549 1159 502 1218T468 1366Q475 1420 507 1464T587 1535T687 1562Q767 1562 814 1504T849
1362Q842 1304 810 1259T730 1186T628 1159ZM640 1250Q683 1250 717 1283T758 1361Q764 1409 740 1439T671 1470Q631 1470 596 1440T554 1361Q547 1317 573 1284T640 1250Z" />
<glyph unicode="&#xe6;" horiz-adv-x="1766" d="M341 -20Q195 -20 125 58T74 269Q95 416 222 505T585 612L782 628L793 708Q809 815 758 877T591 939Q514 939 439 896T296 763L177 811Q228 889 294 943T442 1025T621 1054Q753 1054 826 1005T920 859Q990 956 1085
1005T1293 1054Q1423 1054 1513 987T1640 793T1652 484L905 482Q896 410 910 342T961 220T1051 133T1170 100Q1252 100 1311 126T1416 194T1499 279L1591 222Q1539 145 1470 91T1316 9T1137 -20Q1034 -20 967 15T859 99T792 192Q788 201 779 192Q734 144 675 96T534
14T341 -20ZM410 95Q492 98 564 131T683 219T741 338L767 524L602 511Q491 502 411 473T284 396T228 279Q217 194 263 142T410 95ZM1515 587Q1528 680 1504 760T1421 890T1277 940Q1193 940 1119 897T994 776T926 589L1515 587Z" />
<glyph unicode="&#xe7;" horiz-adv-x="1040" d="M465 -20Q335 -20 244 40T113 219T99 514Q122 675 190 796T366 986T619 1054Q721 1054 797 1014T916 900T959 720H821Q821 778 795 824T720 898T601 925Q470 925 373 825T245 515Q219 328 278 216T486 103Q555 103
612 130T708 204T764 307H899Q870 205 806 132T654 19T465 -20ZM383 -408Q334 -408 294 -396T220 -359L258 -287Q278 -306 305 -319T376 -333Q429 -333 456 -313T489 -257Q496 -213 464 -192T355 -168Q346 -168 344 -165T346 -156L437 10H523L460 -111Q522 -115
554 -137T596 -191T603 -256Q595 -306 563 -339T484 -390T383 -408Z" />
<glyph unicode="&#xe8;" horiz-adv-x="1081" d="M486 -20Q351 -20 258 42T125 223T108 507Q131 672 201 795T379 986T627 1054Q763 1054 848 993T965 817T975 545L966 481H258Q243 377 263 292T342 156T502 105Q601 105 679 154T788 295H932Q899 191 829 121T669
16T486 -20ZM274 592H835Q849 688 830 765T757 887T608 932Q510 932 440 882T327 753T274 592ZM470 1446H288L580 1155H703L470 1446Z" />
<glyph unicode="&#xe9;" horiz-adv-x="1081" d="M486 -20Q351 -20 258 42T125 223T108 507Q131 672 201 795T379 986T627 1054Q763 1054 848 993T965 817T975 545L966 481H258Q243 377 263 292T342 156T502 105Q601 105 679 154T788 295H932Q899 191 829 121T669
16T486 -20ZM274 592H835Q849 688 830 765T757 887T608 932Q510 932 440 882T327 753T274 592ZM810 1446H992L700 1155H577L810 1446Z" />
<glyph unicode="&#xea;" horiz-adv-x="1081" d="M486 -20Q351 -20 258 42T125 223T108 507Q131 672 201 795T379 986T627 1054Q763 1054 848 993T965 817T975 545L966 481H258Q243 377 263 292T342 156T502 105Q601 105 679 154T788 295H932Q899 191 829 121T669
16T486 -20ZM274 592H835Q849 688 830 765T757 887T608 932Q510 932 440 882T327 753T274 592ZM356 1155L609 1370H719L928 1155H775L655 1282L500 1155H356Z" />
<glyph unicode="&#xeb;" horiz-adv-x="1081" d="M486 -20Q351 -20 258 42T125 223T108 507Q131 672 201 795T379 986T627 1054Q763 1054 848 993T965 817T975 545L966 481H258Q243 377 263 292T342 156T502 105Q601 105 679 154T788 295H932Q899 191 829 121T669
16T486 -20ZM274 592H835Q849 688 830 765T757 887T608 932Q510 932 440 882T327 753T274 592ZM732 1225L755 1388H910L887 1225H732ZM424 1225L447 1388H602L579 1225H424Z" />
<glyph unicode="&#xec;" horiz-adv-x="515" d="M108 0L256 1034H408L259 0H108ZM176 1446H-6L286 1155H409L176 1446Z" />
<glyph unicode="&#xed;" horiz-adv-x="538" d="M108 0L256 1034H408L259 0H108ZM516 1446H698L406 1155H283L516 1446Z" />
<glyph unicode="&#xee;" horiz-adv-x="515" d="M108 0L256 1034H408L259 0H108ZM319 1155L572 1370H682L891 1155H738L618 1282L463 1155H319Z" />
<glyph unicode="&#xef;" horiz-adv-x="515" d="M108 0L256 1034H408L259 0H108ZM439 1225L462 1388H617L594 1225H439ZM131 1225L154 1388H309L286 1225H131Z" />
<glyph unicode="&#xf0;" horiz-adv-x="1112" d="M490 -20Q349 -20 254 51T119 244T99 517Q122 678 195 796T378 980T616 1045Q711 1045 774 1018T876 946T932 847Q929 983 895 1082T807 1252T694 1371T580 1454L756 1479Q902 1383 969 1248T1042 933T1012 517Q988
362 917 241T736 50T490 -20ZM490 106Q590 106 665 165T789 320T852 525Q870 651 852 741T777 879T618 928Q518 928 441 873T315 724T248 508Q234 404 255 312T334 163T490 106ZM486 1102L503 1227L1103 1452L1086 1328L486 1102Z" />
<glyph unicode="&#xf1;" horiz-adv-x="1107" d="M92 0L240 1034H384L365 888Q398 933 445 969T556 1028T697 1050Q791 1050 862 1008T967 883T983 677L886 0H735L831 664Q849 788 796 853T642 919Q571 919 507 895T398 823T343 702L242 0H92ZM440 1230L422 1319Q458
1351 495 1371T584 1392Q628 1392 665 1379T738 1352T816 1338Q857 1338 888 1353T949 1390L965 1288Q939 1270 899 1252T800 1233Q751 1233 717 1245T650 1271T577 1284Q530 1284 500 1268T440 1230Z" />
<glyph unicode="&#xf2;" horiz-adv-x="1077" d="M467 -20Q335 -20 244 40T114 220T99 513Q121 675 187 797T362 986T614 1054Q746 1054 835 993T963 811T978 513Q956 355 891 235T719 48T467 -20ZM486 106Q577 106 647 154T764 294T828 517Q844 635 827 728T753
874T596 928Q503 928 432 881T315 741T250 517Q235 399 252 307T327 160T486 106ZM431 1446H249L541 1155H664L431 1446Z" />
<glyph unicode="&#xf3;" horiz-adv-x="1077" d="M467 -20Q335 -20 244 40T114 220T99 513Q121 675 187 797T362 986T614 1054Q746 1054 835 993T963 811T978 513Q956 355 891 235T719 48T467 -20ZM486 106Q577 106 647 154T764 294T828 517Q844 635 827 728T753
874T596 928Q503 928 432 881T315 741T250 517Q235 399 252 307T327 160T486 106ZM772 1446H954L662 1155H539L772 1446Z" />
<glyph unicode="&#xf4;" horiz-adv-x="1077" d="M467 -20Q335 -20 244 40T114 220T99 513Q121 675 187 797T362 986T614 1054Q746 1054 835 993T963 811T978 513Q956 355 891 235T719 48T467 -20ZM486 106Q577 106 647 154T764 294T828 517Q844 635 827 728T753
874T596 928Q503 928 432 881T315 741T250 517Q235 399 252 307T327 160T486 106ZM318 1155L571 1370H681L890 1155H737L617 1282L462 1155H318Z" />
<glyph unicode="&#xf5;" horiz-adv-x="1077" d="M467 -20Q335 -20 244 40T114 220T99 513Q121 675 187 797T362 986T614 1054Q746 1054 835 993T963 811T978 513Q956 355 891 235T719 48T467 -20ZM486 106Q577 106 647 154T764 294T828 517Q844 635 827 728T753
874T596 928Q503 928 432 881T315 741T250 517Q235 399 252 307T327 160T486 106ZM375 1230L357 1319Q393 1351 430 1371T519 1392Q563 1392 600 1379T673 1352T751 1338Q792 1338 823 1353T884 1390L900 1288Q874 1270 834 1252T735 1233Q686 1233 652 1245T585
1271T512 1284Q465 1284 435 1268T375 1230Z" />
<glyph unicode="&#xf6;" horiz-adv-x="1077" d="M467 -20Q335 -20 244 40T114 220T99 513Q121 675 187 797T362 986T614 1054Q746 1054 835 993T963 811T978 513Q956 355 891 235T719 48T467 -20ZM486 106Q577 106 647 154T764 294T828 517Q844 635 827 728T753
874T596 928Q503 928 432 881T315 741T250 517Q235 399 252 307T327 160T486 106ZM694 1225L717 1388H872L849 1225H694ZM386 1225L409 1388H564L541 1225H386Z" />
<glyph unicode="&#xf7;" horiz-adv-x="1044" d="M146 664L164 788L957 790L939 665L146 664ZM387 285L417 489H619L590 285H387ZM486 966L515 1170H718L688 966H486Z" />
<glyph unicode="&#xf8;" horiz-adv-x="1040" d="M43 -10L-26 63L982 1041L1051 968L43 -10ZM415 -20Q282 -20 191 40T61 220T46 513Q68 675 135 797T309 986T561 1054Q694 1054 783 993T911 811T925 513Q903 355 838 235T666 48T415 -20ZM434 106Q524 106 594
154T711 294T775 517Q791 635 774 728T700 874T543 928Q451 928 380 881T262 741T198 517Q182 399 199 307T274 160T434 106Z" />
<glyph unicode="&#xf9;" horiz-adv-x="1100" d="M447 -20Q369 -19 304 3T194 70T129 181T122 336L219 1034H372L275 350Q259 241 312 174T492 106Q607 106 685 169T781 362L876 1034H1027L881 0H759L771 196Q743 122 695 74T583 3T447 -20ZM468 1446H286L578 1155H701L468
1446Z" />
<glyph unicode="&#xfa;" horiz-adv-x="1100" d="M447 -20Q369 -19 304 3T194 70T129 181T122 336L219 1034H372L275 350Q259 241 312 174T492 106Q607 106 685 169T781 362L876 1034H1027L881 0H759L771 196Q743 122 695 74T583 3T447 -20ZM808 1446H990L698 1155H575L808
1446Z" />
<glyph unicode="&#xfb;" horiz-adv-x="1100" d="M447 -20Q369 -19 304 3T194 70T129 181T122 336L219 1034H372L275 350Q259 241 312 174T492 106Q607 106 685 169T781 362L876 1034H1027L881 0H759L771 196Q743 122 695 74T583 3T447 -20ZM355 1155L608 1370H718L927
1155H774L654 1282L499 1155H355Z" />
<glyph unicode="&#xfc;" horiz-adv-x="1100" d="M447 -20Q369 -19 304 3T194 70T129 181T122 336L219 1034H372L275 350Q259 241 312 174T492 106Q607 106 685 169T781 362L876 1034H1027L881 0H759L771 196Q743 122 695 74T583 3T447 -20ZM731 1225L754 1388H909L886
1225H731ZM423 1225L446 1388H601L578 1225H423Z" />
<glyph unicode="&#xfd;" horiz-adv-x="997" d="M113 -330Q32 -330 4 -319T-25 -307L-10 -205L91 -206Q160 -208 202 -191T267 -145T306 -89L359 20L125 1034H278L458 202L872 1034H1019L446 -97Q398 -187 346 -237T236 -309T113 -330ZM758 1446H940L648 1155H525L758
1446Z" />
<glyph unicode="&#xfe;" horiz-adv-x="1126" d="M47 -322L300 1446H449L371 889Q395 914 437 953T545 1023T702 1054Q816 1054 898 997T1018 824T1030 532Q1006 358 936 235T761 46T531 -20Q445 -20 384 9T284 79Q269 94 263 91T253 66L198 -322H47ZM507 95Q597
95 673 144T802 290T876 529Q896 674 868 764T779 896T637 938Q561 938 498 902T394 814T345 710L277 225Q324 166 379 131T507 95Z" />
<glyph unicode="&#xff;" horiz-adv-x="997" d="M113 -330Q32 -330 4 -319T-25 -307L-10 -205L91 -206Q160 -208 202 -191T267 -145T306 -89L359 20L125 1034H278L458 202L872 1034H1019L446 -97Q398 -187 346 -237T236 -309T113 -330ZM680 1225L703 1388H858L835
1225H680ZM372 1225L395 1388H550L527 1225H372Z" />
<glyph unicode="&#x2013;" horiz-adv-x="1043" d="M114 439L132 566L925 567L907 440L114 439Z" />
<glyph unicode="&#x2014;" horiz-adv-x="2217" d="M1851 567L1833 440L363 439L381 566L1851 567Z" />
<glyph unicode="&#x2018;" horiz-adv-x="466" d="M493 1496L350 1255L430 1251L401 1049H188L214 1225L414 1496H493Z" />
<glyph unicode="&#x2019;" horiz-adv-x="447" d="M168 999L311 1240L231 1244L260 1446H473L447 1270L247 999H168Z" />
<glyph unicode="&#x201a;" horiz-adv-x="460" d="M-22 -242L117 -2L38 2L67 206H278L253 29L58 -242H-22Z" />
<glyph unicode="&#x201c;" horiz-adv-x="814" d="M839 1480L696 1237L776 1233L747 1029H534L560 1207L760 1480H839ZM491 1480L348 1237L428 1233L399 1029H186L212 1207L412 1480H491Z" />
<glyph unicode="&#x201d;" horiz-adv-x="784" d="M504 999L647 1240L567 1244L596 1446H809L783 1270L583 999H504ZM168 999L311 1240L231 1244L260 1446H473L447 1270L247 999H168Z" />
<glyph unicode="&#x201e;" horiz-adv-x="807" d="M325 -242L464 -2L385 2L414 206H625L600 29L405 -242H325ZM-22 -242L117 -2L38 2L67 206H278L253 29L58 -242H-22Z" />
<glyph unicode="&#x2022;" horiz-adv-x="617" d="M335 554Q285 554 245 578T180 644T155 736Q155 786 179 827T244 892T335 916Q385 916 426 892T492 827T516 736Q516 686 492 645T427 579T335 554Z" />
<glyph unicode="&#x2039;" horiz-adv-x="519" d="M272 144L73 502L380 877H467L216 502L360 144H272Z" />
<glyph unicode="&#x203a;" horiz-adv-x="518" d="M48 144L294 502L150 877H238L436 502L132 144H48Z" />
</font>
</defs>
</svg>
