<?xml version="1.0" standalone="no"?>
<!DOCTYPE svg PUBLIC "-//W3C//DTD SVG 1.1//EN" "http://www.w3.org/Graphics/SVG/1.1/DTD/svg11.dtd">
<svg xmlns="http://www.w3.org/2000/svg">
<defs >
<font id="PublicSans" horiz-adv-x="1041" ><font-face
    font-family="Public Sans Thin ExtraLight"
    units-per-em="2000"
    panose-1="0 0 0 0 0 0 0 0 0 0"
    ascent="1900"
    descent="-450"
    alphabetic="0" />
<glyph unicode=" " horiz-adv-x="482" />
<glyph unicode="!" horiz-adv-x="460" d="M157 323L286 1446H433L242 323H157ZM76 0L102 189H258L231 0H76Z" />
<glyph unicode="&quot;" horiz-adv-x="779" d="M574 1031L588 1446H760L654 1031H574ZM266 1031L280 1446H452L346 1031H266Z" />
<glyph unicode="#" horiz-adv-x="1146" d="M749 -3L657 11L877 1448L968 1437L749 -3ZM90 480V571H1049V480H90ZM346 -3L255 11L475 1448L566 1437L346 -3ZM154 890V981H1113V890H154Z" />
<glyph unicode="$" horiz-adv-x="1221" d="M548 -20Q351 -20 231 75T107 350L234 365Q249 229 337 163T565 96Q649 96 731 128T870 219T939 359Q955 463 909 530T745 635L517 709Q376 753 303 835T249 1055Q265 1173 336 1265T519 1411T770 1464Q900 1464 986
1409T1112 1264T1143 1069L1021 1056Q1018 1154 987 1219T897 1316T750 1349Q672 1349 592 1319T452 1225T380 1064Q368 977 417 927T606 825L823 751Q979 697 1033 594T1069 362Q1053 252 982 166T798 30T548 -20ZM458 -220L495 38H613L576 -220H458ZM703 1409L739
1668H859L823 1409H703Z" />
<glyph unicode="%" horiz-adv-x="1646" d="M1152 -20Q1065 -20 1004 28T916 170T908 396Q927 527 979 619T1106 760T1269 810Q1357 810 1418 761T1504 619T1511 396Q1493 263 1442 170T1315 29T1152 -20ZM435 640Q347 640 285 688T197 829T189 1054Q207 1186 260
1278T388 1419T551 1468Q638 1468 699 1419T786 1278T794 1054Q775 922 724 830T598 689T435 640ZM444 718Q541 718 610 812T700 1054Q722 1202 679 1296T538 1390Q474 1390 421 1347T332 1228T281 1054Q261 907 303 813T444 718ZM1162 60Q1225 60 1278 104T1369
223T1419 394Q1433 490 1418 566T1361 686T1257 730Q1194 730 1141 686T1051 566T1000 394Q987 299 1002 224T1059 104T1162 60ZM294 -8L209 -7L1444 1462H1527L294 -8Z" />
<glyph unicode="&amp;" horiz-adv-x="1256" d="M400 -10Q277 -10 197 37T81 168T61 364Q74 456 119 532T242 674T433 799Q386 860 357 919T315 1037T313 1161Q325 1247 376 1316T504 1427T677 1468Q768 1468 841 1431T953 1326T978 1163Q972 1120 941 1058T829
922T594 768L873 338Q897 363 935 420T1009 561T1065 755H1178Q1154 644 1116 557T1029 397T925 259L1094 0H953L838 172Q726 78 617 34T400 -10ZM437 96Q528 96 619 140T787 253L485 717Q366 653 285 563T190 361Q176 242 248 169T437 96ZM547 847Q670 916 737
970T831 1071T865 1164Q876 1240 848 1285T770 1350T665 1370Q567 1369 507 1308T435 1167Q427 1108 442 1052T482 951T523 883L547 847Z" />
<glyph unicode="&apos;" horiz-adv-x="471" d="M266 1031L280 1446H452L346 1031H266Z" />
<glyph unicode="(" horiz-adv-x="549" d="M294 -225Q237 -85 202 52T157 336T171 653Q206 900 313 1129T563 1543H642Q522 1349 426 1118T296 651Q264 427 285 213T372 -225H294Z" />
<glyph unicode=")" horiz-adv-x="566" d="M291 1539Q348 1399 383 1262T428 978T414 661Q379 414 272 185T22 -229H-57Q63 -35 159 196T289 663Q321 887 300 1101T213 1539H291Z" />
<glyph unicode="*" horiz-adv-x="697" d="M296 830L212 886L391 1114L146 1185L176 1272L412 1181L396 1446H502L488 1181L727 1282L754 1196L514 1115L687 898L603 837L453 1078L296 830Z" />
<glyph unicode="+" horiz-adv-x="1018" d="M432 319L547 1136H646L531 319H432ZM149 673L164 778L928 779L913 675L149 673Z" />
<glyph unicode="," horiz-adv-x="429" d="M-23 -235L112 -2L39 0L66 187H248L225 26L46 -235H-23Z" />
<glyph unicode="-" horiz-adv-x="705" d="M118 463L133 570L586 572L572 464L118 463Z" />
<glyph unicode="." horiz-adv-x="393" d="M42 0L70 190H226L199 0H42Z" />
<glyph unicode="/" horiz-adv-x="628" d="M-58 -100L625 1446H729L45 -100H-58Z" />
<glyph unicode="0" horiz-adv-x="1127" d="M487 -22Q277 -22 178 161T129 717Q165 967 246 1133T443 1383T698 1466Q906 1466 1006 1280T1055 720Q1003 348 850 163T487 -22ZM506 94Q664 94 769 242T920 720Q967 1054 902 1203T681 1352Q525 1352 417 1202T261
720Q215 391 282 243T506 94Z" />
<glyph unicode="1" horiz-adv-x="763" d="M292 0L462 1189H192L205 1285Q328 1285 395 1302T493 1354T533 1446H624L417 0H292Z" />
<glyph unicode="2" horiz-adv-x="1092" d="M56 0L70 96L77 146Q95 277 160 367T316 522T506 641T696 753T850 886T928 1070Q945 1194 874 1270T666 1347Q567 1347 490 1307T362 1195T293 1031H170Q189 1149 256 1247T433 1406T690 1466Q817 1466 905 1417T1032
1278T1054 1069Q1036 939 972 849T817 696T628 579T440 470T288 339T211 155L205 118H933L916 0H56Z" />
<glyph unicode="3" horiz-adv-x="1159" d="M483 -22Q356 -20 261 32T119 177T84 398H209Q208 257 287 176T507 94Q616 94 702 131T842 235T909 390Q923 492 881 560T757 664T568 699L450 700L467 815L582 816Q680 817 764 857T904 961T970 1099Q979 1163 951 1221T857
1316T685 1352Q608 1352 530 1318T395 1215T321 1038H197Q216 1169 290 1265T472 1413T700 1466Q834 1466 930 1422T1071 1296T1101 1101Q1086 994 1007 905T789 766Q883 738 943 685T1028 558T1041 393Q1027 299 980 222T859 89T689 6T483 -22Z" />
<glyph unicode="4" horiz-adv-x="1155" d="M665 0L721 397H80L99 526L864 1446H990L859 514H1090L1073 397H841L785 0H665ZM217 514H733L840 1265L217 514Z" />
<glyph unicode="5" horiz-adv-x="1179" d="M529 -22Q408 -22 312 27T156 163T80 366L201 396Q219 305 263 236T378 129T541 90Q698 90 807 190T942 470Q957 581 922 661T818 786T661 830Q598 830 543 818T431 771T310 662Q307 661 306 661T301 662L187 684L354
1446H1131L1112 1331H450L336 797Q410 876 501 909T693 942Q809 942 903 890T1045 733T1072 474Q1052 325 977 214T787 40T529 -22Z" />
<glyph unicode="6" horiz-adv-x="1142" d="M518 -22Q369 -22 271 64T134 312T128 704Q160 933 241 1104T449 1371T744 1466Q849 1466 931 1424T1063 1303T1115 1112H999Q986 1221 917 1288T730 1355Q598 1355 499 1276T336 1037T249 641Q284 728 347 795T491 900T661
938Q792 938 883 883T1015 723T1035 472Q1015 325 946 214T767 41T518 -22ZM537 91Q629 91 706 138T835 269T903 466Q919 575 895 656T807 781T637 826Q553 826 472 784T335 669T264 508Q246 389 274 295T369 146T537 91Z" />
<glyph unicode="7" horiz-adv-x="1108" d="M264 0Q298 105 363 257T520 588T729 958T985 1331H211L228 1446H1142L1124 1331Q1032 1214 938 1071T758 777T598 480T472 210T394 0H264Z" />
<glyph unicode="8" horiz-adv-x="1204" d="M525 -22Q374 -22 269 29T115 171T83 386Q95 471 146 549T270 683T415 753Q323 795 273 876T240 1079Q257 1202 327 1288T504 1420T734 1466Q860 1466 952 1421T1090 1289T1119 1079Q1102 957 1031 876T853 753Q923 739
979 684T1066 550T1084 386Q1067 263 992 172T798 29T525 -22ZM541 87Q709 87 821 168T952 383Q965 472 929 541T815 650T625 690Q514 690 425 651T281 542T213 383Q194 249 284 168T541 87ZM642 812Q783 812 879 883T993 1083Q1011 1211 935 1285T719 1360Q580
1360 483 1286T368 1083Q351 954 427 883T642 812Z" />
<glyph unicode="9" horiz-adv-x="1149" d="M456 -22Q352 -22 267 20T131 140T76 329H196Q207 222 280 156T470 89Q602 89 704 166T874 401T966 805Q933 716 870 648T726 542T552 503Q421 503 329 558T197 718T176 971Q197 1118 265 1229T442 1403T691 1466Q840
1466 938 1380T1074 1132T1079 740Q1046 506 964 335T753 71T456 -22ZM572 617Q657 617 738 659T875 774T944 936Q963 1055 935 1149T840 1299T673 1354Q581 1354 504 1307T376 1174T309 977Q286 814 349 716T572 617Z" />
<glyph unicode=":" horiz-adv-x="394" d="M156 793L184 983H340L313 793H156ZM43 6L71 195H227L200 6H43Z" />
<glyph unicode=";" horiz-adv-x="428" d="M5 -272L141 0H78L104 189H260L237 22L60 -272H5ZM182 791L208 982H366L339 791H182Z" />
<glyph unicode="&lt;" horiz-adv-x="1005" d="M846 317L144 631L161 758L955 1079L938 947L308 695L863 443L846 317Z" />
<glyph unicode="=" horiz-adv-x="1020" d="M178 868L192 972L956 974L941 870L178 868ZM116 432L131 536L894 538L880 434L116 432Z" />
<glyph unicode="&gt;" horiz-adv-x="1003" d="M100 317L120 443L747 695L189 947L208 1079L910 758L892 631L100 317Z" />
<glyph unicode="?" horiz-adv-x="961" d="M368 327Q384 442 433 528T545 683T671 817T780 951T839 1112Q856 1226 791 1292T603 1358Q537 1358 469 1331T346 1258T261 1156L155 1199Q232 1323 356 1394T620 1466Q741 1466 824 1422T944 1299T968 1115Q953 1011
904 933T789 789T657 657T542 511T476 327H368ZM299 0L326 189H481L454 0H299Z" />
<glyph unicode="@" horiz-adv-x="1573" d="M700 -220Q536 -220 415 -163T218 -6T112 226T104 508Q127 666 199 807T383 1056T637 1226T941 1288Q1058 1288 1165 1252T1354 1140T1474 946T1489 663Q1468 514 1406 400T1255 222T1068 158Q999 158 964 183T923 266Q921
279 918 279T903 269Q854 210 787 170T628 130Q562 130 511 172T436 292T427 474Q445 600 504 702T650 865T837 926Q912 926 961 891T1032 795Q1033 791 1037 792T1045 801L1073 876H1167L1034 424Q1008 331 1022 296T1087 260Q1151 260 1211 307T1317 443T1378
651Q1399 796 1367 898T1267 1065T1109 1159T924 1189Q779 1189 657 1135T442 987T290 769T210 506Q193 378 216 265T304 65T477 -71T739 -120Q822 -120 883 -103T995 -56T1100 9L1144 -70Q1048 -139 936 -179T700 -220ZM662 236Q724 236 783 275T888 380T956 523Q984
624 971 690T919 788T828 820Q756 820 696 774T596 651T542 480Q525 367 557 302T662 236Z" />
<glyph unicode="A" horiz-adv-x="1330" d="M29 0L725 1446H871L1154 0H1030L947 430H361L153 0H29ZM413 553H929L782 1319L413 553Z" />
<glyph unicode="B" horiz-adv-x="1259" d="M134 0L340 1446H742Q978 1446 1090 1349T1177 1067Q1159 950 1090 867T871 735Q945 719 995 688T1075 612T1113 510T1112 384Q1085 190 941 95T550 0H134ZM271 114H556Q750 114 862 178T994 388Q1009 492 968 555T847
646T664 674H350L271 114ZM365 789H675Q733 789 795 801T913 842T1008 925T1058 1058Q1079 1202 987 1268T729 1334H443L365 789Z" />
<glyph unicode="C" horiz-adv-x="1287" d="M604 -20Q429 -20 318 62T164 305T147 701Q167 881 219 1023T353 1263T548 1414T802 1466Q939 1466 1036 1405T1184 1241T1233 1019H1103Q1098 1109 1062 1184T958 1304T783 1349Q674 1349 588 1306T440 1179T337 975T279
698Q242 392 327 245T618 97Q723 97 803 142T940 264T1025 430H1155Q1134 344 1087 263T968 119T806 18T604 -20Z" />
<glyph unicode="D" horiz-adv-x="1299" d="M137 0L339 1446Q343 1446 408 1445T553 1444Q685 1443 791 1425T977 1366T1111 1264T1192 1113T1220 907Q1220 791 1203 679T1146 466T1044 279T888 132T670 35T384 0H137ZM279 116H391Q583 116 717 174T934 337T1056
584T1094 896Q1094 1062 1034 1156T858 1290T578 1330H450L279 116Z" />
<glyph unicode="E" horiz-adv-x="1173" d="M134 0L341 1446H1149L1132 1330H443L366 789H997L982 672H350L271 120L983 118L965 0H134Z" />
<glyph unicode="F" horiz-adv-x="1112" d="M136 0L341 1446H1138L1122 1330H449L374 788H987L972 672H357L261 0H136Z" />
<glyph unicode="G" horiz-adv-x="1372" d="M599 -20Q425 -20 313 65T157 315T148 720Q182 958 273 1125T502 1379T814 1466Q939 1466 1036 1403T1189 1238T1236 1019H1106Q1105 1105 1066 1180T958 1302T795 1348Q665 1348 559 1280T380 1073T276 722Q253 560
267 442T328 248T449 134T621 97Q718 97 795 134T928 232T1017 360T1061 491L1085 642H729L744 741L1222 740L1117 0H1017L1051 238Q1004 168 939 110T790 16T599 -20Z" />
<glyph unicode="H" horiz-adv-x="1459" d="M135 0L338 1446H458L368 810H1174L1263 1446H1382L1179 0H1060L1157 692H352L255 0H135Z" />
<glyph unicode="I" horiz-adv-x="538" d="M136 0L340 1446H460L256 0H136Z" />
<glyph unicode="J" horiz-adv-x="735" d="M238 -20Q162 -20 105 1T34 32L68 158Q96 145 132 125T233 104Q322 104 364 158T425 346L582 1446H700L538 307Q524 205 492 132T398 19T238 -20Z" />
<glyph unicode="K" horiz-adv-x="1264" d="M134 0L341 1446H464L352 650L1128 1446H1277L729 879L1107 0H965L621 783L327 478L259 0H134Z" />
<glyph unicode="L" horiz-adv-x="1102" d="M134 0L341 1446H465L276 121H940L923 0H134Z" />
<glyph unicode="M" horiz-adv-x="1650" d="M136 0L340 1446H496L771 159L1420 1446H1572L1368 0H1241L1413 1204L815 0H683L430 1191L260 0H136Z" />
<glyph unicode="N" horiz-adv-x="1410" d="M134 0L341 1446H449L1041 229L1214 1446H1334L1127 0H1022L428 1222L254 0H134Z" />
<glyph unicode="O" horiz-adv-x="1364" d="M607 -20Q431 -20 317 65T158 314T147 717Q181 958 273 1125T505 1379T820 1466Q994 1466 1107 1380T1264 1127T1274 720Q1240 482 1149 317T920 66T607 -20ZM626 97Q764 97 869 164T1044 369T1143 719Q1173 933 1143
1072T1026 1280T802 1349Q596 1349 461 1194T280 719Q250 508 281 370T400 165T626 97Z" />
<glyph unicode="P" horiz-adv-x="1194" d="M136 0L341 1446H775Q917 1446 1021 1396T1174 1245T1203 998Q1182 854 1107 753T918 599T663 546H338L261 0H136ZM354 662H679Q784 662 869 703T1011 821T1082 1007Q1105 1171 1016 1251T762 1331H450L354 662Z" />
<glyph unicode="Q" horiz-adv-x="1395" d="M1124 -240Q1069 -240 1002 -222T872 -152T772 0Q725 -9 685 -14T607 -20Q435 -20 320 63T159 311T148 720Q182 962 274 1128T505 1380T819 1466Q993 1466 1106 1381T1264 1129T1275 720Q1242 482 1152 316T897 55Q925
-38 990 -80T1141 -126L1124 -240ZM624 97Q831 97 965 248T1144 719Q1174 928 1144 1068T1028 1278T802 1349Q591 1349 458 1191T279 716Q235 399 326 248T624 97Z" />
<glyph unicode="R" horiz-adv-x="1270" d="M134 0L340 1446H836Q974 1446 1063 1403T1189 1276T1209 1072Q1192 952 1139 874T1016 751T878 684L1053 0H924L758 659H348L254 0H134ZM363 773H682Q798 773 883 803T1018 896T1083 1059Q1102 1202 1032 1268T813 1335H443L363
773Z" />
<glyph unicode="S" horiz-adv-x="1271" d="M569 -20Q476 -20 393 5T247 78T147 199T109 367H238Q245 276 292 215T416 122T584 91Q691 91 777 124T919 218T985 359Q994 431 975 485T908 578T782 637L510 710Q366 748 295 832T242 1055Q258 1173 328 1265T511 1411T760
1464Q913 1464 1010 1404T1149 1250T1180 1056H1052Q1056 1166 1014 1230T900 1321T743 1349Q665 1349 584 1319T443 1225T370 1064Q359 977 408 923T596 828L858 754Q945 732 998 691T1079 596T1112 483T1110 362Q1096 257 1029 171T845 32T569 -20Z" />
<glyph unicode="T" horiz-adv-x="1096" d="M428 0L617 1327H168L184 1446H1171L1156 1327H736L548 0H428Z" />
<glyph unicode="U" horiz-adv-x="1309" d="M598 -20Q435 -20 340 37T213 209T205 496L339 1446H465L326 465Q308 343 334 260T431 136T614 94Q785 94 887 186T1015 465L1154 1446H1273L1135 471Q1113 309 1047 200T870 36T598 -20Z" />
<glyph unicode="V" horiz-adv-x="1217" d="M452 0L184 1446H305L548 138L1174 1446H1294L605 0H452Z" />
<glyph unicode="W" horiz-adv-x="1774" d="M361 0L185 1446H311L455 184L965 1446H1066L1218 184L1728 1446H1851L1255 0H1128L982 1219L486 0H361Z" />
<glyph unicode="X" horiz-adv-x="1281" d="M29 0L596 740L255 1446H408L689 852L1141 1446H1280L743 749L1106 0H955L652 632L169 0H29Z" />
<glyph unicode="Y" horiz-adv-x="1076" d="M407 0L493 621L158 1446H288L571 737L1048 1446H1180L614 619L525 0H407Z" />
<glyph unicode="Z" horiz-adv-x="1175" d="M65 0L78 79L1021 1332H279L295 1446H1202L1191 1369L241 115H1011L993 0H65Z" />
<glyph unicode="[" horiz-adv-x="550" d="M81 -322L330 1446H635L621 1354H430L203 -230H395L382 -322H81Z" />
<glyph unicode="\" horiz-adv-x="623" d="M400 -100L158 1446H261L505 -100H400Z" />
<glyph unicode="]" horiz-adv-x="585" d="M483 1446L234 -322H-71L-57 -230H134L361 1354H169L182 1446H483Z" />
<glyph unicode="^" horiz-adv-x="884" d="M66 266L437 982Q460 1027 487 1043T538 1046T573 982L743 263H632L492 889L172 266H66Z" />
<glyph unicode="_" horiz-adv-x="948" d="M24 -215L41 -108L732 -106L715 -213L24 -215Z" />
<glyph unicode="`" horiz-adv-x="446" d="M295 1446H141L424 1155H526L295 1446Z" />
<glyph unicode="a" horiz-adv-x="1076" d="M354 -20Q260 -20 194 15T99 115T81 271Q106 444 225 525T590 615L789 622L802 713Q818 827 757 889T584 952Q491 951 412 901T302 751H189Q206 831 260 900T402 1012T605 1054Q717 1054 792 1013T901 897T919 718L817
0H713L732 195Q654 69 556 25T354 -20ZM398 80Q452 80 510 101T620 160T706 242T747 336L774 528L609 524Q476 522 390 497T259 419T201 282Q189 187 243 134T398 80Z" />
<glyph unicode="b" horiz-adv-x="1140" d="M557 -20Q465 -20 407 6T315 72T268 150T250 212L210 0H113L308 1486H430L347 857Q359 878 386 911T458 976T564 1031T705 1054Q886 1054 978 922T1035 521Q1004 277 884 129T557 -20ZM556 84Q689 84 786 192T913 532Q938
723 877 835T664 948Q497 948 415 837T304 532Q274 296 330 190T556 84Z" />
<glyph unicode="c" horiz-adv-x="1035" d="M462 -20Q334 -20 245 39T118 216T105 514Q128 675 193 797T365 986T615 1054Q711 1054 785 1017T903 909T949 734H835Q834 797 806 844T725 919T600 946Q461 946 358 840T224 514Q196 320 258 202T479 83Q551 83 611
110T713 186T773 295H886Q856 193 792 123T643 16T462 -20Z" />
<glyph unicode="d" horiz-adv-x="1136" d="M442 -20Q256 -20 163 115T105 521Q138 761 256 907T577 1054Q656 1054 711 1032T802 977T857 911T882 857L966 1486H1087L891 0H794L810 212Q800 189 776 151T708 73T600 7T442 -20ZM471 84Q641 84 725 190T840 532Q856
661 838 754T760 898T589 948Q453 948 356 847T232 532Q204 326 262 205T471 84Z" />
<glyph unicode="e" horiz-adv-x="1074" d="M482 -20Q351 -20 261 42T131 222T115 507Q139 675 207 798T380 987T623 1054Q754 1054 837 994T952 820T961 549L952 487H236Q220 379 241 288T324 141T496 85Q601 85 683 138T797 287H915Q882 185 814 117T659 14T482
-20ZM250 585H847Q862 688 842 771T764 902T607 950Q501 950 426 896T306 757T250 585Z" />
<glyph unicode="f" horiz-adv-x="776" d="M242 0L375 937H156L171 1034H387L412 1201Q429 1322 491 1384T666 1446H825L812 1350H661Q596 1350 568 1313T529 1203L506 1034H757L743 937H493L361 0H242Z" />
<glyph unicode="g" horiz-adv-x="1162" d="M435 -342Q223 -342 108 -270T11 -57Q19 1 47 41T112 110T180 156T222 183Q207 194 188 208T157 244T149 302Q155 346 199 383T324 441Q251 486 214 559T188 725Q201 822 255 895T403 1009T630 1050Q724 1050 785 1026T895
955Q908 962 941 976T1014 1006T1088 1037T1137 1058L1119 917L942 878Q970 803 960 718Q948 627 897 556T755 444T535 403Q526 403 516 403T498 404Q372 401 323 376T269 321Q267 290 306 276T451 253Q491 250 545 247T664 239Q803 231 874 162T928 -35Q910 -172
788 -257T435 -342ZM465 -248Q612 -248 703 -197T808 -40Q817 29 776 73T638 125L342 145Q310 147 264 123T179 55T133 -48Q121 -139 202 -193T465 -248ZM546 496Q667 496 748 553T845 726Q860 843 796 901T612 959Q490 959 407 899T308 719Q293 611 355 554T546
496Z" />
<glyph unicode="h" horiz-adv-x="1109" d="M113 0L311 1486H426L346 884Q392 954 479 1002T683 1051Q778 1051 850 1014T958 910T981 755L881 0H761L857 722Q871 826 813 884T644 942Q567 942 499 917T384 839T327 708L232 0H113Z" />
<glyph unicode="i" horiz-adv-x="509" d="M123 0L269 1034H386L241 0H123ZM298 1293L319 1444H450L428 1293H298Z" />
<glyph unicode="j" horiz-adv-x="477" d="M-59 -332Q-139 -332 -157 -322T-175 -312L-163 -228L-55 -225Q14 -222 47 -187T92 -68L249 1034H368L210 -77Q192 -207 135 -269T-59 -332ZM277 1274L298 1425H431L410 1274H277Z" />
<glyph unicode="k" horiz-adv-x="1058" d="M99 0L311 1486H430L286 467L872 1034H1019L618 650L900 0H765L523 560L263 312L219 0H99Z" />
<glyph unicode="l" horiz-adv-x="556" d="M307 -10Q246 -10 208 10T152 67T131 151T135 253L311 1486H430L254 260Q242 170 268 129T339 87L394 86L383 2Q361 -4 341 -7T307 -10Z" />
<glyph unicode="m" horiz-adv-x="1613" d="M100 0L247 1034H359L338 885Q385 952 460 1003T647 1054Q729 1054 805 1012T903 886Q960 965 1044 1009T1222 1054Q1272 1054 1324 1039T1419 984T1479 871T1481 679L1385 0H1267L1362 672Q1378 783 1356 842T1286 925T1182
948Q1127 948 1067 927T961 852T900 705L800 0H683L787 741Q797 811 770 856T696 925T599 948Q544 948 484 925T379 850T321 714L218 0H100Z" />
<glyph unicode="n" horiz-adv-x="1092" d="M100 0L247 1034H360L341 885Q373 931 422 969T535 1029T677 1052Q772 1052 842 1011T946 885T960 674L864 0H745L840 666Q860 800 805 871T640 942Q564 942 495 917T378 840T320 709L219 0H100Z" />
<glyph unicode="o" horiz-adv-x="1068" d="M464 -20Q335 -20 246 39T119 217T105 513Q127 676 191 797T360 986T608 1054Q737 1054 824 994T949 813T962 513Q941 354 878 234T711 47T464 -20ZM480 85Q574 85 649 134T774 279T842 516Q859 642 840 739T760 892T593
948Q497 948 422 900T296 755T226 516Q210 390 229 293T311 141T480 85Z" />
<glyph unicode="p" horiz-adv-x="1134" d="M67 -322L245 1034H363L341 836Q365 875 409 926T525 1016T697 1054Q818 1054 901 998T1019 827T1032 534Q1009 362 947 238T784 47T549 -20Q474 -20 422 3T337 61T285 135T257 205L188 -322H67ZM548 85Q684 85 782 193T910
527Q936 718 875 833T661 948Q510 948 416 833T298 527Q281 401 303 301T386 143T548 85Z" />
<glyph unicode="q" horiz-adv-x="1137" d="M847 -322H726L795 205Q772 164 728 111T614 19T444 -20Q324 -20 240 39T119 220T108 534Q129 694 189 810T347 990T579 1054Q655 1054 707 1032T795 975T849 903T878 836L907 1034H1025L847 -322ZM473 85Q574 85 650
143T775 301T840 527Q865 718 802 833T587 948Q451 948 353 845T226 527Q200 325 260 205T473 85Z" />
<glyph unicode="r" horiz-adv-x="729" d="M99 0L245 1034H358L334 860Q369 932 419 974T526 1035T637 1054Q663 1054 687 1050T725 1037L708 914Q692 922 665 925T620 929Q560 932 495 911T380 836T316 686L220 0H99Z" />
<glyph unicode="s" horiz-adv-x="961" d="M412 -20Q310 -20 232 13T110 114T68 287H183Q187 223 216 178T298 108T426 83Q534 83 606 129T693 271Q702 336 675 375T583 434L375 495Q268 526 211 586T169 756Q181 844 228 911T359 1016T560 1054Q706 1054 788 983T855
770H742Q744 852 695 902T545 952Q441 952 370 906T285 761Q276 697 314 661T431 603L635 541Q692 524 728 496T784 432T808 357T807 278Q795 187 746 121T612 17T412 -20Z" />
<glyph unicode="t" horiz-adv-x="752" d="M431 -2Q346 -2 302 24T246 103T246 240L344 937H187L202 1034H359L427 1329H521L480 1034H700L686 937H465L368 251Q354 154 381 129T483 103H575L562 11Q544 4 510 1T431 -2Z" />
<glyph unicode="u" horiz-adv-x="1086" d="M453 -20Q373 -19 308 3T199 70T136 182T130 340L227 1034H347L251 348Q234 231 290 159T482 86Q604 86 687 154T791 362L886 1034H1005L859 0H760L775 193Q748 123 701 76T590 4T453 -20Z" />
<glyph unicode="v" horiz-adv-x="930" d="M324 0L130 1034H248L401 151H421L832 1034H946L459 0H324Z" />
<glyph unicode="w" horiz-adv-x="1467" d="M287 0L145 1034H262L376 153H395L759 1034H855L981 156H1000L1354 1034H1468L1043 0H900L778 840L434 0H287Z" />
<glyph unicode="x" horiz-adv-x="1037" d="M3 0L450 537L179 1034H314L535 630L868 1034H1004L591 537L887 0H751L506 444L139 0H3Z" />
<glyph unicode="y" horiz-adv-x="974" d="M104 -330Q28 -330 3 -320T-23 -310L-11 -227L90 -228Q155 -229 196 -212T262 -166T303 -106L362 14L130 1034H254L443 166L874 1034H990L413 -118Q372 -198 324 -244T221 -310T104 -330Z" />
<glyph unicode="z" horiz-adv-x="894" d="M16 0L26 89L730 936H187L201 1034H883L872 945L170 98H758L744 0H16Z" />
<glyph unicode="{" horiz-adv-x="559" d="M323 -322Q251 -322 206 -298T142 -230T131 -129L196 318Q202 365 186 411T127 487T13 518L28 610Q135 611 194 671T267 820L330 1258Q338 1315 369 1357T453 1422T573 1446H643L630 1354H571Q527 1354 500 1343T460 1309T441
1251L378 810Q367 733 335 682T259 604T167 572Q157 571 155 566T165 558Q211 554 248 530T302 455T310 323L247 -122Q239 -177 259 -203T348 -230H405L392 -322H323Z" />
<glyph unicode="|" horiz-adv-x="518" d="M91 -322L370 1652H471L190 -322H91Z" />
<glyph unicode="}" horiz-adv-x="573" d="M247 1446Q319 1446 364 1422T428 1354T439 1253L374 806Q368 759 384 713T443 637T557 606L542 514Q435 513 376 453T303 304L240 -134Q232 -191 201 -233T117 -298T-3 -322H-73L-60 -230H-1Q43 -230 70 -219T110 -185T129
-127L192 314Q203 391 235 442T311 520T403 552Q413 553 415 558T405 566Q359 570 322 594T268 669T260 801L323 1246Q331 1301 311 1327T222 1354H165L178 1446H247Z" />
<glyph unicode="~" horiz-adv-x="1030" d="M170 632L146 714Q196 758 253 792T392 827Q442 827 482 813T560 780T636 747T722 732Q794 732 839 762T916 826L940 742Q910 701 851 669T708 637Q653 637 613 651T538 683T466 716T380 731Q310 731 259 700T170 632Z" />
<glyph unicode="&#xa0;" horiz-adv-x="482" />
<glyph unicode="&#xa1;" horiz-adv-x="463" d="M48 -322L215 709H300L196 -322H48ZM198 845L223 1034H378L353 845H198Z" />
<glyph unicode="&#xa2;" horiz-adv-x="1021" d="M599 1188L635 1446H733L696 1188H599ZM410 0L448 258H545L509 0H410ZM505 202Q375 202 285 261T156 438T142 736Q166 897 232 1019T406 1208T659 1276Q757 1276 832 1239T952 1131T998 956H880Q879 1019 851 1066T770
1141T644 1168Q504 1168 401 1062T265 736Q238 542 300 424T522 305Q595 305 655 332T758 408T818 517H935Q904 415 839 345T688 238T505 202Z" />
<glyph unicode="&#xa3;" horiz-adv-x="1117" d="M-48 0L-32 112H42Q113 112 175 187T260 425Q268 477 271 540T274 693H86L100 787H273L263 943Q254 1065 287 1161T383 1325T528 1430T696 1466Q779 1466 846 1437T959 1360T1018 1256L905 1210Q881 1278 833 1314T692
1350Q586 1350 502 1284T400 1097Q391 1032 392 948T407 788H722L707 695H405Q406 623 404 568T391 455Q375 354 346 286T285 176T234 114H597Q694 114 761 150T875 279L974 244Q914 121 815 61T584 0H-48Z" />
<glyph unicode="&#xa4;" horiz-adv-x="985" d="M157 329L102 405L222 515Q198 562 190 615T190 728Q198 784 220 833T274 924Q280 933 280 939T275 950L197 1052L274 1124L362 1008Q407 1042 461 1059T568 1077Q671 1077 741 1016Q755 1008 765 1018L880 1124L934
1051L811 936Q834 891 843 839T845 728Q838 674 817 624T761 533Q752 517 759 508L844 406L767 334L676 448Q629 414 577 395T469 375Q365 375 292 436Q279 447 268 433L157 329ZM487 485Q551 485 606 518T699 607T746 728Q755 792 734 847T667 937T556 971Q491
971 435 937T342 848T295 728Q286 663 307 608T375 519T487 485Z" />
<glyph unicode="&#xa5;" horiz-adv-x="1095" d="M411 0L495 605L152 1446H307L589 738L1075 1446H1205L637 638L546 0H411ZM164 290L177 382L889 384L875 291L164 290ZM204 572L217 665L929 666L916 574L204 572Z" />
<glyph unicode="&#xa6;" horiz-adv-x="518" d="M258 858L370 1652H471L357 858H258ZM91 -322L203 472H302L190 -322H91Z" />
<glyph unicode="&#xa7;" horiz-adv-x="904" d="M377 -137Q294 -137 222 -108T98 -28T23 93L115 144Q149 66 220 15T395 -37Q492 -37 562 5T643 126Q652 181 618 231T475 332L316 402Q204 452 162 521T130 680Q144 773 209 839T361 939Q253 1004 226 1068T208 1202Q219
1277 269 1337T400 1431T580 1466Q659 1466 721 1439T828 1368T897 1271L804 1219Q767 1281 712 1323T575 1366Q468 1366 402 1324T326 1211Q320 1163 347 1117T466 1028L616 958Q747 896 797 819T832 643Q819 542 758 484T622 389Q700 338 737 278T763 134Q751
56 700 -5T565 -102T377 -137ZM503 450Q552 446 598 469T677 534T715 625Q724 693 699 743T578 838L474 884Q419 880 369 852T286 782T245 694Q237 635 264 594T391 506L503 450Z" />
<glyph unicode="&#xa8;" horiz-adv-x="428" d="M390 1234L410 1380H538L518 1234H390ZM112 1234L132 1380H261L240 1234H112Z" />
<glyph unicode="&#xa9;" horiz-adv-x="1515" d="M680 -20Q537 -20 419 37T221 197T106 434T94 724Q115 877 188 1011T370 1248T613 1408T891 1466Q1034 1466 1151 1408T1348 1248T1463 1012T1476 724Q1454 569 1381 434T1199 197T956 38T680 -20ZM731 311Q628
311 557 363T454 509T441 727Q458 851 516 946T661 1094T850 1148Q921 1148 973 1121T1060 1047T1119 946L1019 908Q1000 955 975 988T917 1038T842 1055Q771 1055 711 1015T610 902T554 731Q533 582 589 493T751 403Q825 403 887 447T993 562L1064 524Q1035 480
999 442T921 374T831 328T731 311ZM695 83Q814 83 926 128T1133 257T1291 459T1376 724Q1396 868 1366 986T1266 1189T1096 1319T876 1365Q755 1365 642 1320T435 1189T278 986T194 724Q167 529 226 385T409 162T695 83Z" />
<glyph unicode="&#xaa;" horiz-adv-x="813" d="M354 791Q260 791 214 838T179 970Q193 1064 275 1118T500 1185L621 1196L626 1245Q637 1317 602 1350T495 1383Q442 1383 400 1362T315 1282L241 1310Q284 1382 352 1421T513 1461Q628 1461 677 1402T713 1241Q701
1161 694 1105T680 1014Q678 996 676 974T672 929T669 881V803H578L576 896Q520 842 468 817T354 791ZM389 865Q466 865 531 922Q558 945 574 967T594 1014L609 1126L511 1117Q398 1109 339 1072T272 974Q265 925 297 895T389 865Z" />
<glyph unicode="&#xab;" horiz-adv-x="814" d="M587 147L382 502L692 873H766L507 502L660 147H587ZM272 147L67 502L376 873H451L191 502L344 147H272Z" />
<glyph unicode="&#xac;" horiz-adv-x="1019" d="M149 673L165 778L929 779L913 675L149 673ZM771 396L819 752H925L873 396H771Z" />
<glyph unicode="&#xad;" horiz-adv-x="705" d="M118 463L133 570L586 572L572 464L118 463Z" />
<glyph unicode="&#xae;" horiz-adv-x="997" d="M499 536Q379 536 290 598T157 765T133 1000Q151 1129 224 1235T404 1403T633 1466Q751 1466 839 1404T971 1235T997 1000Q979 871 906 766T726 598T499 536ZM511 615Q615 615 701 662T845 795T920 1000Q937 1117
904 1204T798 1339T621 1387Q515 1387 428 1339T284 1204T210 1000Q185 824 268 720T511 615ZM370 766L437 1228H626Q693 1228 725 1199T750 1114Q743 1058 710 1030T641 990L692 766H620L576 984H468L437 766H370ZM475 1045H588Q622 1045 648 1057T681 1106Q684
1131 669 1149T601 1168H494L475 1045Z" />
<glyph unicode="&#xaf;" horiz-adv-x="550" d="M127 1252L141 1351H645L631 1252H127Z" />
<glyph unicode="&#xb0;" horiz-adv-x="872" d="M510 1069Q429 1069 372 1107T288 1214T274 1370Q286 1459 332 1527T447 1635T598 1674Q679 1674 736 1635T820 1528T835 1370Q822 1283 776 1215T661 1108T510 1069ZM522 1160Q608 1160 665 1218T736 1368Q750 1461
709 1519T579 1577Q496 1577 437 1519T365 1368Q353 1276 395 1218T522 1160Z" />
<glyph unicode="&#xb1;" horiz-adv-x="1021" d="M455 462L570 1280H669L552 462H455ZM75 142L90 246L853 248L839 144L75 142ZM172 817L187 921L950 923L936 818L172 817Z" />
<glyph unicode="&#xb2;" horiz-adv-x="663" d="M72 768L81 828L85 860Q97 942 138 998T236 1096T355 1171T475 1242T571 1325T621 1441Q631 1519 587 1567T456 1615Q394 1615 345 1590T265 1519T221 1417H144Q156 1491 198 1553T309 1652T471 1690Q551 1690 606
1659T686 1572T700 1440Q689 1359 649 1302T551 1206T432 1133T314 1064T218 981T170 865L166 842H624L613 768H72Z" />
<glyph unicode="&#xb3;" horiz-adv-x="730" d="M359 754Q279 755 219 788T130 879T108 1018H186Q186 930 236 879T374 827Q442 827 496 850T585 916T627 1013Q636 1077 610 1120T531 1186T412 1208H338L349 1281H421Q483 1282 536 1307T624 1372T665 1459Q671
1500 653 1536T594 1595T486 1618Q437 1618 388 1597T303 1532T257 1421H179Q191 1503 237 1563T352 1657T495 1690Q580 1690 640 1662T729 1583T748 1461Q738 1393 689 1337T551 1250Q610 1232 648 1199T702 1119T710 1015Q701 956 672 908T595 824T489 772T359
754Z" />
<glyph unicode="&#xb4;" horiz-adv-x="364" d="M331 1446H485L202 1155H100L331 1446Z" />
<glyph unicode="&#xb5;" horiz-adv-x="1088" d="M35 -330L233 1060H355L246 302Q239 248 261 202T328 128T432 100Q516 100 603 153T780 297L887 1060H1010L858 0H742L765 164Q652 75 577 36T422 -5Q358 -7 307 10T214 73L157 -330H35Z" />
<glyph unicode="&#xb6;" horiz-adv-x="1026" d="M403 -166L510 593Q386 595 306 652T192 803T174 1005Q189 1116 250 1217T414 1382T659 1446H1002L990 1361H879L662 -166H576L793 1361H707L490 -166H403Z" />
<glyph unicode="&#xb7;" horiz-adv-x="415" d="M132 637L159 820H337L310 637H132Z" />
<glyph unicode="&#xb8;" horiz-adv-x="391" d="M47 -404Q1 -404 -36 -392T-104 -356L-70 -291Q-51 -310 -26 -323T43 -336Q97 -336 124 -315T158 -257Q165 -212 133 -190T28 -166Q19 -166 18 -163T20 -155L110 10H186L123 -112Q182 -117 212 -138T252 -191T258
-254Q251 -304 220 -337T144 -387T47 -404Z" />
<glyph unicode="&#xb9;" horiz-adv-x="437" d="M221 760L328 1508H158L166 1568Q243 1568 285 1579T347 1612T372 1670H430L299 760H221Z" />
<glyph unicode="&#xba;" horiz-adv-x="772" d="M424 794Q289 794 230 887T191 1126Q205 1227 250 1303T365 1421T519 1464Q649 1464 711 1371T753 1126Q740 1029 696 954T583 837T424 794ZM435 872Q526 872 583 942T657 1132Q673 1246 636 1315T508 1384Q417 1384
361 1315T288 1132Q271 1013 308 943T435 872Z" />
<glyph unicode="&#xbb;" horiz-adv-x="874" d="M391 147L646 502L491 873H563L768 502L462 147H391ZM76 147L330 502L177 873H248L452 502L146 147H76Z" />
<glyph unicode="&#xbc;" horiz-adv-x="1401" d="M221 552L328 1300H158L166 1360Q243 1360 285 1371T347 1404T372 1462H430L299 552H221ZM194 -8L102 -7L1221 1462H1310L194 -8ZM1314 0L1350 250H946L958 331L1439 910H1519L1436 323H1582L1571 250H1425L1390
0H1314ZM1032 323H1357L1424 796L1032 323Z" />
<glyph unicode="&#xbd;" horiz-adv-x="1558" d="M221 552L328 1300H158L166 1360Q243 1360 285 1371T347 1404T372 1462H430L299 552H221ZM194 -8L102 -7L1221 1462H1310L194 -8ZM1145 0L1154 60L1158 92Q1170 174 1211 230T1309 328T1428 403T1548 474T1644 557T1694
673Q1704 751 1660 799T1529 847Q1467 847 1418 822T1338 751T1294 649H1217Q1229 723 1271 785T1382 884T1544 922Q1624 922 1679 891T1759 804T1773 672Q1762 591 1722 534T1624 438T1505 365T1387 296T1291 213T1243 97L1239 74H1697L1686 0H1145Z" />
<glyph unicode="&#xbe;" horiz-adv-x="1632" d="M359 544Q279 545 219 578T130 669T108 808H186Q186 720 236 669T374 617Q442 617 496 640T585 706T627 803Q636 867 610 910T531 976T412 998H338L349 1071H421Q483 1072 536 1097T624 1162T665 1249Q671 1290
653 1326T594 1385T486 1408Q437 1408 388 1387T303 1322T257 1211H179Q191 1293 237 1353T352 1447T495 1480Q580 1480 640 1452T729 1373T748 1251Q738 1183 689 1127T551 1040Q610 1022 648 989T702 909T710 805Q701 746 672 698T595 614T489 562T359 544ZM426
-8L334 -7L1453 1462H1542L426 -8ZM1545 0L1581 250H1177L1189 331L1670 910H1750L1667 323H1813L1802 250H1656L1621 0H1545ZM1263 323H1588L1655 796L1263 323Z" />
<glyph unicode="&#xbf;" horiz-adv-x="955" d="M344 -342Q219 -342 136 -298T14 -174T-10 11Q3 110 50 177T161 297T288 404T400 530T462 710H572Q557 591 510 512T402 376T280 268T175 158T119 14Q105 -99 170 -166T359 -233Q425 -233 493 -206T617 -132T700
-30L809 -75Q733 -198 610 -270T344 -342ZM457 845L482 1034H639L613 845H457Z" />
<glyph unicode="&#xc0;" horiz-adv-x="1330" d="M29 0L725 1446H871L1154 0H1030L947 430H361L153 0H29ZM413 553H929L782 1319L413 553ZM636 1858H482L765 1567H867L636 1858Z" />
<glyph unicode="&#xc1;" horiz-adv-x="1330" d="M29 0L725 1446H871L1154 0H1030L947 430H361L153 0H29ZM413 553H929L782 1319L413 553ZM991 1858H1145L862 1567H760L991 1858Z" />
<glyph unicode="&#xc2;" horiz-adv-x="1330" d="M29 0L725 1446H871L1154 0H1030L947 430H361L153 0H29ZM413 553H929L782 1319L413 553ZM533 1567L784 1772H873L1074 1567H938L819 1691L661 1567H533Z" />
<glyph unicode="&#xc3;" horiz-adv-x="1330" d="M29 0L725 1446H871L1154 0H1030L947 430H361L153 0H29ZM413 553H929L782 1319L413 553ZM597 1649L581 1727Q615 1757 650 1776T733 1796Q775 1796 810 1783T879 1757T955 1743Q993 1743 1021 1757T1079 1791L1095
1703Q1071 1687 1034 1669T940 1651Q893 1651 861 1663T798 1688T728 1701Q682 1701 654 1684T597 1649Z" />
<glyph unicode="&#xc4;" horiz-adv-x="1330" d="M29 0L725 1446H871L1154 0H1030L947 430H361L153 0H29ZM413 553H929L782 1319L413 553ZM906 1646L926 1792H1054L1034 1646H906ZM628 1646L648 1792H777L756 1646H628Z" />
<glyph unicode="&#xc5;" horiz-adv-x="1330" d="M29 0L725 1446H871L1154 0H1030L947 430H361L153 0H29ZM413 553H929L782 1319L413 553ZM816 1576Q740 1576 694 1634T660 1779Q667 1832 698 1875T776 1945T874 1971Q952 1971 998 1914T1032 1775Q1025 1718 994
1673T916 1602T816 1576ZM827 1661Q870 1661 905 1695T947 1774Q953 1824 928 1854T859 1885Q819 1885 784 1855T740 1774Q733 1730 759 1696T827 1661Z" />
<glyph unicode="&#xc6;" horiz-adv-x="1763" d="M-73 0L889 1446H1737L1721 1332H1077L1000 787H1595L1580 674H983L904 114H1573L1557 0H752L815 436H340L50 0H-73ZM408 553H831L943 1345L408 553Z" />
<glyph unicode="&#xc7;" horiz-adv-x="1287" d="M604 -20Q429 -20 318 62T164 305T147 701Q167 881 219 1023T353 1263T548 1414T802 1466Q939 1466 1036 1405T1184 1241T1233 1019H1103Q1098 1109 1062 1184T958 1304T783 1349Q674 1349 588 1306T440 1179T337
975T279 698Q242 392 327 245T618 97Q723 97 803 142T940 264T1025 430H1155Q1134 344 1087 263T968 119T806 18T604 -20ZM510 -404Q464 -404 427 -392T359 -356L393 -291Q412 -310 437 -323T506 -336Q560 -336 587 -315T621 -257Q628 -212 596 -190T491 -166Q482
-166 481 -163T483 -155L573 10H649L586 -112Q645 -117 675 -138T715 -191T721 -254Q714 -304 683 -337T607 -387T510 -404Z" />
<glyph unicode="&#xc8;" horiz-adv-x="1173" d="M134 0L341 1446H1149L1132 1330H443L366 789H997L982 672H350L271 120L983 118L965 0H134ZM564 1858H410L693 1567H795L564 1858Z" />
<glyph unicode="&#xc9;" horiz-adv-x="1173" d="M134 0L341 1446H1149L1132 1330H443L366 789H997L982 672H350L271 120L983 118L965 0H134ZM919 1858H1073L790 1567H688L919 1858Z" />
<glyph unicode="&#xca;" horiz-adv-x="1173" d="M134 0L341 1446H1149L1132 1330H443L366 789H997L982 672H350L271 120L983 118L965 0H134ZM472 1567L723 1772H812L1013 1567H877L758 1691L600 1567H472Z" />
<glyph unicode="&#xcb;" horiz-adv-x="1173" d="M134 0L341 1446H1149L1132 1330H443L366 789H997L982 672H350L271 120L983 118L965 0H134ZM834 1646L854 1792H982L962 1646H834ZM556 1646L576 1792H705L684 1646H556Z" />
<glyph unicode="&#xcc;" horiz-adv-x="538" d="M136 0L340 1446H460L256 0H136ZM240 1858H86L369 1567H471L240 1858Z" />
<glyph unicode="&#xcd;" horiz-adv-x="538" d="M136 0L340 1446H460L256 0H136ZM594 1858H748L465 1567H363L594 1858Z" />
<glyph unicode="&#xce;" horiz-adv-x="538" d="M136 0L340 1446H460L256 0H136ZM148 1567L399 1772H488L689 1567H553L434 1691L276 1567H148Z" />
<glyph unicode="&#xcf;" horiz-adv-x="538" d="M136 0L340 1446H460L256 0H136ZM510 1646L530 1792H658L638 1646H510ZM232 1646L252 1792H381L360 1646H232Z" />
<glyph unicode="&#xd0;" horiz-adv-x="1348" d="M102 671L108 781H744L738 671H102ZM185 0L388 1446Q392 1446 457 1445T602 1444Q733 1443 839 1425T1025 1366T1159 1264T1240 1113T1268 907Q1268 791 1251 679T1195 466T1092 279T936 132T719 35T432 0H185ZM327
116H439Q631 116 765 174T983 337T1104 584T1142 896Q1142 1062 1082 1156T906 1290T626 1330H499L327 116Z" />
<glyph unicode="&#xd1;" horiz-adv-x="1410" d="M134 0L341 1446H449L1041 229L1214 1446H1334L1127 0H1022L428 1222L254 0H134ZM636 1649L620 1727Q654 1757 689 1776T772 1796Q814 1796 849 1783T918 1757T994 1743Q1032 1743 1060 1757T1118 1791L1134 1703Q1110
1687 1073 1669T979 1651Q932 1651 900 1663T837 1688T767 1701Q721 1701 693 1684T636 1649Z" />
<glyph unicode="&#xd2;" horiz-adv-x="1364" d="M607 -20Q431 -20 317 65T158 314T147 717Q181 958 273 1125T505 1379T820 1466Q994 1466 1107 1380T1264 1127T1274 720Q1240 482 1149 317T920 66T607 -20ZM626 97Q764 97 869 164T1044 369T1143 719Q1173 933
1143 1072T1026 1280T802 1349Q596 1349 461 1194T280 719Q250 508 281 370T400 165T626 97ZM653 1858H499L782 1567H884L653 1858Z" />
<glyph unicode="&#xd3;" horiz-adv-x="1364" d="M607 -20Q431 -20 317 65T158 314T147 717Q181 958 273 1125T505 1379T820 1466Q994 1466 1107 1380T1264 1127T1274 720Q1240 482 1149 317T920 66T607 -20ZM626 97Q764 97 869 164T1044 369T1143 719Q1173 933
1143 1072T1026 1280T802 1349Q596 1349 461 1194T280 719Q250 508 281 370T400 165T626 97ZM1008 1858H1162L879 1567H777L1008 1858Z" />
<glyph unicode="&#xd4;" horiz-adv-x="1364" d="M607 -20Q431 -20 317 65T158 314T147 717Q181 958 273 1125T505 1379T820 1466Q994 1466 1107 1380T1264 1127T1274 720Q1240 482 1149 317T920 66T607 -20ZM626 97Q764 97 869 164T1044 369T1143 719Q1173 933
1143 1072T1026 1280T802 1349Q596 1349 461 1194T280 719Q250 508 281 370T400 165T626 97ZM562 1567L813 1772H902L1103 1567H967L848 1691L690 1567H562Z" />
<glyph unicode="&#xd5;" horiz-adv-x="1364" d="M607 -20Q431 -20 317 65T158 314T147 717Q181 958 273 1125T505 1379T820 1466Q994 1466 1107 1380T1264 1127T1274 720Q1240 482 1149 317T920 66T607 -20ZM626 97Q764 97 869 164T1044 369T1143 719Q1173 933
1143 1072T1026 1280T802 1349Q596 1349 461 1194T280 719Q250 508 281 370T400 165T626 97ZM615 1649L599 1727Q633 1757 668 1776T751 1796Q793 1796 828 1783T897 1757T973 1743Q1011 1743 1039 1757T1097 1791L1113 1703Q1089 1687 1052 1669T958 1651Q911
1651 879 1663T816 1688T746 1701Q700 1701 672 1684T615 1649Z" />
<glyph unicode="&#xd6;" horiz-adv-x="1364" d="M607 -20Q431 -20 317 65T158 314T147 717Q181 958 273 1125T505 1379T820 1466Q994 1466 1107 1380T1264 1127T1274 720Q1240 482 1149 317T920 66T607 -20ZM626 97Q764 97 869 164T1044 369T1143 719Q1173 933
1143 1072T1026 1280T802 1349Q596 1349 461 1194T280 719Q250 508 281 370T400 165T626 97ZM924 1646L944 1792H1072L1052 1646H924ZM646 1646L666 1792H795L774 1646H646Z" />
<glyph unicode="&#xd7;" horiz-adv-x="988" d="M173 335L113 411L873 1119L933 1046L173 335ZM761 335L201 1042L284 1116L844 411L761 335Z" />
<glyph unicode="&#xd8;" horiz-adv-x="1384" d="M66 -26L-1 52L187 248Q150 337 142 454T155 717Q189 958 281 1125T512 1379T826 1466Q951 1466 1045 1422T1199 1290L1373 1470L1442 1394L1250 1194Q1286 1104 1294 985T1282 720Q1249 482 1158 317T927 66T614
-20Q488 -20 394 24T241 153L66 -26ZM634 97Q835 97 958 242T1126 687Q1145 804 1146 902T1129 1081L340 251Q425 97 634 97ZM308 363L1097 1193Q1056 1273 985 1311T809 1350Q606 1350 480 1201T307 746Q291 631 291 536T308 363Z" />
<glyph unicode="&#xd9;" horiz-adv-x="1309" d="M598 -20Q435 -20 340 37T213 209T205 496L339 1446H465L326 465Q308 343 334 260T431 136T614 94Q785 94 887 186T1015 465L1154 1446H1273L1135 471Q1113 309 1047 200T870 36T598 -20ZM645 1858H491L774 1567H876L645
1858Z" />
<glyph unicode="&#xda;" horiz-adv-x="1309" d="M598 -20Q435 -20 340 37T213 209T205 496L339 1446H465L326 465Q308 343 334 260T431 136T614 94Q785 94 887 186T1015 465L1154 1446H1273L1135 471Q1113 309 1047 200T870 36T598 -20ZM1000 1858H1154L871 1567H769L1000
1858Z" />
<glyph unicode="&#xdb;" horiz-adv-x="1309" d="M598 -20Q435 -20 340 37T213 209T205 496L339 1446H465L326 465Q308 343 334 260T431 136T614 94Q785 94 887 186T1015 465L1154 1446H1273L1135 471Q1113 309 1047 200T870 36T598 -20ZM554 1567L805 1772H894L1095
1567H959L840 1691L682 1567H554Z" />
<glyph unicode="&#xdc;" horiz-adv-x="1309" d="M598 -20Q435 -20 340 37T213 209T205 496L339 1446H465L326 465Q308 343 334 260T431 136T614 94Q785 94 887 186T1015 465L1154 1446H1273L1135 471Q1113 309 1047 200T870 36T598 -20ZM916 1646L936 1792H1064L1044
1646H916ZM638 1646L658 1792H787L766 1646H638Z" />
<glyph unicode="&#xdd;" horiz-adv-x="1076" d="M407 0L493 621L158 1446H288L571 737L1048 1446H1180L614 619L525 0H407ZM859 1861H1013L730 1570H628L859 1861Z" />
<glyph unicode="&#xde;" horiz-adv-x="1209" d="M1184 755Q1164 609 1089 518T898 385T642 342H310L261 0H135L338 1446H464L422 1138H744Q890 1138 995 1098T1152 973T1184 755ZM1059 755Q1073 854 1034 912T915 996T727 1022H405L326 459H658Q762 459 847 488T988
582T1059 755Z" />
<glyph unicode="&#xdf;" horiz-adv-x="1095" d="M551 -20Q487 -20 419 -1T307 51L370 142Q409 116 449 98T553 79Q667 79 742 138T833 303Q845 384 815 431T732 507T618 557Q575 574 533 595T467 656T451 766Q462 840 510 888T653 986Q693 1009 732 1032T800 1090T838
1181Q847 1257 803 1302T662 1347Q550 1347 467 1272T363 1044L215 0H100L244 1024Q258 1120 295 1197T390 1330T524 1416T692 1446Q802 1446 861 1407T939 1307T949 1180Q939 1102 903 1055T814 976T702 915Q626 874 594 850T556 782Q551 740 575 722T665 679Q710
661 763 637T863 573T935 471T947 314Q931 205 874 131T732 18T551 -20Z" />
<glyph unicode="&#xe0;" horiz-adv-x="1076" d="M354 -20Q260 -20 194 15T99 115T81 271Q106 444 225 525T590 615L789 622L802 713Q818 827 757 889T584 952Q491 951 412 901T302 751H189Q206 831 260 900T402 1012T605 1054Q717 1054 792 1013T901 897T919 718L817
0H713L732 195Q654 69 556 25T354 -20ZM398 80Q452 80 510 101T620 160T706 242T747 336L774 528L609 524Q476 522 390 497T259 419T201 282Q189 187 243 134T398 80ZM443 1446H289L572 1155H674L443 1446Z" />
<glyph unicode="&#xe1;" horiz-adv-x="1076" d="M354 -20Q260 -20 194 15T99 115T81 271Q106 444 225 525T590 615L789 622L802 713Q818 827 757 889T584 952Q491 951 412 901T302 751H189Q206 831 260 900T402 1012T605 1054Q717 1054 792 1013T901 897T919 718L817
0H713L732 195Q654 69 556 25T354 -20ZM398 80Q452 80 510 101T620 160T706 242T747 336L774 528L609 524Q476 522 390 497T259 419T201 282Q189 187 243 134T398 80ZM795 1446H949L666 1155H564L795 1446Z" />
<glyph unicode="&#xe2;" horiz-adv-x="1076" d="M354 -20Q260 -20 194 15T99 115T81 271Q106 444 225 525T590 615L789 622L802 713Q818 827 757 889T584 952Q491 951 412 901T302 751H189Q206 831 260 900T402 1012T605 1054Q717 1054 792 1013T901 897T919 718L817
0H713L732 195Q654 69 556 25T354 -20ZM398 80Q452 80 510 101T620 160T706 242T747 336L774 528L609 524Q476 522 390 497T259 419T201 282Q189 187 243 134T398 80ZM348 1155L599 1360H688L889 1155H753L634 1279L476 1155H348Z" />
<glyph unicode="&#xe3;" horiz-adv-x="1076" d="M354 -20Q260 -20 194 15T99 115T81 271Q106 444 225 525T590 615L789 622L802 713Q818 827 757 889T584 952Q491 951 412 901T302 751H189Q206 831 260 900T402 1012T605 1054Q717 1054 792 1013T901 897T919 718L817
0H713L732 195Q654 69 556 25T354 -20ZM398 80Q452 80 510 101T620 160T706 242T747 336L774 528L609 524Q476 522 390 497T259 419T201 282Q189 187 243 134T398 80ZM402 1237L386 1315Q420 1345 455 1364T538 1384Q580 1384 615 1371T684 1345T760 1331Q798 1331
826 1345T884 1379L900 1291Q876 1275 839 1257T745 1239Q698 1239 666 1251T603 1276T533 1289Q487 1289 459 1272T402 1237Z" />
<glyph unicode="&#xe4;" horiz-adv-x="1076" d="M354 -20Q260 -20 194 15T99 115T81 271Q106 444 225 525T590 615L789 622L802 713Q818 827 757 889T584 952Q491 951 412 901T302 751H189Q206 831 260 900T402 1012T605 1054Q717 1054 792 1013T901 897T919 718L817
0H713L732 195Q654 69 556 25T354 -20ZM398 80Q452 80 510 101T620 160T706 242T747 336L774 528L609 524Q476 522 390 497T259 419T201 282Q189 187 243 134T398 80ZM705 1233L725 1379H853L833 1233H705ZM427 1233L447 1379H576L555 1233H427Z" />
<glyph unicode="&#xe5;" horiz-adv-x="1076" d="M354 -20Q260 -20 194 15T99 115T81 271Q106 444 225 525T590 615L789 622L802 713Q818 827 757 889T584 952Q491 951 412 901T302 751H189Q206 831 260 900T402 1012T605 1054Q717 1054 792 1013T901 897T919 718L817
0H713L732 195Q654 69 556 25T354 -20ZM398 80Q452 80 510 101T620 160T706 242T747 336L774 528L609 524Q476 522 390 497T259 419T201 282Q189 187 243 134T398 80ZM620 1164Q544 1164 498 1222T464 1367Q471 1420 502 1463T580 1533T678 1559Q756 1559 802 1502T836
1363Q829 1306 798 1261T720 1190T620 1164ZM631 1249Q674 1249 709 1283T751 1362Q757 1412 732 1442T663 1473Q623 1473 588 1443T544 1362Q537 1318 563 1284T631 1249Z" />
<glyph unicode="&#xe6;" horiz-adv-x="1760" d="M344 -20Q202 -20 132 57T81 268Q102 413 225 501T578 607L791 625L802 708Q819 822 764 888T586 954Q504 954 426 909T276 771L185 817Q235 892 301 945T446 1026T614 1054Q746 1054 817 1001T906 843Q977 949
1074 1001T1290 1054Q1417 1054 1504 988T1628 795T1639 488L882 487Q872 413 887 341T941 210T1034 117T1160 82Q1248 82 1310 110T1417 182T1499 268L1575 216Q1527 144 1460 91T1310 9T1134 -20Q1029 -20 962 17T856 105T793 199Q790 208 782 199Q739 152 681
102T541 16T344 -20ZM397 79Q485 83 562 119T690 214T751 341L778 533L599 519Q478 509 394 479T262 397T205 275Q193 185 242 130T397 79ZM1530 578Q1544 680 1517 765T1428 903T1274 955Q1185 955 1106 909T972 779T901 580L1530 578Z" />
<glyph unicode="&#xe7;" horiz-adv-x="1035" d="M462 -20Q334 -20 245 39T118 216T105 514Q128 675 193 797T365 986T615 1054Q711 1054 785 1017T903 909T949 734H835Q834 797 806 844T725 919T600 946Q461 946 358 840T224 514Q196 320 258 202T479 83Q551 83
611 110T713 186T773 295H886Q856 193 792 123T643 16T462 -20ZM376 -404Q330 -404 293 -392T225 -356L259 -291Q278 -310 303 -323T372 -336Q426 -336 453 -315T487 -257Q494 -212 462 -190T357 -166Q348 -166 347 -163T349 -155L439 10H515L452 -112Q511 -117
541 -138T581 -191T587 -254Q580 -304 549 -337T473 -387T376 -404Z" />
<glyph unicode="&#xe8;" horiz-adv-x="1074" d="M482 -20Q351 -20 261 42T131 222T115 507Q139 675 207 798T380 987T623 1054Q754 1054 837 994T952 820T961 549L952 487H236Q220 379 241 288T324 141T496 85Q601 85 683 138T797 287H915Q882 185 814 117T659
14T482 -20ZM250 585H847Q862 688 842 771T764 902T607 950Q501 950 426 896T306 757T250 585ZM458 1446H304L587 1155H689L458 1446Z" />
<glyph unicode="&#xe9;" horiz-adv-x="1074" d="M482 -20Q351 -20 261 42T131 222T115 507Q139 675 207 798T380 987T623 1054Q754 1054 837 994T952 820T961 549L952 487H236Q220 379 241 288T324 141T496 85Q601 85 683 138T797 287H915Q882 185 814 117T659
14T482 -20ZM250 585H847Q862 688 842 771T764 902T607 950Q501 950 426 896T306 757T250 585ZM813 1446H967L684 1155H582L813 1446Z" />
<glyph unicode="&#xea;" horiz-adv-x="1074" d="M482 -20Q351 -20 261 42T131 222T115 507Q139 675 207 798T380 987T623 1054Q754 1054 837 994T952 820T961 549L952 487H236Q220 379 241 288T324 141T496 85Q601 85 683 138T797 287H915Q882 185 814 117T659
14T482 -20ZM250 585H847Q862 688 842 771T764 902T607 950Q501 950 426 896T306 757T250 585ZM367 1155L618 1360H707L908 1155H772L653 1279L495 1155H367Z" />
<glyph unicode="&#xeb;" horiz-adv-x="1074" d="M482 -20Q351 -20 261 42T131 222T115 507Q139 675 207 798T380 987T623 1054Q754 1054 837 994T952 820T961 549L952 487H236Q220 379 241 288T324 141T496 85Q601 85 683 138T797 287H915Q882 185 814 117T659
14T482 -20ZM250 585H847Q862 688 842 771T764 902T607 950Q501 950 426 896T306 757T250 585ZM729 1234L749 1380H877L857 1234H729ZM451 1234L471 1380H600L579 1234H451Z" />
<glyph unicode="&#xec;" horiz-adv-x="501" d="M117 0L264 1034H384L236 0H117ZM161 1446H7L290 1155H392L161 1446Z" />
<glyph unicode="&#xed;" horiz-adv-x="515" d="M117 0L264 1034H384L236 0H117ZM516 1446H670L387 1155H285L516 1446Z" />
<glyph unicode="&#xee;" horiz-adv-x="501" d="M117 0L264 1034H384L236 0H117ZM326 1155L577 1360H666L867 1155H731L612 1279L454 1155H326Z" />
<glyph unicode="&#xef;" horiz-adv-x="501" d="M117 0L264 1034H384L236 0H117ZM431 1234L451 1380H579L559 1234H431ZM153 1234L173 1380H302L281 1234H153Z" />
<glyph unicode="&#xf0;" horiz-adv-x="1101" d="M484 -20Q346 -20 254 51T123 244T105 517Q128 677 200 796T380 982T617 1048Q716 1048 779 1020T879 946T932 846Q935 978 906 1075T828 1244T720 1364T603 1449L742 1479Q892 1379 957 1244T1027 930T995 514Q971
361 901 241T725 50T484 -20ZM485 85Q590 85 670 146T801 307T869 522Q888 658 868 753T785 898T617 948Q513 948 431 892T296 736T225 509Q209 398 232 301T319 145T485 85ZM506 1113L520 1224L1092 1447L1077 1337L506 1113Z" />
<glyph unicode="&#xf1;" horiz-adv-x="1092" d="M100 0L247 1034H360L341 885Q373 931 422 969T535 1029T677 1052Q772 1052 842 1011T946 885T960 674L864 0H745L840 666Q860 800 805 871T640 942Q564 942 495 917T378 840T320 709L219 0H100ZM445 1237L429 1315Q463
1345 498 1364T581 1384Q623 1384 658 1371T727 1345T803 1331Q841 1331 869 1345T927 1379L943 1291Q919 1275 882 1257T788 1239Q741 1239 709 1251T646 1276T576 1289Q530 1289 502 1272T445 1237Z" />
<glyph unicode="&#xf2;" horiz-adv-x="1068" d="M464 -20Q335 -20 246 39T119 217T105 513Q127 676 191 797T360 986T608 1054Q737 1054 824 994T949 813T962 513Q941 354 878 234T711 47T464 -20ZM480 85Q574 85 649 134T774 279T842 516Q859 642 840 739T760
892T593 948Q497 948 422 900T296 755T226 516Q210 390 229 293T311 141T480 85ZM416 1446H262L545 1155H647L416 1446Z" />
<glyph unicode="&#xf3;" horiz-adv-x="1068" d="M464 -20Q335 -20 246 39T119 217T105 513Q127 676 191 797T360 986T608 1054Q737 1054 824 994T949 813T962 513Q941 354 878 234T711 47T464 -20ZM480 85Q574 85 649 134T774 279T842 516Q859 642 840 739T760
892T593 948Q497 948 422 900T296 755T226 516Q210 390 229 293T311 141T480 85ZM771 1446H925L642 1155H540L771 1446Z" />
<glyph unicode="&#xf4;" horiz-adv-x="1068" d="M464 -20Q335 -20 246 39T119 217T105 513Q127 676 191 797T360 986T608 1054Q737 1054 824 994T949 813T962 513Q941 354 878 234T711 47T464 -20ZM480 85Q574 85 649 134T774 279T842 516Q859 642 840 739T760
892T593 948Q497 948 422 900T296 755T226 516Q210 390 229 293T311 141T480 85ZM325 1155L576 1360H665L866 1155H730L611 1279L453 1155H325Z" />
<glyph unicode="&#xf5;" horiz-adv-x="1068" d="M464 -20Q335 -20 246 39T119 217T105 513Q127 676 191 797T360 986T608 1054Q737 1054 824 994T949 813T962 513Q941 354 878 234T711 47T464 -20ZM480 85Q574 85 649 134T774 279T842 516Q859 642 840 739T760
892T593 948Q497 948 422 900T296 755T226 516Q210 390 229 293T311 141T480 85ZM378 1237L362 1315Q396 1345 431 1364T514 1384Q556 1384 591 1371T660 1345T736 1331Q774 1331 802 1345T860 1379L876 1291Q852 1275 815 1257T721 1239Q674 1239 642 1251T579
1276T509 1289Q463 1289 435 1272T378 1237Z" />
<glyph unicode="&#xf6;" horiz-adv-x="1068" d="M464 -20Q335 -20 246 39T119 217T105 513Q127 676 191 797T360 986T608 1054Q737 1054 824 994T949 813T962 513Q941 354 878 234T711 47T464 -20ZM480 85Q574 85 649 134T774 279T842 516Q859 642 840 739T760
892T593 948Q497 948 422 900T296 755T226 516Q210 390 229 293T311 141T480 85ZM686 1234L706 1380H834L814 1234H686ZM408 1234L428 1380H557L536 1234H408Z" />
<glyph unicode="&#xf7;" horiz-adv-x="1018" d="M149 673L164 778L928 779L913 675L149 673ZM389 307L416 491H595L570 307H389ZM484 963L509 1148H690L663 963H484Z" />
<glyph unicode="&#xf8;" horiz-adv-x="1019" d="M33 -10L-30 57L977 1040L1040 974L33 -10ZM402 -20Q273 -20 184 39T57 217T43 513Q65 676 129 797T298 986T546 1054Q675 1054 762 994T887 813T900 513Q879 354 816 234T649 47T402 -20ZM418 85Q512 85 587 134T712
279T780 516Q797 642 778 739T698 892T531 948Q435 948 360 900T234 755T165 516Q148 390 168 293T249 141T418 85Z" />
<glyph unicode="&#xf9;" horiz-adv-x="1086" d="M453 -20Q373 -19 308 3T199 70T136 182T130 340L227 1034H347L251 348Q234 231 290 159T482 86Q604 86 687 154T791 362L886 1034H1005L859 0H760L775 193Q748 123 701 76T590 4T453 -20ZM454 1446H300L583 1155H685L454
1446Z" />
<glyph unicode="&#xfa;" horiz-adv-x="1086" d="M453 -20Q373 -19 308 3T199 70T136 182T130 340L227 1034H347L251 348Q234 231 290 159T482 86Q604 86 687 154T791 362L886 1034H1005L859 0H760L775 193Q748 123 701 76T590 4T453 -20ZM809 1446H963L680 1155H578L809
1446Z" />
<glyph unicode="&#xfb;" horiz-adv-x="1086" d="M453 -20Q373 -19 308 3T199 70T136 182T130 340L227 1034H347L251 348Q234 231 290 159T482 86Q604 86 687 154T791 362L886 1034H1005L859 0H760L775 193Q748 123 701 76T590 4T453 -20ZM363 1155L614 1360H703L904
1155H768L649 1279L491 1155H363Z" />
<glyph unicode="&#xfc;" horiz-adv-x="1086" d="M453 -20Q373 -19 308 3T199 70T136 182T130 340L227 1034H347L251 348Q234 231 290 159T482 86Q604 86 687 154T791 362L886 1034H1005L859 0H760L775 193Q748 123 701 76T590 4T453 -20ZM724 1234L744 1380H872L852
1234H724ZM446 1234L466 1380H595L574 1234H446Z" />
<glyph unicode="&#xfd;" horiz-adv-x="974" d="M104 -330Q28 -330 3 -320T-23 -310L-11 -227L90 -228Q155 -229 196 -212T262 -166T303 -106L362 14L130 1034H254L443 166L874 1034H990L413 -118Q372 -198 324 -244T221 -310T104 -330ZM756 1446H910L627 1155H525L756
1446Z" />
<glyph unicode="&#xfe;" horiz-adv-x="1113" d="M55 -322L306 1446H423L345 885Q367 908 408 948T517 1021T679 1054Q793 1054 876 997T996 824T1010 534Q987 363 917 239T741 48T508 -20Q419 -20 358 10T259 78Q245 93 239 90T230 65L175 -322H55ZM496 78Q592
78 673 130T810 283T887 529Q907 677 877 771T781 909T631 954Q550 954 483 916T373 821T320 710L252 216Q303 154 361 116T496 78Z" />
<glyph unicode="&#xff;" horiz-adv-x="974" d="M104 -330Q28 -330 3 -320T-23 -310L-11 -227L90 -228Q155 -229 196 -212T262 -166T303 -106L362 14L130 1034H254L443 166L874 1034H990L413 -118Q372 -198 324 -244T221 -310T104 -330ZM671 1234L691 1380H819L799
1234H671ZM393 1234L413 1380H542L521 1234H393Z" />
<glyph unicode="&#x2013;" horiz-adv-x="1016" d="M117 449L132 557L895 559L881 451L117 449Z" />
<glyph unicode="&#x2014;" horiz-adv-x="2199" d="M1828 559L1813 451L367 449L382 557L1828 559Z" />
<glyph unicode="&#x2018;" horiz-adv-x="452" d="M487 1502L346 1268L422 1266L396 1081H202L225 1241L414 1502H487Z" />
<glyph unicode="&#x2019;" horiz-adv-x="429" d="M171 1025L312 1259L236 1261L262 1446H456L433 1286L244 1025H171Z" />
<glyph unicode="&#x201a;" horiz-adv-x="434" d="M-23 -234L111 -1L38 1L64 188H253L230 27L49 -234H-23Z" />
<glyph unicode="&#x201c;" horiz-adv-x="780" d="M812 1480L671 1244L747 1242L721 1055H527L550 1216L739 1480H812ZM485 1480L344 1244L420 1242L394 1055H200L223 1216L412 1480H485Z" />
<glyph unicode="&#x201d;" horiz-adv-x="744" d="M486 1025L627 1259L551 1261L577 1446H771L748 1286L559 1025H486ZM171 1025L312 1259L236 1261L262 1446H456L433 1286L244 1025H171Z" />
<glyph unicode="&#x201e;" horiz-adv-x="759" d="M302 -234L436 -1L363 1L389 188H578L555 27L374 -234H302ZM-23 -234L111 -1L38 1L64 188H253L230 27L49 -234H-23Z" />
<glyph unicode="&#x2022;" horiz-adv-x="595" d="M326 570Q280 570 243 592T184 652T162 736Q162 781 184 818T243 878T326 900Q372 900 409 878T468 819T490 736Q490 690 469 653T410 593T326 570Z" />
<glyph unicode="&#x2039;" horiz-adv-x="498" d="M272 147L67 502L378 873H451L191 502L345 147H272Z" />
<glyph unicode="&#x203a;" horiz-adv-x="497" d="M46 147L300 502L146 873H218L423 502L115 147H46Z" />
</font>
</defs>
</svg>
