<svg xmlns="http://www.w3.org/2000/svg" viewBox="0 0 267 18"><defs><style>.a{fill:#fff;}.b{fill:#ed6d0b;}</style></defs><title>Princeton University logo</title><path d="M140.509,3.065a.513.513,0,0,0-.048-.227h-.374c-.814,0-1.333.031-2.8.031-.5,0-1.252-.031-1.432-.031h-.421c-.049.031-.066.211-.066.277a.433.433,0,0,0,.082.278,6.81,6.81,0,0,1,1.674.471,3.2,3.2,0,0,1,.471,1.661c.016.245.033.488.033,1.156v3.4a6.01,6.01,0,0,1-.033.7c-.275-.31-.665-.9-1.316-1.63l-5.431-6.025a1.082,1.082,0,0,0-.244-.212c-.132,0-.359-.016-.489-.016-1.041,0-2.928-.05-3.2-.05a.605.605,0,0,0-.065.23,2.345,2.345,0,0,0,.049.31,2.222,2.222,0,0,1,1.22.618,5.525,5.525,0,0,1,.863,1.027,1.456,1.456,0,0,1,.064.52c0,.846-.049,2.036-.049,3.175v3.306a7.26,7.26,0,0,1-.1,1.238,3.386,3.386,0,0,1-1.709.83.975.975,0,0,0-.063.294c0,.048.015.211.048.228h.309c.325,0,1.074-.048,1.561-.048.716,0,1.2.048,1.871.048h.975c.067-.017.081-.213.081-.277a.732.732,0,0,0-.047-.261,3.116,3.116,0,0,1-1.952-1.009,9.114,9.114,0,0,1-.212-2.021c0-.521-.017-1.237-.017-2.2,0-1.287.017-2.411.033-2.98.1.113.212.259.293.357l7.512,8.453a.929.929,0,0,0,.454.1.377.377,0,0,0,.2-.033,1.831,1.831,0,0,0,.147-.733c0-.471-.016-.961-.016-1.2V6.03c0-2.037.96-2.606,2.083-2.656a.718.718,0,0,0,.062-.309m-18.637,5.18c0,2.459-.681,4.624-1.608,5.391a2.646,2.646,0,0,1-1.725.586,2.436,2.436,0,0,1-2.164-1.092,8.672,8.672,0,0,1-.96-4.235c0-2.263.585-4.038,1.627-4.9a2.591,2.591,0,0,1,1.691-.634,2.7,2.7,0,0,1,2.211,1.124,6.274,6.274,0,0,1,.928,3.762m2.945.31a5.459,5.459,0,0,0-2.895-5.065,6.292,6.292,0,0,0-3.09-.832,6.617,6.617,0,0,0-5.483,3.03,6.23,6.23,0,0,0-.943,3.29,6.073,6.073,0,0,0,2.326,4.771,6.1,6.1,0,0,0,3.709,1.173,6.727,6.727,0,0,0,2.472-.473,5.83,5.83,0,0,0,2.261-1.547,6.3,6.3,0,0,0,1.643-4.347M110.519,6.5V3.179c0-.243-.1-.31-.342-.31-.488,0-3.058.067-5.66.067-2.018,0-3.692-.033-4.6-.033h-1.2c-.211,0-.277.048-.277.276V6.291a.487.487,0,0,0,.261.064,1.321,1.321,0,0,0,.358-.033A5.477,5.477,0,0,1,101.329,3.6c.487-.05,1.448-.066,1.707-.066.017.18.033.749.05,1.433.015,1.172.015,1.678.015,4.445,0,2.4-.015,3.47-.048,3.731-.065.456.016.8-1.935.879a.916.916,0,0,0-.051.375,1.347,1.347,0,0,0,.017.261h.635c.6,0,2.016-.065,2.6-.065.472,0,1.985.048,2.977.048h.456a.843.843,0,0,0,.048-.342.582.582,0,0,0-.066-.293,3.371,3.371,0,0,1-1.674-.309,5.051,5.051,0,0,1-.146-1.222c-.019-1.759-.034-2.426-.034-3.6,0-1.515.015-2.541.015-5.358.23,0,.75-.016,1.237,0a3.178,3.178,0,0,1,1.936,1.238,8.123,8.123,0,0,1,.863,1.775.8.8,0,0,0,.276.033.854.854,0,0,0,.309-.066M96.5,11.8a3.5,3.5,0,0,0-.018-.474.357.357,0,0,0-.242-.049,1.287,1.287,0,0,0-.359.034A6.239,6.239,0,0,1,94.09,13.8a2.5,2.5,0,0,1-1.219.18H91.536a5.963,5.963,0,0,1-1.072-.082c-.245-.049-.5-.439-.619-.7a1.716,1.716,0,0,1-.178-1.026V8.6h.6a2.581,2.581,0,0,1,.992.228,1.511,1.511,0,0,1,.732.683,5.721,5.721,0,0,1,.277,1.354,1.113,1.113,0,0,0,.422.064.571.571,0,0,0,.327-.082c0-.439-.1-1.628-.1-2.28,0-.814.114-1.938.162-2.525a.7.7,0,0,0-.324-.064,1.2,1.2,0,0,0-.423.049c-.05.228-.228.911-.261.961a1.971,1.971,0,0,1-1.107.847,4.209,4.209,0,0,1-.942.129h-.342V6.453c0-1.563.033-2.068.048-2.362.018-.2.051-.407.066-.553a7.022,7.022,0,0,1,.977-.032c.943,0,1.381.016,1.528.016a1.834,1.834,0,0,1,1.041.325A6.963,6.963,0,0,1,94.9,5.868a1.328,1.328,0,0,0,.34.031c.1,0,.115-.031.246-.1,0-.993-.066-2.279-.1-2.686-.015-.164-.048-.212-.374-.212-.13,0-.748-.034-1.4-.034-.927,0-1.3.018-2.715.018-.765,0-2.343.016-3.01.016-.976,0-1.805-.034-2.229-.034h-.553a.56.56,0,0,0-.082.262.749.749,0,0,0,.082.326,8.071,8.071,0,0,1,1.188.179,1.342,1.342,0,0,1,.587,1.058c.031.344.048,1.287.048,2.036v3.355c0,.685-.017,1.677-.034,2.085a4.667,4.667,0,0,1-.357,1.547,4.318,4.318,0,0,1-1.463.245A.909.909,0,0,0,85,14.32a.587.587,0,0,0,.082.292h.536c.52,0,2.44-.048,2.878-.048.408,0,1.188.033,2.132.033.52,0,2.049.1,5.335.1a1.428,1.428,0,0,0,.44-.032.523.523,0,0,0,.065-.261c.032-.325.032-1.287.032-2.605m-13.761.569a.54.54,0,0,0-.553-.391c-.033,0-.081.016-.113.016A3.839,3.839,0,0,1,78.8,13.9a3.563,3.563,0,0,1-3.286-2.149,9.037,9.037,0,0,1-.5-2.965,7.172,7.172,0,0,1,.487-2.85c.717-1.889,1.757-2.475,3.026-2.475a3.326,3.326,0,0,1,2.6,1.466,7.263,7.263,0,0,1,.831,1.971,1.606,1.606,0,0,0,.357.047A.82.82,0,0,0,82.7,6.8c-.015-.18-.178-1.433-.178-1.825,0-.488.129-1.287.129-1.6a1.34,1.34,0,0,0-.634-.177,3.231,3.231,0,0,0-.553.667,5.351,5.351,0,0,0-3.61-1.157,5.546,5.546,0,0,0-4.083,1.614,6.183,6.183,0,0,0-1.741,4.591,5.959,5.959,0,0,0,2.293,4.87,6.471,6.471,0,0,0,3.79,1.091,5.042,5.042,0,0,0,4.165-1.743,3.15,3.15,0,0,0,.455-.765m-12.655-9.3a.528.528,0,0,0-.049-.227h-.374c-.814,0-1.334.031-2.8.031-.5,0-1.253-.031-1.432-.031h-.423c-.048.031-.065.211-.065.277a.438.438,0,0,0,.081.278,6.786,6.786,0,0,1,1.674.471,3.18,3.18,0,0,1,.474,1.661c.015.245.031.488.031,1.156v3.4a6.4,6.4,0,0,1-.031.7c-.278-.31-.667-.9-1.319-1.63L60.42,3.131a1.082,1.082,0,0,0-.244-.212c-.13,0-.358-.016-.487-.016-1.042,0-2.929-.05-3.2-.05a.607.607,0,0,0-.066.23,2.359,2.359,0,0,0,.05.31,2.219,2.219,0,0,1,1.219.618,5.442,5.442,0,0,1,.862,1.027,1.452,1.452,0,0,1,.065.52c0,.846-.048,2.036-.048,3.175v3.306a7.019,7.019,0,0,1-.1,1.238,3.378,3.378,0,0,1-1.707.83.95.95,0,0,0-.065.294c0,.048.017.211.048.228h.309c.326,0,1.075-.048,1.562-.048.717,0,1.2.048,1.871.048h.976c.065-.017.082-.213.082-.277a.78.78,0,0,0-.048-.261,3.123,3.123,0,0,1-1.954-1.009,9.253,9.253,0,0,1-.21-2.021c0-.521-.018-1.237-.018-2.2,0-1.287.018-2.411.033-2.98.1.113.212.259.294.357l7.514,8.453a.928.928,0,0,0,.455.1.375.375,0,0,0,.2-.033,1.856,1.856,0,0,0,.146-.733c0-.471-.014-.961-.014-1.2V6.03c0-2.037.958-2.606,2.081-2.656a.707.707,0,0,0,.065-.309M53.993,14.352a1.041,1.041,0,0,0-.047-.326,11.417,11.417,0,0,1-1.2-.146,2.56,2.56,0,0,1-.553-1.254c-.017-.781-.034-2.395-.034-3.908V4.71a1.3,1.3,0,0,1,.292-.879A2.757,2.757,0,0,1,53.9,3.408a1.012,1.012,0,0,0,.049-.309.483.483,0,0,0-.082-.261h-.471c-.683,0-2.278.081-2.83.081-.341,0-1.937-.05-2.651-.066h-.36a.411.411,0,0,0-.08.278,2.436,2.436,0,0,0,.032.31,3.474,3.474,0,0,1,1.27.227,1.81,1.81,0,0,1,.537,1.385c.015.31.032.977.047,2.476.017.814.034,1.954.034,2.9,0,.472-.034,1.531-.049,2.1a2.763,2.763,0,0,1-.228.976c-.2.163-.39.457-1.578.537a1.229,1.229,0,0,0-.048.343c0,.129.031.2.031.277H47.8c.65,0,2.277-.081,3.122-.081.245,0,1.936.048,2.473.048h.537a.619.619,0,0,0,.063-.277m-13.044-8.5a2.539,2.539,0,0,1-1.48,2.362,5.524,5.524,0,0,1-1.334.13,3.864,3.864,0,0,1-.6-.033l-.017-1.385v-3a.521.521,0,0,1,.1-.359,1.632,1.632,0,0,1,.683-.1c1.267,0,1.823.114,2.277.88a2.894,2.894,0,0,1,.374,1.5m4.717,8.517a.783.783,0,0,0-.082-.342,2.52,2.52,0,0,1-1.072-.211,3.521,3.521,0,0,1-.277-.408,16.982,16.982,0,0,0-.7-1.872,6.1,6.1,0,0,0-1.2-1.939,5.088,5.088,0,0,0-1.219-.536c-.261-.1-.473-.18-.669-.262a6.03,6.03,0,0,1,.669-.1A2.893,2.893,0,0,0,42.9,8.1,2.572,2.572,0,0,0,43.91,5.981a3.129,3.129,0,0,0-2.034-2.964,7.946,7.946,0,0,0-1.951-.179c-1.22,0-2.928.113-3.742.113-.244,0-1.659-.032-2.229-.032-.243,0-.861-.032-.959-.032a.985.985,0,0,0-.081.31,1.851,1.851,0,0,0,.033.293c.276.032.779.1,1.041.146a1.931,1.931,0,0,1,.684.879c.079.523.1,1.857.1,4.153,0,1.661.017,3.583-.065,4.2a1.25,1.25,0,0,1-.668,1.093c-.211.031-.6.1-.927.114a.828.828,0,0,0-.081.325,1.045,1.045,0,0,0,.066.261c.227,0,2.716-.05,3.237-.05,1.041,0,1.92.05,2.847.05a.713.713,0,0,0,.065-.246,1.006,1.006,0,0,0-.065-.34c-.326-.034-.733-.131-.911-.164a1.219,1.219,0,0,1-.7-1.156l-.017-3.763a4.005,4.005,0,0,1,.423-.015,1.62,1.62,0,0,1,.862.261,3.116,3.116,0,0,1,1.287,1.188,9.985,9.985,0,0,1,1.023,3.5c.049.343.179.636.488.669.13.015.992.048,1.61.048h2.327a.435.435,0,0,0,.1-.277M28,5.932a2.658,2.658,0,0,1-.83,2.035,2.631,2.631,0,0,1-1.692.441,5.6,5.6,0,0,1-.7-.033c-.129-.016-.21-.032-.21-.114l.015-4.771a6.83,6.83,0,0,1,.944-.082c1.105,0,1.79.276,2.114.961A3.467,3.467,0,0,1,28,5.932M30.912,6a3.12,3.12,0,0,0-1.739-2.834,8.131,8.131,0,0,0-2.911-.374c-1.254,0-3.206.1-4.068.1-.6,0-1.512-.065-2.017-.065a.606.606,0,0,0-.081.261.793.793,0,0,0,.049.325c.309.1.813.178,1.139.26a1.394,1.394,0,0,1,.438.928c.05.571.081,1.288.081,2.525,0,3.436-.014,5.244-.065,5.635a1.383,1.383,0,0,1-.927,1.156,9.336,9.336,0,0,1-.943.164,1.827,1.827,0,0,0-.032.34.449.449,0,0,0,.048.229c.521,0,2.05-.064,2.636-.064,1.446,0,2.929.064,3.529.064h.407a.464.464,0,0,0,.049-.26.805.805,0,0,0-.033-.294,2.655,2.655,0,0,1-1.528-.521,1.386,1.386,0,0,1-.326-.961L24.57,9.027c.975.064,2.016.1,2.586.1a6.157,6.157,0,0,0,1.888-.294A2.985,2.985,0,0,0,30.912,6"/><path d="M267,2.936c0-.1-.065-.131-.1-.2-.667,0-1.545.049-1.887.049-.829,0-1.838-.065-2.278-.065a.358.358,0,0,0-.063.2.622.622,0,0,0,.032.2c.471.1,1.154.211,1.285.439a1.184,1.184,0,0,1,.147.635,1.617,1.617,0,0,1-.1.6c-.146.407-.456,1.042-.9,1.938-.747,1.515-1.219,2.459-1.479,2.834-.423-.716-1.367-2.606-1.594-3.094l-.911-1.987a1.462,1.462,0,0,1-.065-.44,1.052,1.052,0,0,1,.065-.423c.147-.294.651-.325,1.333-.407a.7.7,0,0,0,.05-.246c0-.114-.05-.08-.1-.162h-.293c-1.09,0-.766.048-2.635.048-.8,0-1.757-.048-1.887-.048-.065.115-.1.131-.1.244a.352.352,0,0,0,.064.2c1.09.261,1.415.457,1.528.669L259.973,9.5a6.339,6.339,0,0,1,.52,1.221,9.07,9.07,0,0,1,.131,1.955,1.378,1.378,0,0,1-.522,1.253,7.627,7.627,0,0,1-1.3.212.389.389,0,0,0-.082.229.743.743,0,0,0,.048.2c.832,0,1.693-.017,2.182-.017.34,0,.86.017,1.821.034.553.016.976.031,1.269.031a.492.492,0,0,0,.081-.211.36.36,0,0,0-.065-.212,3.942,3.942,0,0,1-1.415-.325,1.259,1.259,0,0,1-.424-1.042l-.129-2.444a.946.946,0,0,1,.064-.39,2.446,2.446,0,0,1,.18-.457l2.5-4.967a3.388,3.388,0,0,1,1.04-1.092,4.56,4.56,0,0,1,1.058-.325A.592.592,0,0,0,267,2.936M253.858,6.291V3.131c0-.244-.1-.309-.343-.309-.488,0-2.732.065-5.335.065-2.017,0-3.367-.034-4.278-.034h-1.2c-.213,0-.277.05-.277.278V6.079a.281.281,0,0,0,.2.064.422.422,0,0,0,.195-.032c.634-1.417.959-2.166,2.049-2.718.488-.05,2.2-.067,2.457-.067.015.18.032.749.048,1.434.016,1.172.016,1.806.016,4.575,0,2.395-.016,3.632-.049,3.892-.065.457.017.8-1.935.881a.523.523,0,0,0-.049.277.777.777,0,0,0,.017.2H246c.6,0,1.4-.067,1.985-.067.472,0,1.368.05,2.359.05h.456a.446.446,0,0,0,.048-.244.383.383,0,0,0-.065-.229,3.363,3.363,0,0,1-1.675-.309,5.01,5.01,0,0,1-.147-1.221c-.015-1.76-.033-2.59-.033-3.762,0-1.516.018-2.671.018-5.489.227,0,1.43-.015,1.918,0A2.928,2.928,0,0,1,252.7,4.548a5.249,5.249,0,0,1,.732,1.775.647.647,0,0,0,.245.032.306.306,0,0,0,.179-.064m-13.517,8.044a.536.536,0,0,0-.049-.227,12.042,12.042,0,0,1-1.205-.146,2.569,2.569,0,0,1-.552-1.256c-.017-.781-.032-2.556-.032-4.07V4.5a1.287,1.287,0,0,1,.293-.878,2.746,2.746,0,0,1,1.447-.423.519.519,0,0,0,.049-.212.274.274,0,0,0-.082-.2h-.471c-.683,0-1.659.081-2.213.081-.341,0-1.318-.048-2.034-.065h-.356a.233.233,0,0,0-.082.212,1.071,1.071,0,0,0,.032.212,3.448,3.448,0,0,1,1.269.228,1.8,1.8,0,0,1,.537,1.385c.016.309.032,1.139.049,2.637.017.814.032,1.922.032,2.867,0,.472-.032,1.693-.049,2.262a2.788,2.788,0,0,1-.227.978c-.2.164-.391.456-1.578.538a.647.647,0,0,0-.05.245c0,.13.033.13.033.212h.277c.65,0,1.658-.082,2.506-.082.243,0,1.317.048,1.854.048h.536a.4.4,0,0,0,.066-.212m-8.036-3a3.027,3.027,0,0,0-1.838-2.867,9.025,9.025,0,0,0-1.805-.65,11.84,11.84,0,0,1-2.359-.9,1.95,1.95,0,0,1-.961-1.774,2.155,2.155,0,0,1,2.295-1.906,2.723,2.723,0,0,1,2.227,1.14,8.313,8.313,0,0,1,1.009,1.856.6.6,0,0,0,.163.034.527.527,0,0,0,.358-.164,12.822,12.822,0,0,1-.131-1.465,8.724,8.724,0,0,1,.146-1.272.5.5,0,0,0-.486-.227,3.6,3.6,0,0,0-.635.586,4.067,4.067,0,0,0-2.764-1.009,3.185,3.185,0,0,0-3.434,3.11,3.277,3.277,0,0,0,.6,1.792,3.507,3.507,0,0,0,1.576,1.188c.474.2,2.588.832,2.879.946,1.3.505,1.791.945,1.791,2.1a2.542,2.542,0,0,1-.716,1.645,2.27,2.27,0,0,1-1.806.766,3.645,3.645,0,0,1-2.732-1.206,7.71,7.71,0,0,1-1.106-2.2.548.548,0,0,0-.228-.033.579.579,0,0,0-.31.1c0,.212.065,1.287.065,1.612a6.621,6.621,0,0,1-.179,1.449.623.623,0,0,0,.521.327,2.356,2.356,0,0,1,.813-.521.773.773,0,0,1,.39.145,4.7,4.7,0,0,0,2.718.815c2.293,0,3.936-1.156,3.936-3.42M217.91,5.72a2.63,2.63,0,0,1-1.79,2.427,8.632,8.632,0,0,1-1.692.13c-.194,0-.748,0-.992-.032l-.016-1.433V3.733c0-.211.049-.325.114-.374a5.308,5.308,0,0,1,1.138-.1c1.53,0,2.229.147,2.781.944a2.57,2.57,0,0,1,.457,1.515m3.415,8.631a.437.437,0,0,0-.081-.243,2.5,2.5,0,0,1-1.073-.212,3.549,3.549,0,0,1-.277-.407,21.138,21.138,0,0,0-.684-2.036,6.121,6.121,0,0,0-1.2-1.939,4.555,4.555,0,0,0-1.173-.536c-.259-.1-.47-.179-.666-.261a5.968,5.968,0,0,1,.666-.1,2.992,2.992,0,0,0,1.726-.6,2.594,2.594,0,0,0,1.073-2.1A3.11,3.11,0,0,0,217.6,2.967a7.972,7.972,0,0,0-1.952-.178c-1.221,0-2.131.114-2.945.114-.245,0-1.04-.033-1.61-.033-.244,0-.862-.032-.96-.032-.049.113-.08.147-.08.211a1.1,1.1,0,0,0,.031.228c.278.033.781.1,1.041.147a1.927,1.927,0,0,1,.684.879c.081.521.1,1.988.1,4.283,0,1.662.016,3.747-.067,4.366a1.241,1.241,0,0,1-.666,1.09,9.3,9.3,0,0,1-.927.115.419.419,0,0,0-.081.228.647.647,0,0,0,.065.2c.227,0,2.1-.05,2.619-.05,1.04,0,1.3.05,2.228.05a.407.407,0,0,0,.065-.18.48.48,0,0,0-.065-.244c-.325-.033-.732-.131-.911-.164a1.22,1.22,0,0,1-.7-1.155l-.016-4.072c.129-.016.6-.016.732-.016a3.006,3.006,0,0,1,1.3.228,3.679,3.679,0,0,1,1.595,1.319,10.237,10.237,0,0,1,1.024,3.55c.049.342.178.636.487.667a5.954,5.954,0,0,0,.945.05h1.69a.285.285,0,0,0,.1-.213m-13.647-2.475a3.889,3.889,0,0,0-.016-.471.36.36,0,0,0-.245-.05.46.46,0,0,0-.211.034,4.31,4.31,0,0,1-1.674,2.491,3.064,3.064,0,0,1-1.384.18h-1.821a7.617,7.617,0,0,1-1.073-.082c-.244-.05-.5-.44-.619-.7a2.149,2.149,0,0,1-.179-1.123V8.441h.52a3.207,3.207,0,0,1,1.383.227,1.971,1.971,0,0,1,.878.7,5.63,5.63,0,0,1,.229,1.351.407.407,0,0,0,.26.066.388.388,0,0,0,.26-.081c0-.44-.1-1.629-.1-2.281,0-.813.113-1.808.162-2.394a.419.419,0,0,0-.26-.064.478.478,0,0,0-.261.048c-.048.227-.18.911-.211.96a2.348,2.348,0,0,1-1.253.864,5.146,5.146,0,0,1-1.333.129h-.261V6.373c0-1.565.033-2.2.049-2.493.017-.2.048-.408.065-.554.147-.016.618-.031,1.366-.031.944,0,1.643.015,1.789.015a1.839,1.839,0,0,1,1.041.326,4.131,4.131,0,0,1,1.449,2.02.45.45,0,0,0,.194.032c.1,0,.115-.032.245-.1,0-.994-.065-2.118-.1-2.525-.016-.162-.049-.212-.374-.212-.13,0-.748-.031-1.4-.031-.927,0-1.3.016-2.717.016-.764,0-2.115.015-2.781.015-.977,0-1.188-.031-1.611-.031h-.553a.335.335,0,0,0-.082.195.387.387,0,0,0,.082.228,8.215,8.215,0,0,1,1.187.179c.228.2.439.244.585,1.026.033.342.05,1.449.05,2.2V10c0,.684-.017,1.808-.033,2.215a4.91,4.91,0,0,1-.357,1.58,4.293,4.293,0,0,1-1.466.243.547.547,0,0,0-.079.261.393.393,0,0,0,.079.228h.539c.52,0,1.821-.048,2.26-.048.406,0,.959.031,1.9.031.522,0,2.05.1,5.337.1a1.422,1.422,0,0,0,.439-.031.538.538,0,0,0,.064-.261c.033-.327.033-1.124.033-2.444M195.641,2.985c0-.065-.016-.163-.082-.18h-.553c-.389,0-1.008.033-1.285.033-1.316,0-1.788-.082-1.984-.082h-.293c-.031.082-.081.131-.081.211s.033.115.033.18a5.906,5.906,0,0,1,1.123.246,1.524,1.524,0,0,1,.406,1.026,6.2,6.2,0,0,1-.391,1.48l-2.618,6.449L186.7,4.189a1.222,1.222,0,0,1,.536-.912,7.272,7.272,0,0,1,1.058-.13.591.591,0,0,0,.065-.227c0-.067-.016-.164-.081-.18h-.407c-.5,0-1.269.065-2.132.065-.373,0-1.1-.032-1.82-.032h-.635a.343.343,0,0,0-.065.194.359.359,0,0,0,.048.2,5.6,5.6,0,0,1,1.368.555,28.589,28.589,0,0,1,1.334,2.964l1.349,3.256c1.123,2.7,1.789,4.511,1.87,4.821.082.049,0,.1.146.1s.132-.032.163-.113l4.2-10.1a3.237,3.237,0,0,1,.586-.928,2.561,2.561,0,0,1,1.3-.521.773.773,0,0,0,.066-.212m-14.249,11.35a.521.521,0,0,0-.048-.227,11.954,11.954,0,0,1-1.2-.146,2.569,2.569,0,0,1-.554-1.256c-.015-.781-.032-2.556-.032-4.07V4.5a1.3,1.3,0,0,1,.293-.878,2.746,2.746,0,0,1,1.447-.423.5.5,0,0,0,.05-.212.283.283,0,0,0-.081-.2h-.473c-.683,0-1.659.081-2.212.081-.341,0-1.317-.048-2.033-.065h-.358a.238.238,0,0,0-.082.212,1.17,1.17,0,0,0,.034.212,3.445,3.445,0,0,1,1.268.228,1.789,1.789,0,0,1,.536,1.385c.017.309.034,1.139.05,2.637.016.814.032,1.922.032,2.867,0,.472-.032,1.693-.048,2.262a2.762,2.762,0,0,1-.229.978c-.193.164-.389.456-1.577.538a.663.663,0,0,0-.048.245c0,.13.031.13.031.212h.278c.649,0,1.659-.082,2.5-.082.244,0,1.318.048,1.854.048h.537a.391.391,0,0,0,.065-.212M174.039,2.951a.272.272,0,0,0-.048-.162h-.374c-.814,0-1.171.033-2.635.033-.5,0-1.252-.033-1.432-.033h-.423c-.048.033-.063.147-.063.212a.208.208,0,0,0,.079.179,6.913,6.913,0,0,1,1.677.472,3.187,3.187,0,0,1,.471,1.661c.015.245.034.488.034,1.157v4.837a6.191,6.191,0,0,1-.034.7c-.275-.31-.749-.913-1.382-1.662l-6.215-7.264a1.055,1.055,0,0,0-.243-.212c-.131,0-.293-.017-.422-.017-1.043,0-1.952-.048-2.23-.048a.33.33,0,0,0-.049.162,1.153,1.153,0,0,0,.034.213,2.8,2.8,0,0,1,1.251.456,4.855,4.855,0,0,1,.8.96,1.45,1.45,0,0,1,.064.521c0,.849-.048,2.4-.048,3.536v3.468a7.249,7.249,0,0,1-.1,1.238,3.394,3.394,0,0,1-1.708.83.471.471,0,0,0-.064.2c0,.048.016.146.048.162h.31c.324,0,1.074-.048,1.56-.048.716,0,1.041.048,1.708.048h.977c.064-.016.081-.146.081-.212a.328.328,0,0,0-.048-.162,3.126,3.126,0,0,1-1.952-1.01,9.575,9.575,0,0,1-.212-2.052c0-.521-.017-1.368-.017-2.329,0-1.286.017-3.062.033-3.631.1.114.244.294.357.423l7.712,9.038c.079.082.113.1.195.1s.032,0,.1-.031a2.491,2.491,0,0,0,.081-.735c0-.472-.016-.96-.016-1.2V5.818c0-2.036.96-2.6,2.082-2.655a.353.353,0,0,0,.064-.212m-15.061.083a.338.338,0,0,0-.082-.212h-.471c-.505,0-1.188.031-1.774.031-.65,0-1.382-.031-1.854-.031h-.586a.389.389,0,0,0-.064.212.551.551,0,0,0,.048.211c.066,0,1.254.016,1.464.309a4.047,4.047,0,0,1,.635,1.206,10.614,10.614,0,0,1,.131,1.791c0,1.385,0,2.313-.017,2.8a8.78,8.78,0,0,1-.293,2.166,2.974,2.974,0,0,1-3.189,2.116,4.45,4.45,0,0,1-1.9-.407,2.749,2.749,0,0,1-1.578-2.051l-.082-4.885L149.348,4.3c0-.374.472-.717.634-.91a7.355,7.355,0,0,1,1.252-.164A.477.477,0,0,0,151.316,3a.277.277,0,0,0-.114-.212l-.618.016c-.6.017-1.4.033-1.9.033-.78,0-1.383-.016-1.87-.016h-.683a.277.277,0,0,0-.081.227.258.258,0,0,0,.064.2c.52.065.863.114,1.09.163a1.372,1.372,0,0,1,.571.717c.014.212.047.732.047,1.759V9.792a9.915,9.915,0,0,0,.163,2.182,3.228,3.228,0,0,0,1.415,2,5.327,5.327,0,0,0,2.976.781,5.606,5.606,0,0,0,2.8-.668,3.332,3.332,0,0,0,1.61-2.166,7.448,7.448,0,0,0,.259-1.937V6.86c0-.585.033-1.32.033-1.611a3.294,3.294,0,0,1,.488-1.792,6.493,6.493,0,0,1,1.35-.228.4.4,0,0,0,.066-.2"/><path class="a" d="M14.024,2.627a6.15,6.15,0,0,1-1.8.268A6.031,6.031,0,0,1,7.045,0,6.038,6.038,0,0,1,1.86,2.9a6.2,6.2,0,0,1-1.8-.266,17.018,17.018,0,0,0,.294,4.96H13.72a17.073,17.073,0,0,0,.3-4.962"/><path class="b" d="M2.2,12.49a17.5,17.5,0,0,0,1.54,2.3l3.295-3.209,3.3,3.216A17.492,17.492,0,0,0,11.882,12.5L7.039,7.838Z"/><path class="b" d="M3.744,14.79A17.876,17.876,0,0,0,7.04,18a17.883,17.883,0,0,0,3.3-3.2L7.037,11.582Z"/><path class="b" d="M2.2,12.49,7.039,7.838,11.882,12.5a17.171,17.171,0,0,0,1.79-4.677c.017-.079.031-.158.048-.237H.359A17.34,17.34,0,0,0,2.2,12.49"/><path d="M7.039,11.407,3.757,14.6a17.457,17.457,0,0,1-1.4-2.091l4.679-4.5,4.686,4.515a17.491,17.491,0,0,1-1.395,2.085Z"/><path d="M7.039,8.185l4.529,4.363a17.316,17.316,0,0,1-1.251,1.875L7.213,11.4l-.174-.17-.175.17L3.77,14.416a17.347,17.347,0,0,1-1.253-1.88L7.039,8.185m0-.347L2.2,12.49a17.5,17.5,0,0,0,1.54,2.3l3.295-3.209,3.3,3.216A17.492,17.492,0,0,0,11.882,12.5L7.039,7.838Z"/><path d="M14.024,2.627a6.15,6.15,0,0,1-1.8.268A6.031,6.031,0,0,1,7.045,0,6.038,6.038,0,0,1,1.86,2.9a6.2,6.2,0,0,1-1.8-.266,17.018,17.018,0,0,0,.294,4.96H13.72a17.073,17.073,0,0,0,.3-4.962"/><path class="a" d="M10.338,4.5V3.932H9.99v-.4l-.363-.1H9.6V3.088s-.126.151-.7.151c-.546,0-.866-.178-1.3-.178a.591.591,0,0,0-.546.24v.138H7.041V3.3a.6.6,0,0,0-.544-.24c-.435,0-.756.179-1.3.179-.575,0-.676-.151-.676-.151v.359H4.5l-.4.084v.4H3.754V4.5H4.1v.919H3.754v.57H4.1V6.7a8.4,8.4,0,0,0,1.124.092c.639,0,1.009-.093,1.422-.1v.179a.949.949,0,0,0,.391.084,1.05,1.05,0,0,0,.4-.084V6.687c.413.009.783.1,1.424.1A8.4,8.4,0,0,0,9.99,6.7V5.989h.348v-.57H9.99V4.5Z"/><path d="M5.437,3.73a.1.1,0,0,0-.094.06l-.194.433a.034.034,0,0,1-.017.007s-.012-.007-.016-.02-.029-.075-.08-.194l-.063-.142a.87.87,0,0,0-.046-.1.1.1,0,0,0-.082-.047.039.039,0,0,1,0-.015l0-.012h.031c.037,0,.068,0,.095,0s.085,0,.12,0h.022l0,.012,0,.015c-.025,0-.078,0-.078.033a.147.147,0,0,0,0,.029l.128.305.106-.253a.134.134,0,0,0,.015-.066c0-.029-.02-.041-.073-.047l0-.014,0-.014h.015c.024,0,.048,0,.1,0l.063,0h.039c0,.005,0,.007,0,.012l0,.015"/><path d="M5.978,4.216c-.156,0-.24,0-.261,0H5.644c-.023,0-.072,0-.126,0H5.487l0-.012V4.187a.2.2,0,0,0,.078-.017.146.146,0,0,0,.018-.079v-.3c0-.057-.028-.057-.086-.063a.021.021,0,0,1,0-.013s0-.011,0-.013h.2l.193,0h.053c.012,0,.017,0,.017.012l.007.116c-.007,0-.007.005-.015.005H5.936a.21.21,0,0,0-.077-.088.078.078,0,0,0-.043-.015h-.07a.271.271,0,0,0-.058,0c-.006,0,0,0-.008.02s0,.034,0,.1v.066H5.7a.235.235,0,0,0,.058-.006.08.08,0,0,0,.051-.037.172.172,0,0,0,.013-.042.024.024,0,0,1,.016,0l.012,0c0,.021,0,.061,0,.111,0,.024,0,.078,0,.1a.017.017,0,0,1-.016.006l-.013,0c0-.044-.012-.074-.049-.09a.165.165,0,0,0-.057-.009l-.035,0V4.09a.133.133,0,0,0,.008.06.044.044,0,0,0,.03.029.2.2,0,0,0,.048,0h.073a.16.16,0,0,0,.057-.008.294.294,0,0,0,.081-.11l.016,0,.014,0V4.2c0,.013-.007.015-.026.015"/><path d="M6.593,3.864H6.581a.429.429,0,0,0-.039-.076.121.121,0,0,0-.1-.05H6.4l0,.226c0,.036,0,.077,0,.156,0,.059.026.059.089.066l0,.016a.026.026,0,0,1,0,.012H6.465l-.13,0-.129,0A.014.014,0,0,1,6.2,4.2l0-.015c.083-.006.09-.02.092-.047s0-.083,0-.153V3.8a.365.365,0,0,0-.005-.063.36.36,0,0,0-.08.006c-.041.014-.07.051-.1.112H6.1a.016.016,0,0,1-.012,0V3.719c0-.012,0-.015.016-.015h.055c.018,0,.093,0,.187,0,.122,0,.214,0,.237,0a.049.049,0,0,1,.027,0v.151a.017.017,0,0,1-.015.006"/><path d="M5.41,4.668l-.014,0a.288.288,0,0,0-.039-.077.119.119,0,0,0-.094-.049.435.435,0,0,0-.05,0v.228c0,.035,0,.077,0,.155,0,.06.028.06.091.067l0,.014,0,.013H5.282l-.13,0c-.015,0-.093.005-.131.005a.031.031,0,0,1,0-.015l0-.013c.081,0,.09-.02.093-.047s0-.085,0-.153V4.6a.4.4,0,0,0,0-.063.355.355,0,0,0-.08.006.2.2,0,0,0-.1.114H4.914s-.007,0-.011-.006v-.13c0-.012,0-.015.015-.015h.243c.121,0,.214,0,.237,0s.022,0,.025,0l0,.018v.133a.02.02,0,0,1-.015.006"/><path d="M6,5.018c-.155,0-.241,0-.261,0l-.072,0c-.022,0-.073,0-.126,0H5.507l0-.011a.044.044,0,0,1,0-.016.135.135,0,0,0,.076-.017c.011-.009.016-.031.019-.077,0-.023,0-.05,0-.078s0-.085,0-.143c0-.04,0-.064,0-.08,0-.057-.028-.057-.086-.063a.024.024,0,0,1,0-.013l0-.015h.2c.09,0,.175,0,.195,0h.052c.015,0,.02,0,.02.013l0,.116a.016.016,0,0,1-.014,0H5.956a.226.226,0,0,0-.077-.09.1.1,0,0,0-.044-.013h-.07a.447.447,0,0,0-.057,0c-.007,0-.006,0-.008.02s0,.035,0,.1v.068h.018a.24.24,0,0,0,.058-.006.107.107,0,0,0,.053-.037.272.272,0,0,0,.009-.043.047.047,0,0,1,.017,0,.026.026,0,0,1,.014,0c0,.021,0,.061,0,.11,0,.026,0,.08,0,.1-.006,0-.007,0-.014,0l-.015,0c0-.043-.012-.072-.05-.089a.121.121,0,0,0-.056-.01H5.7v.136a.23.23,0,0,0,.006.06c0,.009.019.027.031.029a.275.275,0,0,0,.048,0h.075a.135.135,0,0,0,.054-.009.29.29,0,0,0,.083-.111.047.047,0,0,1,.016,0l.013,0v.137c0,.012-.008.013-.026.013"/><path d="M6.357,5.03A.3.3,0,0,1,6.238,5a.043.043,0,0,0-.019,0,.1.1,0,0,0-.039.02A.037.037,0,0,1,6.151,5c0-.011.01-.043.01-.063s0-.069,0-.083a.025.025,0,0,1,.022-.01h.01c.01.02.031.077.045.1A.167.167,0,0,0,6.348,5a.121.121,0,0,0,.083-.024.073.073,0,0,0,.028-.064.067.067,0,0,0-.013-.046.133.133,0,0,0-.053-.037c-.022-.01-.1-.03-.131-.046a.188.188,0,0,1-.071-.051.166.166,0,0,1-.03-.093.146.146,0,0,1,.157-.144.2.2,0,0,1,.123.035L6.47,4.5a.029.029,0,0,1,.028.015.558.558,0,0,0-.009.07c0,.013.009.066.009.075a.04.04,0,0,1-.021.008l-.009,0c-.014-.026-.027-.068-.042-.09a.118.118,0,0,0-.1-.044.084.084,0,0,0-.092.076.086.086,0,0,0,.063.076c.021.008.048.018.077.027s.065.024.082.032a.141.141,0,0,1,.085.136.166.166,0,0,1-.181.154"/><path d="M5.618,5.823c-.157,0-.241,0-.261,0H5.283c-.023,0-.071,0-.126,0H5.126l0-.011V5.794A.171.171,0,0,0,5.2,5.777c.01-.01.015-.032.019-.077,0-.024,0-.05,0-.078s0-.087,0-.145V5.4c0-.057-.029-.057-.087-.063l0-.014,0-.014h.2c.088,0,.175,0,.194,0h.053c.012,0,.017,0,.017.012l.007.117c-.007,0-.008,0-.014,0H5.577a.227.227,0,0,0-.078-.09.087.087,0,0,0-.043-.013h-.07a.457.457,0,0,0-.058,0c-.007,0,0,0-.007.02a.631.631,0,0,0,0,.1v.067h.018a.279.279,0,0,0,.058-.006.087.087,0,0,0,.052-.038.164.164,0,0,0,.012-.041.037.037,0,0,1,.017,0l.012,0c0,.021,0,.061,0,.11,0,.024,0,.079,0,.1a.023.023,0,0,1-.016,0l-.012,0c0-.043-.013-.074-.05-.089a.162.162,0,0,0-.056-.01.228.228,0,0,0-.036,0V5.7a.139.139,0,0,0,.008.06.054.054,0,0,0,.031.028.253.253,0,0,0,.048,0h.072a.151.151,0,0,0,.057-.009.286.286,0,0,0,.081-.11.056.056,0,0,1,.017,0l.014,0V5.81c0,.012-.008.013-.026.013"/><path d="M6.364,5.336c-.052,0-.1.029-.1.114v.263c0,.01,0,.084,0,.113a.037.037,0,0,1-.022.008s-.007,0-.012-.008l-.362-.39,0,.08V5.66c0,.011,0,.039,0,.058a.061.061,0,0,0,.027.054.113.113,0,0,0,.068.022l0,.013,0,.014H5.939l-.094,0-.078,0H5.751l0-.012,0-.015a.119.119,0,0,0,.081-.034A.148.148,0,0,0,5.842,5.7V5.515c0-.03,0-.045,0-.073a.1.1,0,0,0-.017-.056L5.8,5.359a.376.376,0,0,0-.058-.025l0-.012,0-.014h.012c.011,0,.066,0,.11,0h.024a.04.04,0,0,1,.015.01l.268.293c.021.022.046.052.062.07v-.21c0-.028,0-.05,0-.059a.162.162,0,0,0-.017-.055c-.008-.013-.058-.02-.085-.025a.05.05,0,0,1,0-.016l0-.012h.015c.025,0,.065,0,.091,0h.131l0,.012a.037.037,0,0,1,0,.013"/><path d="M8.053,3.727c-.051,0-.1.031-.1.114v.265c0,.009,0,.083,0,.112a.032.032,0,0,1-.019.009s-.008,0-.016-.009l-.359-.389,0,.08v.144c0,.01,0,.037,0,.057a.072.072,0,0,0,.026.055.125.125,0,0,0,.068.022l0,.012a.029.029,0,0,1,0,.014H7.533l-.076,0H7.44l0-.013a.022.022,0,0,1,0-.013.116.116,0,0,0,.081-.035.153.153,0,0,0,.008-.062V3.907c0-.03,0-.044,0-.073a.1.1,0,0,0-.017-.056.233.233,0,0,0-.027-.026.182.182,0,0,0-.058-.026l0-.012,0-.013h.014c.011,0,.066,0,.11,0h.024l.015.01.27.294c.019.021.044.052.06.07v-.21a.251.251,0,0,0,0-.06A.1.1,0,0,0,7.9,3.754c-.007-.015-.058-.022-.083-.027a.036.036,0,0,1,0-.014l0-.012h.016l.09,0h.13l0,.012,0,.012"/><path d="M8.5,3.777a.12.12,0,0,0-.1-.054.107.107,0,0,0-.094.054.3.3,0,0,0-.048.18.324.324,0,0,0,.045.18.115.115,0,0,0,.1.057.12.12,0,0,0,.111-.07.333.333,0,0,0,.033-.165A.3.3,0,0,0,8.5,3.777m.082.373a.252.252,0,0,1-.361,0,.26.26,0,0,1-.078-.195.264.264,0,0,1,.078-.194.258.258,0,0,1,.18-.076.276.276,0,0,1,.135.037.268.268,0,0,1,.126.227.284.284,0,0,1-.08.2"/><path d="M9.312,3.73a.1.1,0,0,0-.091.06l-.194.433a.04.04,0,0,1-.016.007S9,4.223,8.993,4.21s-.028-.075-.08-.194l-.061-.142c-.023-.052-.041-.086-.046-.1a.1.1,0,0,0-.083-.047.021.021,0,0,1,0-.015l0-.012h.033c.036,0,.066,0,.094,0s.085,0,.122,0h.021s0,.008,0,.012l0,.015c-.024,0-.076,0-.076.033a.059.059,0,0,0,.005.029l.126.305.107-.253a.157.157,0,0,0,.014-.066c0-.029-.019-.041-.075-.047V3.7h.017c.024,0,.046,0,.1,0l.064,0h.037l0,.012a.024.024,0,0,1-.006.015"/><path d="M7.885,4.668l-.015,0a.29.29,0,0,0-.038-.077.12.12,0,0,0-.094-.049.444.444,0,0,0-.05,0v.228c0,.035,0,.077,0,.155,0,.06.028.06.091.067l0,.014,0,.013H7.757l-.131,0c-.014,0-.093.005-.13.005,0-.006,0-.006,0-.015l0-.013c.081,0,.089-.02.093-.047s0-.085,0-.153V4.6a.3.3,0,0,0,0-.063.364.364,0,0,0-.08.006.212.212,0,0,0-.1.114H7.389a.011.011,0,0,1-.011-.006v-.13c0-.012,0-.015.014-.015h.244c.121,0,.214,0,.237,0s.021,0,.025,0v.151a.018.018,0,0,1-.014.006"/><path d="M8.176,4.612h0c-.009.018-.028.063-.036.082-.026.067-.036.088-.041.1h.152l-.073-.18m.323.406h-.04c-.026,0-.055,0-.086,0-.049,0-.112,0-.134,0,0,0,0-.007,0-.013l0-.012c.05,0,.07-.011.07-.03a.185.185,0,0,0-.015-.068c-.015-.036-.023-.054-.028-.063s0-.006-.012-.006H8.09a.337.337,0,0,0-.039.1.2.2,0,0,0,0,.03c0,.017.014.035.071.036a.026.026,0,0,1,0,.015v.012H8.109l-.089,0-.11,0,0-.011a.022.022,0,0,1,0-.013.114.114,0,0,0,.073-.037.988.988,0,0,0,.066-.134c.028-.067.063-.154.077-.192s.029-.059.036-.074.022-.044.027-.053a.028.028,0,0,1,.019-.009.033.033,0,0,1,.023.01l.013.025.09.222c.019.045.029.073.048.118s.022.051.036.078.051.04.081.047l.006.012s0,.007-.006.012"/><path d="M9.291,5.018l-.208,0H9.027l0-.012a.017.017,0,0,1,.005-.015.237.237,0,0,0,.051,0c.023-.009.03-.029.03-.06V4.555h0L9,4.8c-.011.025-.026.054-.036.082a.767.767,0,0,0-.046.116A.016.016,0,0,1,8.9,5c-.007,0-.012,0-.016-.016-.013-.03-.023-.051-.028-.064l-.171-.376h0v.1l0,.239c0,.074.039.108.1.108l.005.013,0,.012H8.756c-.007,0-.046,0-.1,0H8.549l0-.012,0-.012a.3.3,0,0,0,.075-.026c.012-.01.021-.032.021-.083V4.619c0-.042-.007-.058-.027-.071a.3.3,0,0,0-.067-.015.034.034,0,0,1-.005-.014l.005-.013.092,0h.123a.043.043,0,0,1,.011.012l.153.348L8.957,4.8c.024-.055.058-.14.106-.23.012-.021.024-.046.031-.06l.2,0,.005.012a.028.028,0,0,1,0,.013c-.022,0-.058,0-.075.034-.007.008-.01.018-.01.06v.248c0,.1.023.1.034.111a.167.167,0,0,0,.052.008l0,.013c0,.008,0,.008,0,.013"/><path d="M7.874,5.471H7.858a.233.233,0,0,0-.038-.076.119.119,0,0,0-.1-.05H7.676v.226c0,.037,0,.079,0,.156,0,.059.028.059.09.068a.025.025,0,0,1,0,.014l0,.012H7.745l-.129,0c-.016,0-.095,0-.132,0a.023.023,0,0,1,0-.014l0-.013c.082-.006.089-.022.093-.047s0-.085,0-.154V5.406a.3.3,0,0,0,0-.063.351.351,0,0,0-.079.006.206.206,0,0,0-.1.113H7.377a.012.012,0,0,1-.011,0v-.13c0-.014,0-.016.014-.016h.244c.121,0,.214,0,.237,0a.05.05,0,0,1,.025,0v.151a.015.015,0,0,1-.013.006"/><path d="M8.51,5.337a.108.108,0,0,0-.092.061l-.193.434a.034.034,0,0,1-.016.007c-.006,0-.014-.007-.018-.022s-.029-.075-.079-.192l-.063-.143C8.027,5.43,8.008,5.4,8,5.384a.1.1,0,0,0-.082-.047.018.018,0,0,1,0-.025h.03l.094,0,.122,0h.021s.006.008.006.012l0,.013c-.024,0-.077,0-.077.035a.06.06,0,0,0,0,.028l.127.3.107-.253a.178.178,0,0,0,.015-.067c0-.029-.021-.041-.074-.047l0-.012,0-.014h.014c.023,0,.048,0,.1,0l.064,0h.037l0,.011-.005.014"/><path d="M9.3,5.823l-.206,0H9.038a.023.023,0,0,1,0-.014.013.013,0,0,1,0-.013.24.24,0,0,0,.052,0c.02-.009.028-.03.028-.06v-.3s0-.054,0-.069h0L9.01,5.6c-.012.027-.027.055-.039.084-.024.055-.037.094-.046.116s-.009.009-.014.009-.012,0-.017-.014c-.012-.032-.022-.051-.027-.064L8.7,5.352h0v.1l0,.241c0,.072.038.108.1.108l0,.012a.037.037,0,0,1,0,.013H8.766c-.007,0-.043-.005-.1-.005l-.071,0H8.561a.025.025,0,0,1,0-.014l0-.01a.317.317,0,0,0,.075-.026.126.126,0,0,0,.019-.083V5.424c0-.042,0-.058-.027-.072a.238.238,0,0,0-.065-.014.016.016,0,0,1-.005-.014.017.017,0,0,1,.005-.013l.089,0h.126a.04.04,0,0,1,.01.012l.153.348.028-.07c.023-.055.058-.139.106-.229.01-.022.024-.046.031-.06l.194,0,.006.012c0,.006,0,.008,0,.013-.021,0-.057,0-.074.034-.007.008-.012.018-.012.06v.248c0,.1.024.1.036.111A.15.15,0,0,0,9.3,5.8l.005.012c0,.008,0,.008-.005.014"/><path d="M9.926,6.639a7.884,7.884,0,0,1-1.061.085,13.243,13.243,0,0,1-1.418-.1l-.069-.009v.207a1.014,1.014,0,0,1-.343.063.969.969,0,0,1-.328-.061V6.614l-.069.009a13.313,13.313,0,0,1-1.416.1,7.909,7.909,0,0,1-1.064-.085V3.576l.3-.064V6.288c.03.065.157.211.736.211l.733-.1.563-.081a.546.546,0,0,1,.5.208l.018-.008h.086l.015.008A.539.539,0,0,1,7.6,6.322l.56.081.739.1c.586,0,.734-.155.748-.172L9.659,3.5c.078.021.218.06.267.075ZM4.582,3.2a1.347,1.347,0,0,0,.614.1l.738-.1L6.5,3.123a.536.536,0,0,1,.49.207V6.359a.735.735,0,0,0-.5-.156L5.9,6.284,5.2,6.379c-.517,0-.625-.126-.626-.127s.01-2.845.012-3.053m2.525.131A.537.537,0,0,1,7.6,3.123l.56.079.739.1a1.472,1.472,0,0,0,.642-.1V6.282a1.727,1.727,0,0,1-.642.1l-.714-.095L7.6,6.2a.732.732,0,0,0-.493.154Zm2.552.042V2.936l-.105.111s-.13.132-.656.132l-.714-.1L7.6,3a.7.7,0,0,0-.553.211A.7.7,0,0,0,6.5,3l-.588.081-.713.1c-.517,0-.625-.125-.626-.126l-.107-.133,0,.168v.3l-.421.089V6.744l.05.009a8.883,8.883,0,0,0,1.133.091,12.667,12.667,0,0,0,1.363-.093V6.9l.033.017a1,1,0,0,0,.417.09,1.089,1.089,0,0,0,.43-.089L7.5,6.9V6.751a12.611,12.611,0,0,0,1.365.093,8.828,8.828,0,0,0,1.13-.091l.051-.009V3.481Z"/></svg>