<?xml version="1.0" encoding="utf-8"?>
<!-- Generator: Adobe Illustrator 21.1.0, SVG Export Plug-In . SVG Version: 6.00 Build 0)  -->
<svg version="1.1" id="Layer_1" xmlns="http://www.w3.org/2000/svg" xmlns:xlink="http://www.w3.org/1999/xlink" x="0px" y="0px"
	 width="59.8px" height="75.8px" viewBox="0 0 59.8 75.8" style="enable-background:new 0 0 59.8 75.8;" xml:space="preserve">
<style type="text/css">
	.st0{fill:#FFFFFF;}
	.st1{fill:#EF7622;}
	.st2{fill:#231F20;}
</style>
<path class="st0" d="M59.6,11.1c-2.4,0.7-5,1.1-7.6,1.1c-9.4,0-17.6-4.9-22-12.2c-4.4,7.3-12.6,12.2-22,12.2c-2.7,0-5.2-0.4-7.6-1.1
	C-0.4,18.2,0.1,25.2,1.5,32h56.8C59.8,24.9,60.2,17.9,59.6,11.1"/>
<path class="st1" d="M9.4,52.6c1.9,3.4,4.1,6.6,6.5,9.7l14-13.5l14,13.5c2.4-3,4.6-6.3,6.5-9.7L29.9,33L9.4,52.6z"/>
<path class="st1" d="M15.9,62.3c4,5,8.7,9.6,14,13.5c5.2-3.9,10-8.4,14-13.5l-14-13.5L15.9,62.3z"/>
<path class="st1" d="M9.4,52.6L29.9,33l20.6,19.6c3.4-6,6-12.6,7.6-19.7c0.1-0.3,0.1-0.7,0.2-1H1.5C3.1,39.2,5.7,46.2,9.4,52.6"/>
<g>
	<path class="st2" d="M29.9,48.3l-14,13.5c-2.3-2.9-4.3-6-6.1-9.1l20.1-19.2L50,52.7c-1.8,3.2-3.9,6.2-6.1,9.1L29.9,48.3z"/>
	<path class="st2" d="M29.9,34l19.7,18.8c-1.7,2.9-3.6,5.8-5.7,8.5l-13.5-13l-0.5-0.5l-0.5,0.5L16,61.2c-2.1-2.7-4-5.6-5.7-8.5
		L29.9,34 M29.9,33L9.4,52.6c1.9,3.4,4.1,6.6,6.5,9.7l14-13.5l14,13.5c2.4-3,4.6-6.3,6.5-9.7L29.9,33L29.9,33z"/>
</g>
<path class="st2" d="M59.6,11.1c-2.4,0.7-5,1.1-7.6,1.1c-9.4,0-17.6-4.9-22-12.2c-4.4,7.3-12.6,12.2-22,12.2c-2.7,0-5.2-0.4-7.6-1.1
	C-0.4,18.2,0.1,25.2,1.5,32h56.8C59.8,24.9,60.2,17.9,59.6,11.1"/>
<path class="st0" d="M43.9,18.9v-2.4h-1.5v-1.7l-1.5-0.4h-0.1V13c0,0-0.5,0.6-3,0.6c-2.3,0-3.7-0.7-5.5-0.7c-1.8,0-2.3,1-2.3,1v0.6
	h-0.1v-0.6c0,0-0.6-1-2.3-1c-1.8,0-3.2,0.8-5.5,0.8c-2.4,0-2.9-0.6-2.9-0.6v1.5h-0.1l-1.7,0.4v1.7h-1.5v2.4h1.5v3.9h-1.5v2.4h1.5v3
	c0,0,2.5,0.4,4.8,0.4c2.7,0,4.3-0.4,6-0.4v0.8c0,0,0.7,0.4,1.7,0.4c1,0,1.7-0.4,1.7-0.4v-0.8c1.8,0,3.3,0.4,6.1,0.4
	c2.3,0,4.8-0.4,4.8-0.4v-3h1.5v-2.4h-1.5v-3.9H43.9z"/>
<g>
	<path class="st2" d="M23.1,15.7c-0.2,0-0.3,0.1-0.4,0.3l-0.8,1.8c0,0,0,0-0.1,0c0,0-0.1,0-0.1-0.1c0-0.1-0.1-0.3-0.3-0.8l-0.3-0.6
		C21,16.1,21,16,20.9,15.9c-0.1-0.2-0.2-0.2-0.3-0.2c0,0,0,0,0-0.1c0,0,0,0,0-0.1h0.1c0.2,0,0.3,0,0.4,0c0.1,0,0.4,0,0.5,0h0.1
		c0,0,0,0,0,0.1c0,0,0,0,0,0.1c-0.1,0-0.3,0-0.3,0.1c0,0,0,0.1,0,0.1l0.5,1.3l0.5-1.1c0.1-0.1,0.1-0.2,0.1-0.3
		c0-0.1-0.1-0.2-0.3-0.2c0,0,0,0,0-0.1s0,0,0-0.1h0.1c0.1,0,0.2,0,0.4,0c0,0,0.2,0,0.3,0h0.2C23.1,15.6,23.1,15.6,23.1,15.7
		C23.1,15.7,23.1,15.7,23.1,15.7"/>
	<path class="st2" d="M25.4,17.8c-0.7,0-1,0-1.1,0c-0.1,0-0.2,0-0.3,0c-0.1,0-0.3,0-0.5,0l-0.1,0c0,0,0,0,0-0.1c0,0,0,0,0-0.1
		c0.2,0,0.3,0,0.3-0.1c0,0,0.1-0.1,0.1-0.3c0-0.1,0-0.2,0-0.3c0-0.2,0-0.4,0-0.6V16c0-0.2-0.1-0.2-0.4-0.3c0,0,0,0,0-0.1
		c0,0,0,0,0-0.1h0.1c0.1,0,0.3,0,0.7,0c0.4,0,0.7,0,0.8,0c0.1,0,0.2,0,0.2,0c0.1,0,0.1,0,0.1,0.1l0,0.5c0,0,0,0-0.1,0c0,0,0,0-0.1,0
		c-0.1-0.2-0.2-0.3-0.3-0.4c0,0-0.1-0.1-0.2-0.1c0,0-0.1,0-0.3,0c-0.1,0-0.2,0-0.2,0c0,0,0,0,0,0.1c0,0.1,0,0.1,0,0.4v0.3h0.1
		c0.1,0,0.2,0,0.2,0c0.1,0,0.2-0.1,0.2-0.2c0,0,0-0.1,0.1-0.2c0,0,0,0,0.1,0c0,0,0,0,0.1,0c0,0.1,0,0.3,0,0.5c0,0.1,0,0.3,0,0.4
		c0,0,0,0-0.1,0c0,0,0,0-0.1,0c0-0.2-0.1-0.3-0.2-0.4c-0.1,0-0.2,0-0.2,0c0,0-0.1,0-0.1,0v0.6c0,0.1,0,0.2,0,0.3
		c0,0,0.1,0.1,0.1,0.1c0,0,0.1,0,0.2,0h0.3c0.1,0,0.2,0,0.2,0c0.1-0.1,0.3-0.3,0.3-0.5c0,0,0,0,0.1,0c0,0,0,0,0.1,0v0.6
		C25.5,17.7,25.5,17.8,25.4,17.8"/>
	<path class="st2" d="M28,16.3C28,16.3,28,16.3,28,16.3c-0.1-0.1-0.2-0.3-0.2-0.3c-0.1-0.1-0.2-0.2-0.4-0.2c0,0-0.2,0-0.2,0l0,1
		c0,0.2,0,0.3,0,0.7c0,0.2,0.1,0.2,0.4,0.3c0,0,0,0.1,0,0.1c0,0,0,0,0,0.1h-0.1c-0.2,0-0.5,0-0.6,0c-0.1,0-0.4,0-0.5,0
		c0,0,0,0,0-0.1c0,0,0,0,0-0.1c0.3,0,0.4-0.1,0.4-0.2c0-0.1,0-0.4,0-0.6V16c0-0.1,0-0.2,0-0.3c-0.1,0-0.3,0-0.3,0
		c-0.2,0.1-0.3,0.2-0.4,0.5c0,0,0,0-0.1,0c0,0,0,0-0.1,0v-0.6c0-0.1,0-0.1,0.1-0.1c0.1,0,0.1,0,0.2,0c0.1,0,0.4,0,0.8,0
		c0.5,0,0.9,0,1,0c0.1,0,0.1,0,0.1,0c0,0,0,0.1,0,0.1L28,16.3C28.1,16.3,28,16.3,28,16.3"/>
	<path class="st2" d="M23,19.7C23,19.7,23,19.7,23,19.7c-0.1-0.1-0.2-0.3-0.2-0.3c-0.1-0.1-0.2-0.2-0.4-0.2c-0.1,0-0.2,0-0.2,0l0,1
		c0,0.1,0,0.3,0,0.7c0,0.2,0.1,0.2,0.4,0.3c0,0,0,0,0,0.1c0,0,0,0,0,0.1h-0.1c-0.2,0-0.5,0-0.6,0c-0.1,0-0.4,0-0.6,0c0,0,0,0,0-0.1
		c0,0,0,0,0-0.1c0.3,0,0.4-0.1,0.4-0.2c0-0.1,0-0.4,0-0.6v-0.8c0-0.1,0-0.2,0-0.3c-0.1,0-0.3,0-0.3,0c-0.2,0.1-0.3,0.2-0.4,0.5
		c0,0-0.1,0-0.1,0c0,0,0,0,0,0V19c0-0.1,0-0.1,0.1-0.1c0.1,0,0.1,0,0.2,0c0.1,0,0.4,0,0.8,0c0.5,0,0.9,0,1,0c0.1,0,0.1,0,0.1,0
		c0,0,0,0.1,0,0.1L23,19.7C23,19.7,23,19.7,23,19.7"/>
	<path class="st2" d="M25.5,21.1c-0.7,0-1,0-1.1,0c-0.1,0-0.2,0-0.3,0c-0.1,0-0.3,0-0.5,0l-0.1,0c0,0,0,0,0,0c0,0,0,0,0-0.1
		c0.2,0,0.3,0,0.3-0.1c0,0,0.1-0.1,0.1-0.3c0-0.1,0-0.2,0-0.3c0-0.2,0-0.4,0-0.6c0-0.2,0-0.3,0-0.3c0-0.2-0.1-0.2-0.4-0.3
		c0,0,0,0,0-0.1c0,0,0-0.1,0-0.1h0.1c0.1,0,0.3,0,0.7,0c0.4,0,0.7,0,0.8,0c0,0,0.2,0,0.2,0c0.1,0,0.1,0,0.1,0.1l0,0.5c0,0,0,0-0.1,0
		c0,0,0,0-0.1,0c-0.1-0.2-0.2-0.3-0.3-0.4c0,0-0.1,0-0.2-0.1c0,0-0.1,0-0.3,0c-0.1,0-0.2,0-0.2,0c0,0,0,0,0,0.1c0,0.1,0,0.1,0,0.4
		v0.3h0.1c0.1,0,0.2,0,0.2,0c0.1,0,0.2-0.1,0.2-0.2c0,0,0-0.1,0-0.2c0,0,0,0,0.1,0c0,0,0,0,0.1,0c0,0.1,0,0.3,0,0.5
		c0,0.1,0,0.3,0,0.4c0,0,0,0-0.1,0c0,0-0.1,0-0.1,0c0-0.2-0.1-0.3-0.2-0.4c-0.1,0-0.1,0-0.2,0c0,0-0.1,0-0.1,0v0.6
		c0,0.1,0,0.2,0,0.3c0,0,0.1,0.1,0.1,0.1c0,0,0.1,0,0.2,0h0.3c0.1,0,0.2,0,0.2,0c0.1-0.1,0.3-0.3,0.4-0.5c0,0,0,0,0.1,0
		c0,0,0,0,0.1,0v0.6C25.6,21.1,25.6,21.1,25.5,21.1"/>
	<path class="st2" d="M27,21.2c-0.2,0-0.4-0.1-0.5-0.1c0,0-0.1,0-0.1,0s-0.1,0-0.2,0.1c0,0-0.1,0-0.1-0.1c0,0,0-0.2,0-0.3
		c0,0,0-0.3,0-0.4c0,0,0.1,0,0.1,0c0,0,0,0,0,0c0,0.1,0.1,0.3,0.2,0.4C26.6,21,26.8,21,27,21c0.2,0,0.3,0,0.4-0.1
		c0.1-0.1,0.1-0.2,0.1-0.3c0-0.1,0-0.1-0.1-0.2c-0.1-0.1-0.1-0.1-0.2-0.2c-0.1,0-0.4-0.1-0.6-0.2c-0.2-0.1-0.2-0.1-0.3-0.2
		c-0.1-0.1-0.1-0.3-0.1-0.4c0-0.3,0.3-0.6,0.7-0.6c0.1,0,0.3,0,0.5,0.1c0,0,0.1-0.1,0.1-0.1c0.1,0,0.1,0,0.1,0.1c0,0.1,0,0.2,0,0.3
		c0,0.1,0,0.3,0,0.3c0,0,0,0-0.1,0c0,0,0,0,0,0c-0.1-0.1-0.1-0.3-0.2-0.4c-0.1-0.1-0.2-0.2-0.4-0.2c-0.2,0-0.4,0.1-0.4,0.3
		c0,0.2,0.1,0.3,0.3,0.3c0.1,0,0.2,0.1,0.3,0.1c0.2,0.1,0.3,0.1,0.3,0.1c0.3,0.1,0.4,0.3,0.4,0.6C27.8,20.9,27.4,21.2,27,21.2"/>
	<path class="st2" d="M23.9,24.5c-0.7,0-1,0-1.1,0c-0.1,0-0.2,0-0.3,0c-0.1,0-0.3,0-0.5,0l-0.1,0c0,0,0,0,0,0c0,0,0-0.1,0-0.1
		c0.2,0,0.3,0,0.3-0.1c0,0,0.1-0.1,0.1-0.3c0-0.1,0-0.2,0-0.3c0-0.2,0-0.4,0-0.6v-0.3c0-0.2-0.1-0.2-0.4-0.3c0,0,0,0,0-0.1
		c0,0,0,0,0-0.1h0.1c0.1,0,0.3,0,0.7,0c0.4,0,0.7,0,0.8,0c0.1,0,0.2,0,0.2,0c0.1,0,0.1,0,0.1,0.1l0,0.5c0,0,0,0-0.1,0c0,0,0,0-0.1,0
		c-0.1-0.2-0.2-0.3-0.3-0.4c0,0-0.1,0-0.2-0.1c0,0-0.1,0-0.3,0c-0.2,0-0.2,0-0.2,0c0,0,0,0,0,0.1c0,0.1,0,0.1,0,0.4v0.3h0.1
		c0.1,0,0.2,0,0.2,0c0.1,0,0.2-0.1,0.2-0.2c0,0,0-0.1,0.1-0.2c0,0,0,0,0.1,0c0,0,0,0,0.1,0c0,0.1,0,0.3,0,0.5c0,0.1,0,0.3,0,0.4
		c0,0,0,0-0.1,0c0,0,0,0-0.1,0c0-0.2-0.1-0.3-0.2-0.4c-0.1,0-0.2,0-0.2,0c0,0-0.1,0-0.2,0V24c0,0.1,0,0.2,0,0.3c0,0,0.1,0.1,0.1,0.1
		c0,0,0.1,0,0.2,0h0.3c0.1,0,0.2,0,0.2,0c0.1-0.1,0.3-0.3,0.3-0.5c0,0,0.1,0,0.1,0c0,0,0,0,0.1,0v0.6C24,24.5,23.9,24.5,23.9,24.5"
		/>
	<path class="st2" d="M27,22.5c-0.2,0-0.4,0.1-0.4,0.5l0,1.1c0,0,0,0.4,0,0.5c0,0-0.1,0-0.1,0c0,0,0,0-0.1,0L25,22.9l0,0.3v0.6
		c0,0,0,0.2,0,0.2c0,0.1,0.1,0.2,0.1,0.2c0.1,0.1,0.2,0.1,0.3,0.1c0,0,0,0,0,0.1c0,0,0,0,0,0.1h-0.2c-0.1,0-0.3,0-0.4,0
		c-0.1,0-0.2,0-0.3,0h-0.1c0,0,0,0,0-0.1c0,0,0,0,0-0.1c0.1,0,0.3-0.1,0.3-0.1c0-0.1,0-0.2,0-0.3v-0.8c0-0.1,0-0.2,0-0.3
		c0-0.1,0-0.2-0.1-0.2c0,0-0.1-0.1-0.1-0.1c-0.1,0-0.2-0.1-0.2-0.1c0,0,0,0,0-0.1c0,0,0,0,0-0.1h0.1c0,0,0.3,0,0.5,0H25
		c0,0,0.1,0,0.1,0l1.1,1.2c0.1,0.1,0.2,0.2,0.3,0.3v-0.9c0-0.1,0-0.2,0-0.2c0-0.1,0-0.2-0.1-0.2c0-0.1-0.2-0.1-0.4-0.1
		c0,0,0-0.1,0-0.1c0,0,0,0,0-0.1h0.1c0.1,0,0.3,0,0.4,0c0.3,0,0.3,0,0.5,0H27C27,22.4,27,22.4,27,22.5C27,22.4,27,22.5,27,22.5"/>
	<path class="st2" d="M34.2,15.7c-0.2,0-0.4,0.1-0.4,0.5v1.1c0,0,0,0.4,0,0.5c0,0-0.1,0-0.1,0c0,0,0,0-0.1,0l-1.5-1.6l0,0.3v0.6
		c0,0,0,0.2,0,0.2c0,0.1,0.1,0.2,0.1,0.2c0.1,0.1,0.2,0.1,0.3,0.1c0,0,0,0,0,0.1c0,0,0,0,0,0.1h-0.2c-0.1,0-0.3,0-0.4,0
		c-0.1,0-0.2,0-0.3,0h-0.1c0,0,0,0,0-0.1c0,0,0,0,0-0.1c0.1,0,0.3-0.1,0.3-0.1c0-0.1,0-0.2,0-0.3v-0.8c0-0.1,0-0.2,0-0.3
		c0-0.1,0-0.2-0.1-0.2c0,0-0.1-0.1-0.1-0.1c0,0-0.2-0.1-0.2-0.1c0,0,0,0,0-0.1c0,0,0,0,0-0.1h0.1c0,0,0.3,0,0.5,0h0.1
		c0,0,0.1,0,0.1,0l1.1,1.2c0.1,0.1,0.2,0.2,0.3,0.3v-0.9c0-0.1,0-0.2,0-0.2c0-0.1,0-0.2-0.1-0.2c0-0.1-0.2-0.1-0.4-0.1
		c0,0,0,0,0-0.1c0,0,0,0,0-0.1h0.1c0.1,0,0.3,0,0.4,0c0.2,0,0.3,0,0.5,0h0.1C34.2,15.6,34.2,15.6,34.2,15.7
		C34.2,15.7,34.2,15.7,34.2,15.7"/>
	<path class="st2" d="M36.1,15.9c-0.1-0.1-0.2-0.2-0.4-0.2c-0.2,0-0.3,0.1-0.4,0.2c-0.1,0.2-0.2,0.4-0.2,0.8c0,0.3,0.1,0.6,0.2,0.8
		c0.1,0.2,0.2,0.2,0.4,0.2c0.2,0,0.4-0.1,0.5-0.3c0.1-0.2,0.1-0.4,0.1-0.7C36.3,16.3,36.2,16.1,36.1,15.9 M36.5,17.5
		c-0.2,0.2-0.5,0.3-0.8,0.3c-0.3,0-0.5-0.1-0.8-0.3c-0.2-0.2-0.3-0.5-0.3-0.8c0-0.3,0.1-0.6,0.3-0.8c0.2-0.2,0.5-0.3,0.8-0.3
		c0.2,0,0.4,0,0.6,0.2c0.3,0.2,0.5,0.6,0.5,1C36.8,17,36.7,17.3,36.5,17.5"/>
	<path class="st2" d="M39.6,15.7c-0.2,0-0.3,0.1-0.4,0.3l-0.8,1.8c0,0,0,0-0.1,0c0,0-0.1,0-0.1-0.1c0-0.1-0.1-0.3-0.3-0.8l-0.3-0.6
		c-0.1-0.2-0.2-0.4-0.2-0.4c-0.1-0.2-0.2-0.2-0.4-0.2c0,0,0,0,0-0.1c0,0,0,0,0-0.1h0.1c0.2,0,0.3,0,0.4,0c0.1,0,0.4,0,0.5,0h0.1
		c0,0,0,0,0,0.1c0,0,0,0,0,0.1c-0.1,0-0.3,0-0.3,0.1c0,0,0,0.1,0,0.1l0.5,1.3l0.5-1.1c0.1-0.1,0.1-0.2,0.1-0.3
		c0-0.1-0.1-0.2-0.3-0.2c0,0,0,0,0-0.1c0,0,0,0,0-0.1h0.1c0.1,0,0.2,0,0.4,0c0,0,0.2,0,0.3,0h0.2C39.6,15.6,39.6,15.6,39.6,15.7
		C39.6,15.7,39.6,15.7,39.6,15.7"/>
	<path class="st2" d="M33.5,19.7C33.5,19.7,33.5,19.7,33.5,19.7c-0.1-0.1-0.2-0.3-0.2-0.3c-0.1-0.1-0.2-0.2-0.4-0.2
		c-0.1,0-0.2,0-0.2,0l0,1c0,0.1,0,0.3,0,0.7c0,0.2,0.1,0.2,0.4,0.3c0,0,0,0,0,0.1c0,0,0,0,0,0.1H33c-0.2,0-0.5,0-0.6,0
		c-0.1,0-0.4,0-0.6,0c0,0,0,0,0-0.1c0,0,0,0,0-0.1c0.3,0,0.4-0.1,0.4-0.2c0-0.1,0-0.4,0-0.6v-0.8c0-0.1,0-0.2,0-0.3
		c-0.1,0-0.3,0-0.3,0c-0.2,0.1-0.3,0.2-0.4,0.5c0,0,0,0-0.1,0c0,0,0,0,0,0V19c0-0.1,0-0.1,0.1-0.1c0.1,0,0.1,0,0.2,0
		c0.1,0,0.4,0,0.8,0c0.5,0,0.9,0,1,0c0.1,0,0.1,0,0.1,0c0,0,0,0.1,0,0.1L33.5,19.7C33.5,19.7,33.5,19.7,33.5,19.7"/>
	<path class="st2" d="M34.7,19.4L34.7,19.4c0,0.1-0.1,0.3-0.2,0.3c-0.1,0.3-0.2,0.4-0.2,0.4H35C35,20.1,34.8,19.7,34.7,19.4
		 M36.1,21.1h-0.2c-0.1,0-0.2,0-0.4,0c-0.2,0-0.5,0-0.6,0c0,0,0,0,0-0.1c0,0,0,0,0-0.1c0.2,0,0.3,0,0.3-0.1c0,0,0-0.1-0.1-0.3
		c-0.1-0.2-0.1-0.2-0.1-0.3c0,0,0,0-0.1,0h-0.7c0,0.1-0.1,0.2-0.2,0.4c0,0.1,0,0.1,0,0.1c0,0.1,0.1,0.1,0.3,0.2c0,0,0,0.1,0,0.1
		c0,0,0,0,0,0.1h-0.1c-0.2,0-0.2,0-0.4,0c-0.1,0-0.4,0-0.5,0c0,0,0,0,0,0c0,0,0,0,0-0.1c0.1,0,0.2-0.1,0.3-0.2
		c0-0.1,0.2-0.3,0.3-0.6c0.1-0.3,0.3-0.7,0.3-0.8c0.1-0.2,0.1-0.2,0.2-0.3c0-0.1,0.1-0.2,0.1-0.2c0,0,0.1,0,0.1,0c0,0,0.1,0,0.1,0
		c0,0,0,0.1,0.1,0.1c0.1,0.3,0.2,0.6,0.4,0.9c0.1,0.2,0.1,0.3,0.2,0.5c0.1,0.1,0.1,0.2,0.2,0.3C35.8,21,36,21,36.1,21
		C36.1,21,36.1,21.1,36.1,21.1C36.1,21.1,36.1,21.1,36.1,21.1"/>
	<path class="st2" d="M39.5,21.1l-0.9,0h-0.2c0,0,0,0,0-0.1c0,0,0,0,0-0.1c0,0,0.2,0,0.2,0c0.1,0,0.1-0.1,0.1-0.3v-1.3v-0.3h0
		l-0.5,1c0,0.1-0.1,0.2-0.2,0.3c-0.1,0.2-0.2,0.4-0.2,0.5c0,0-0.1,0-0.1,0c0,0-0.1,0-0.1-0.1c-0.1-0.1-0.1-0.2-0.1-0.3l-0.7-1.6h0
		v0.4l0,1c0,0.3,0.2,0.5,0.4,0.5c0,0,0,0.1,0,0.1c0,0,0,0,0,0.1c0,0-0.1,0-0.1,0c0,0-0.2,0-0.4,0c-0.1,0-0.2,0-0.3,0h-0.2
		c0,0,0,0,0-0.1c0,0,0,0,0-0.1c0.1,0,0.3-0.1,0.3-0.1c0.1,0,0.1-0.1,0.1-0.4v-0.5v-0.6c0-0.2,0-0.2-0.1-0.3c0,0-0.2,0-0.3-0.1
		c0,0,0,0,0-0.1c0,0,0,0,0-0.1c0.1,0,0.2,0,0.4,0h0.5c0,0,0,0,0,0.1l0.7,1.5l0.1-0.3c0.1-0.2,0.2-0.6,0.5-1c0.1-0.1,0.1-0.2,0.1-0.2
		l0.8,0c0,0,0,0,0,0.1c0,0,0,0,0,0.1c-0.1,0-0.2,0-0.3,0.1c0,0,0,0.1,0,0.3v1c0,0.4,0.1,0.4,0.1,0.5c0,0,0.2,0,0.2,0
		C39.5,21,39.5,21.1,39.5,21.1C39.5,21.1,39.5,21.1,39.5,21.1"/>
	<path class="st2" d="M33.5,23C33.4,23,33.4,23,33.5,23c-0.1-0.1-0.2-0.3-0.2-0.3c-0.1-0.1-0.2-0.2-0.4-0.2c-0.1,0-0.2,0-0.2,0l0,1
		c0,0.2,0,0.3,0,0.7c0,0.2,0.1,0.2,0.4,0.3c0,0,0,0,0,0.1c0,0,0,0,0,0.1h-0.1c-0.2,0-0.5,0-0.5,0c-0.1,0-0.4,0-0.6,0c0,0,0,0,0-0.1
		c0,0,0,0,0-0.1c0.3,0,0.4-0.1,0.4-0.2c0-0.1,0-0.4,0-0.6v-0.8c0-0.1,0-0.2,0-0.3c-0.1,0-0.3,0-0.3,0c-0.2,0.1-0.3,0.2-0.4,0.5
		c0,0-0.1,0-0.1,0c0,0,0,0,0,0v-0.5c0-0.1,0-0.1,0.1-0.1c0.1,0,0.1,0,0.2,0c0.1,0,0.4,0,0.8,0c0.5,0,0.9,0,1,0c0.1,0,0.1,0,0.1,0
		c0,0,0,0.1,0,0.1L33.5,23C33.5,23,33.5,23,33.5,23"/>
	<path class="st2" d="M36.2,22.5c-0.2,0-0.3,0.1-0.4,0.3l-0.8,1.8c0,0,0,0-0.1,0c0,0-0.1,0-0.1-0.1c0-0.1-0.1-0.3-0.3-0.8l-0.3-0.6
		c-0.1-0.2-0.2-0.4-0.2-0.4c-0.1-0.2-0.2-0.2-0.3-0.2c0,0,0,0,0-0.1c0,0,0,0,0-0.1h0.1c0.2,0,0.3,0,0.4,0c0.1,0,0.4,0,0.5,0h0.1
		c0,0,0,0,0,0.1c0,0,0,0,0,0.1c-0.1,0-0.3,0-0.3,0.1c0,0,0,0.1,0,0.1L35,24l0.5-1.1c0.1-0.1,0.1-0.2,0.1-0.3c0-0.1-0.1-0.2-0.3-0.2
		c0,0,0,0,0-0.1c0,0,0,0,0-0.1h0.1c0.1,0,0.2,0,0.4,0c0,0,0.2,0,0.3,0h0.2C36.2,22.4,36.2,22.4,36.2,22.5
		C36.2,22.4,36.2,22.5,36.2,22.5"/>
	<path class="st2" d="M39.5,24.5l-0.9,0h-0.2c0,0,0-0.1,0-0.1c0,0,0,0,0-0.1c0.1,0,0.2,0,0.2,0c0.1,0,0.1-0.1,0.1-0.3v-1.3
		c0,0,0-0.2,0-0.3h0l-0.5,1c-0.1,0.1-0.1,0.2-0.2,0.4c-0.1,0.2-0.2,0.4-0.2,0.5c0,0,0,0-0.1,0c0,0-0.1,0-0.1-0.1
		c-0.1-0.1-0.1-0.2-0.1-0.3l-0.7-1.6h0v0.4l0,1c0,0.3,0.2,0.5,0.4,0.5c0,0,0,0,0,0.1c0,0,0,0,0,0.1c0,0-0.1,0-0.1,0c0,0-0.2,0-0.4,0
		c-0.1,0-0.2,0-0.3,0h-0.1c0,0,0,0,0-0.1c0,0,0,0,0,0c0.1,0,0.3-0.1,0.3-0.1c0,0,0.1-0.1,0.1-0.4v-0.5v-0.6c0-0.2,0-0.2-0.1-0.3
		c0,0-0.2,0-0.3-0.1c0,0,0,0,0-0.1c0,0,0,0,0-0.1c0.1,0,0.2,0,0.4,0h0.5c0,0,0,0,0,0.1l0.7,1.5l0.1-0.3c0.1-0.2,0.2-0.6,0.5-1
		c0-0.1,0.1-0.2,0.1-0.2l0.8,0c0,0,0,0,0,0.1c0,0,0,0,0,0.1c-0.1,0-0.2,0-0.3,0.1c0,0-0.1,0.1-0.1,0.3v1c0,0.4,0.1,0.4,0.2,0.5
		c0,0,0.1,0,0.2,0C39.5,24.4,39.5,24.4,39.5,24.5C39.5,24.5,39.5,24.5,39.5,24.5"/>
</g>
<path class="st2" d="M42.2,28c-0.6,0.1-2.6,0.4-4.5,0.4c-2.7,0-6-0.4-6-0.4l-0.3,0v0.9c-0.2,0.1-0.8,0.3-1.5,0.3
	c-0.6,0-1.2-0.2-1.4-0.3v-0.9l-0.3,0c0,0-3.3,0.4-6,0.4c-1.9,0-3.9-0.3-4.5-0.4V15.1c0.2-0.1,0.9-0.2,1.3-0.3v11.7
	c0.1,0.3,0.7,0.9,3.1,0.9l3.1-0.4l2.4-0.3c1.6,0,2.1,0.8,2.1,0.9l0.1,0h0.4l0.1,0c0,0,0.5-0.9,2.1-0.9l2.4,0.3l3.1,0.4
	c2.5,0,3.1-0.7,3.2-0.7L41,14.7c0.3,0.1,0.9,0.3,1.1,0.3V28z M19.5,13.5c0.4,0.2,1.1,0.4,2.6,0.4l3.1-0.4l2.4-0.3
	c1.6,0,2.1,0.8,2.1,0.9v12.8c-0.4-0.3-1-0.7-2.1-0.7l-2.5,0.3l-3,0.4c-2.2,0-2.7-0.5-2.7-0.5C19.4,26.3,19.5,14.3,19.5,13.5
	 M30.2,14c0,0,0.5-0.9,2.1-0.9l2.4,0.3l3.1,0.4c1.5,0,2.3-0.2,2.7-0.4v13c0-0.1-0.7,0.4-2.7,0.4l-3-0.4l-2.5-0.3
	c-1.1,0-1.7,0.3-2.1,0.7C30.2,26.8,30.2,14,30.2,14z M41,14.2l0-1.8l-0.4,0.5c0,0-0.6,0.6-2.8,0.6l-3-0.4l-2.5-0.3
	c-1.4,0-2.1,0.5-2.3,0.9c-0.3-0.3-1-0.9-2.3-0.9L25.1,13l-3,0.4c-2.2,0-2.7-0.5-2.7-0.5L19,12.3l0,0.7v1.3l-1.8,0.4v13.8l0.2,0
	c0,0,2.5,0.4,4.8,0.4c2.3,0,4.9-0.3,5.8-0.4v0.6l0.1,0.1c0,0,0.8,0.4,1.8,0.4c1,0,1.8-0.4,1.8-0.4l0.1-0.1v-0.6
	c0.8,0.1,3.5,0.4,5.8,0.4s4.8-0.4,4.8-0.4l0.2,0V14.7L41,14.2z"/>
</svg>
